%TF.GenerationSoftware,KiCad,Pcbnew,(5.1.9)-1*%
%TF.CreationDate,2021-02-22T21:34:01+01:00*%
%TF.ProjectId,Panel,50616e65-6c2e-46b6-9963-61645f706362,2*%
%TF.SameCoordinates,Original*%
%TF.FileFunction,Legend,Bot*%
%TF.FilePolarity,Positive*%
%FSLAX46Y46*%
G04 Gerber Fmt 4.6, Leading zero omitted, Abs format (unit mm)*
G04 Created by KiCad (PCBNEW (5.1.9)-1) date 2021-02-22 21:34:01*
%MOMM*%
%LPD*%
G01*
G04 APERTURE LIST*
%ADD10C,0.150000*%
%ADD11C,0.120000*%
G04 APERTURE END LIST*
D10*
X88446552Y-69191119D02*
X88446552Y-68476833D01*
X88398933Y-68333976D01*
X88303695Y-68238738D01*
X88160838Y-68191119D01*
X88065600Y-68191119D01*
X89398933Y-68191119D02*
X88922742Y-68191119D01*
X88922742Y-69191119D01*
X90303695Y-68286357D02*
X90256076Y-68238738D01*
X90113219Y-68191119D01*
X90017980Y-68191119D01*
X89875123Y-68238738D01*
X89779885Y-68333976D01*
X89732266Y-68429214D01*
X89684647Y-68619690D01*
X89684647Y-68762547D01*
X89732266Y-68953023D01*
X89779885Y-69048261D01*
X89875123Y-69143500D01*
X90017980Y-69191119D01*
X90113219Y-69191119D01*
X90256076Y-69143500D01*
X90303695Y-69095880D01*
X91017980Y-69191119D02*
X91017980Y-68476833D01*
X90970361Y-68333976D01*
X90875123Y-68238738D01*
X90732266Y-68191119D01*
X90637028Y-68191119D01*
X91970361Y-68191119D02*
X91494171Y-68191119D01*
X91494171Y-69191119D01*
X92875123Y-68286357D02*
X92827504Y-68238738D01*
X92684647Y-68191119D01*
X92589409Y-68191119D01*
X92446552Y-68238738D01*
X92351314Y-68333976D01*
X92303695Y-68429214D01*
X92256076Y-68619690D01*
X92256076Y-68762547D01*
X92303695Y-68953023D01*
X92351314Y-69048261D01*
X92446552Y-69143500D01*
X92589409Y-69191119D01*
X92684647Y-69191119D01*
X92827504Y-69143500D01*
X92875123Y-69095880D01*
X93589409Y-69191119D02*
X93589409Y-68476833D01*
X93541790Y-68333976D01*
X93446552Y-68238738D01*
X93303695Y-68191119D01*
X93208457Y-68191119D01*
X94541790Y-68191119D02*
X94065600Y-68191119D01*
X94065600Y-69191119D01*
X95446552Y-68286357D02*
X95398933Y-68238738D01*
X95256076Y-68191119D01*
X95160838Y-68191119D01*
X95017980Y-68238738D01*
X94922742Y-68333976D01*
X94875123Y-68429214D01*
X94827504Y-68619690D01*
X94827504Y-68762547D01*
X94875123Y-68953023D01*
X94922742Y-69048261D01*
X95017980Y-69143500D01*
X95160838Y-69191119D01*
X95256076Y-69191119D01*
X95398933Y-69143500D01*
X95446552Y-69095880D01*
X96160838Y-69191119D02*
X96160838Y-68476833D01*
X96113219Y-68333976D01*
X96017980Y-68238738D01*
X95875123Y-68191119D01*
X95779885Y-68191119D01*
X97113219Y-68191119D02*
X96637028Y-68191119D01*
X96637028Y-69191119D01*
X98017980Y-68286357D02*
X97970361Y-68238738D01*
X97827504Y-68191119D01*
X97732266Y-68191119D01*
X97589409Y-68238738D01*
X97494171Y-68333976D01*
X97446552Y-68429214D01*
X97398933Y-68619690D01*
X97398933Y-68762547D01*
X97446552Y-68953023D01*
X97494171Y-69048261D01*
X97589409Y-69143500D01*
X97732266Y-69191119D01*
X97827504Y-69191119D01*
X97970361Y-69143500D01*
X98017980Y-69095880D01*
X134045883Y-100275440D02*
X134122074Y-100237344D01*
X134236360Y-100237344D01*
X134350645Y-100275440D01*
X134426836Y-100351630D01*
X134464931Y-100427820D01*
X134503026Y-100580201D01*
X134503026Y-100694487D01*
X134464931Y-100846868D01*
X134426836Y-100923059D01*
X134350645Y-100999249D01*
X134236360Y-101037344D01*
X134160169Y-101037344D01*
X134045883Y-100999249D01*
X134007788Y-100961154D01*
X134007788Y-100694487D01*
X134160169Y-100694487D01*
X133664931Y-101037344D02*
X133664931Y-100237344D01*
X133207788Y-101037344D01*
X133207788Y-100237344D01*
X132826836Y-101037344D02*
X132826836Y-100237344D01*
X132636360Y-100237344D01*
X132522074Y-100275440D01*
X132445883Y-100351630D01*
X132407788Y-100427820D01*
X132369693Y-100580201D01*
X132369693Y-100694487D01*
X132407788Y-100846868D01*
X132445883Y-100923059D01*
X132522074Y-100999249D01*
X132636360Y-101037344D01*
X132826836Y-101037344D01*
X76674040Y-106622262D02*
X76674040Y-107372262D01*
X77748325Y-107229405D02*
X77391182Y-106979405D01*
X77748325Y-106800834D02*
X76998325Y-106800834D01*
X76998325Y-107086548D01*
X77034040Y-107157977D01*
X77069754Y-107193691D01*
X77141182Y-107229405D01*
X77248325Y-107229405D01*
X77319754Y-107193691D01*
X77355468Y-107157977D01*
X77391182Y-107086548D01*
X77391182Y-106800834D01*
X76674040Y-107372262D02*
X76674040Y-108086548D01*
X77712611Y-107515120D02*
X77748325Y-107622262D01*
X77748325Y-107800834D01*
X77712611Y-107872262D01*
X77676897Y-107907977D01*
X77605468Y-107943691D01*
X77534040Y-107943691D01*
X77462611Y-107907977D01*
X77426897Y-107872262D01*
X77391182Y-107800834D01*
X77355468Y-107657977D01*
X77319754Y-107586548D01*
X77284040Y-107550834D01*
X77212611Y-107515120D01*
X77141182Y-107515120D01*
X77069754Y-107550834D01*
X77034040Y-107586548D01*
X76998325Y-107657977D01*
X76998325Y-107836548D01*
X77034040Y-107943691D01*
X76674040Y-108086548D02*
X76674040Y-108657977D01*
X76998325Y-108157977D02*
X76998325Y-108586548D01*
X77748325Y-108372262D02*
X76998325Y-108372262D01*
X76618160Y-104171857D02*
X76618160Y-104529000D01*
X77692445Y-104350428D02*
X76942445Y-104350428D01*
X76618160Y-104529000D02*
X76618160Y-105314714D01*
X77692445Y-104707571D02*
X76942445Y-104707571D01*
X77692445Y-105136142D01*
X76942445Y-105136142D01*
X76618160Y-105314714D02*
X76618160Y-105886142D01*
X76942445Y-105386142D02*
X76942445Y-105814714D01*
X77692445Y-105600428D02*
X76942445Y-105600428D01*
X76881640Y-94470291D02*
X76845925Y-94398862D01*
X76845925Y-94291720D01*
X76881640Y-94184577D01*
X76953068Y-94113148D01*
X77024497Y-94077434D01*
X77167354Y-94041720D01*
X77274497Y-94041720D01*
X77417354Y-94077434D01*
X77488782Y-94113148D01*
X77560211Y-94184577D01*
X77595925Y-94291720D01*
X77595925Y-94363148D01*
X77560211Y-94470291D01*
X77524497Y-94506005D01*
X77274497Y-94506005D01*
X77274497Y-94363148D01*
X77595925Y-94827434D02*
X76845925Y-94827434D01*
X77595925Y-95256005D01*
X76845925Y-95256005D01*
X77595925Y-95613148D02*
X76845925Y-95613148D01*
X76845925Y-95791720D01*
X76881640Y-95898862D01*
X76953068Y-95970291D01*
X77024497Y-96006005D01*
X77167354Y-96041720D01*
X77274497Y-96041720D01*
X77417354Y-96006005D01*
X77488782Y-95970291D01*
X77560211Y-95898862D01*
X77595925Y-95791720D01*
X77595925Y-95613148D01*
X77626251Y-99124645D02*
X77661965Y-99231788D01*
X77661965Y-99410360D01*
X77626251Y-99481788D01*
X77590537Y-99517502D01*
X77519108Y-99553217D01*
X77447680Y-99553217D01*
X77376251Y-99517502D01*
X77340537Y-99481788D01*
X77304822Y-99410360D01*
X77269108Y-99267502D01*
X77233394Y-99196074D01*
X77197680Y-99160360D01*
X77126251Y-99124645D01*
X77054822Y-99124645D01*
X76983394Y-99160360D01*
X76947680Y-99196074D01*
X76911965Y-99267502D01*
X76911965Y-99446074D01*
X76947680Y-99553217D01*
X77661965Y-99874645D02*
X76911965Y-99874645D01*
X76911965Y-100053217D01*
X76947680Y-100160360D01*
X77019108Y-100231788D01*
X77090537Y-100267502D01*
X77233394Y-100303217D01*
X77340537Y-100303217D01*
X77483394Y-100267502D01*
X77554822Y-100231788D01*
X77626251Y-100160360D01*
X77661965Y-100053217D01*
X77661965Y-99874645D01*
X77447680Y-100588931D02*
X77447680Y-100946074D01*
X77661965Y-100517502D02*
X76911965Y-100767502D01*
X77661965Y-101017502D01*
X134165240Y-112287004D02*
X134165240Y-111487004D01*
X133631906Y-111487004D02*
X133479525Y-111487004D01*
X133403335Y-111525100D01*
X133327144Y-111601290D01*
X133289049Y-111753671D01*
X133289049Y-112020338D01*
X133327144Y-112172719D01*
X133403335Y-112248909D01*
X133479525Y-112287004D01*
X133631906Y-112287004D01*
X133708097Y-112248909D01*
X133784287Y-112172719D01*
X133822382Y-112020338D01*
X133822382Y-111753671D01*
X133784287Y-111601290D01*
X133708097Y-111525100D01*
X133631906Y-111487004D01*
X132984287Y-111563195D02*
X132946192Y-111525100D01*
X132870001Y-111487004D01*
X132679525Y-111487004D01*
X132603335Y-111525100D01*
X132565240Y-111563195D01*
X132527144Y-111639385D01*
X132527144Y-111715576D01*
X132565240Y-111829861D01*
X133022382Y-112287004D01*
X132527144Y-112287004D01*
X131676040Y-110938264D02*
X131676040Y-110138264D01*
X131142706Y-110138264D02*
X130990325Y-110138264D01*
X130914135Y-110176360D01*
X130837944Y-110252550D01*
X130799849Y-110404931D01*
X130799849Y-110671598D01*
X130837944Y-110823979D01*
X130914135Y-110900169D01*
X130990325Y-110938264D01*
X131142706Y-110938264D01*
X131218897Y-110900169D01*
X131295087Y-110823979D01*
X131333182Y-110671598D01*
X131333182Y-110404931D01*
X131295087Y-110252550D01*
X131218897Y-110176360D01*
X131142706Y-110138264D01*
X130037944Y-110938264D02*
X130495087Y-110938264D01*
X130266516Y-110938264D02*
X130266516Y-110138264D01*
X130342706Y-110252550D01*
X130418897Y-110328740D01*
X130495087Y-110366836D01*
X131686200Y-112299704D02*
X131686200Y-111499704D01*
X131152866Y-111499704D02*
X131000485Y-111499704D01*
X130924295Y-111537800D01*
X130848104Y-111613990D01*
X130810009Y-111766371D01*
X130810009Y-112033038D01*
X130848104Y-112185419D01*
X130924295Y-112261609D01*
X131000485Y-112299704D01*
X131152866Y-112299704D01*
X131229057Y-112261609D01*
X131305247Y-112185419D01*
X131343342Y-112033038D01*
X131343342Y-111766371D01*
X131305247Y-111613990D01*
X131229057Y-111537800D01*
X131152866Y-111499704D01*
X130543342Y-111499704D02*
X130048104Y-111499704D01*
X130314771Y-111804466D01*
X130200485Y-111804466D01*
X130124295Y-111842561D01*
X130086200Y-111880657D01*
X130048104Y-111956847D01*
X130048104Y-112147323D01*
X130086200Y-112223514D01*
X130124295Y-112261609D01*
X130200485Y-112299704D01*
X130429057Y-112299704D01*
X130505247Y-112261609D01*
X130543342Y-112223514D01*
X131963026Y-100232264D02*
X131696360Y-101032264D01*
X131429693Y-100232264D01*
X130705883Y-100956074D02*
X130743979Y-100994169D01*
X130858264Y-101032264D01*
X130934455Y-101032264D01*
X131048740Y-100994169D01*
X131124931Y-100917979D01*
X131163026Y-100841788D01*
X131201121Y-100689407D01*
X131201121Y-100575121D01*
X131163026Y-100422740D01*
X131124931Y-100346550D01*
X131048740Y-100270360D01*
X130934455Y-100232264D01*
X130858264Y-100232264D01*
X130743979Y-100270360D01*
X130705883Y-100308455D01*
X129905883Y-100956074D02*
X129943979Y-100994169D01*
X130058264Y-101032264D01*
X130134455Y-101032264D01*
X130248740Y-100994169D01*
X130324931Y-100917979D01*
X130363026Y-100841788D01*
X130401121Y-100689407D01*
X130401121Y-100575121D01*
X130363026Y-100422740D01*
X130324931Y-100346550D01*
X130248740Y-100270360D01*
X130134455Y-100232264D01*
X130058264Y-100232264D01*
X129943979Y-100270360D01*
X129905883Y-100308455D01*
X76911965Y-96536000D02*
X77661965Y-96786000D01*
X76911965Y-97036000D01*
X77590537Y-97714571D02*
X77626251Y-97678857D01*
X77661965Y-97571714D01*
X77661965Y-97500285D01*
X77626251Y-97393142D01*
X77554822Y-97321714D01*
X77483394Y-97286000D01*
X77340537Y-97250285D01*
X77233394Y-97250285D01*
X77090537Y-97286000D01*
X77019108Y-97321714D01*
X76947680Y-97393142D01*
X76911965Y-97500285D01*
X76911965Y-97571714D01*
X76947680Y-97678857D01*
X76983394Y-97714571D01*
X77590537Y-98464571D02*
X77626251Y-98428857D01*
X77661965Y-98321714D01*
X77661965Y-98250285D01*
X77626251Y-98143142D01*
X77554822Y-98071714D01*
X77483394Y-98036000D01*
X77340537Y-98000285D01*
X77233394Y-98000285D01*
X77090537Y-98036000D01*
X77019108Y-98071714D01*
X76947680Y-98143142D01*
X76911965Y-98250285D01*
X76911965Y-98321714D01*
X76947680Y-98428857D01*
X76983394Y-98464571D01*
X134165240Y-110938264D02*
X134165240Y-110138264D01*
X133631906Y-110138264D02*
X133479525Y-110138264D01*
X133403335Y-110176360D01*
X133327144Y-110252550D01*
X133289049Y-110404931D01*
X133289049Y-110671598D01*
X133327144Y-110823979D01*
X133403335Y-110900169D01*
X133479525Y-110938264D01*
X133631906Y-110938264D01*
X133708097Y-110900169D01*
X133784287Y-110823979D01*
X133822382Y-110671598D01*
X133822382Y-110404931D01*
X133784287Y-110252550D01*
X133708097Y-110176360D01*
X133631906Y-110138264D01*
X132793811Y-110138264D02*
X132717620Y-110138264D01*
X132641430Y-110176360D01*
X132603335Y-110214455D01*
X132565240Y-110290645D01*
X132527144Y-110443026D01*
X132527144Y-110633502D01*
X132565240Y-110785883D01*
X132603335Y-110862074D01*
X132641430Y-110900169D01*
X132717620Y-110938264D01*
X132793811Y-110938264D01*
X132870001Y-110900169D01*
X132908097Y-110862074D01*
X132946192Y-110785883D01*
X132984287Y-110633502D01*
X132984287Y-110443026D01*
X132946192Y-110290645D01*
X132908097Y-110214455D01*
X132870001Y-110176360D01*
X132793811Y-110138264D01*
X77595771Y-101723142D02*
X77631485Y-101830285D01*
X77631485Y-102008857D01*
X77595771Y-102080285D01*
X77560057Y-102116000D01*
X77488628Y-102151714D01*
X77417200Y-102151714D01*
X77345771Y-102116000D01*
X77310057Y-102080285D01*
X77274342Y-102008857D01*
X77238628Y-101866000D01*
X77202914Y-101794571D01*
X77167200Y-101758857D01*
X77095771Y-101723142D01*
X77024342Y-101723142D01*
X76952914Y-101758857D01*
X76917200Y-101794571D01*
X76881485Y-101866000D01*
X76881485Y-102044571D01*
X76917200Y-102151714D01*
X77560057Y-102901714D02*
X77595771Y-102866000D01*
X77631485Y-102758857D01*
X77631485Y-102687428D01*
X77595771Y-102580285D01*
X77524342Y-102508857D01*
X77452914Y-102473142D01*
X77310057Y-102437428D01*
X77202914Y-102437428D01*
X77060057Y-102473142D01*
X76988628Y-102508857D01*
X76917200Y-102580285D01*
X76881485Y-102687428D01*
X76881485Y-102758857D01*
X76917200Y-102866000D01*
X76952914Y-102901714D01*
X77631485Y-103580285D02*
X77631485Y-103223142D01*
X76881485Y-103223142D01*
D11*
%TO.C,U101*%
X83926800Y-94689200D02*
X83926800Y-93229200D01*
X80766800Y-94689200D02*
X80766800Y-91529200D01*
X80766800Y-94689200D02*
X81696800Y-94689200D01*
X83926800Y-94689200D02*
X82996800Y-94689200D01*
%TO.C,R103*%
X110234464Y-87809400D02*
X109780336Y-87809400D01*
X110234464Y-89279400D02*
X109780336Y-89279400D01*
%TO.C,R102*%
X106389664Y-87809400D02*
X105935536Y-87809400D01*
X106389664Y-89279400D02*
X105935536Y-89279400D01*
%TO.C,J102*%
X70311000Y-92537600D02*
X76281000Y-92537600D01*
X76281000Y-92537600D02*
X76281000Y-110157600D01*
X76281000Y-110157600D02*
X70311000Y-110157600D01*
X70311000Y-110157600D02*
X70311000Y-92537600D01*
X70321000Y-95847600D02*
X71071000Y-95847600D01*
X71071000Y-95847600D02*
X71071000Y-106847600D01*
X71071000Y-106847600D02*
X70321000Y-106847600D01*
X70321000Y-106847600D02*
X70321000Y-95847600D01*
X70321000Y-92547600D02*
X71071000Y-92547600D01*
X71071000Y-92547600D02*
X71071000Y-94347600D01*
X71071000Y-94347600D02*
X70321000Y-94347600D01*
X70321000Y-94347600D02*
X70321000Y-92547600D01*
X70321000Y-108347600D02*
X71071000Y-108347600D01*
X71071000Y-108347600D02*
X71071000Y-110147600D01*
X71071000Y-110147600D02*
X70321000Y-110147600D01*
X70321000Y-110147600D02*
X70321000Y-108347600D01*
X72571000Y-92547600D02*
X72571000Y-93297600D01*
X72571000Y-93297600D02*
X75521000Y-93297600D01*
X75521000Y-93297600D02*
X75521000Y-101347600D01*
X72571000Y-110147600D02*
X72571000Y-109397600D01*
X72571000Y-109397600D02*
X75521000Y-109397600D01*
X75521000Y-109397600D02*
X75521000Y-101347600D01*
X70021000Y-93497600D02*
X70021000Y-92247600D01*
X70021000Y-92247600D02*
X71271000Y-92247600D01*
%TO.C,C101*%
X79449600Y-96578052D02*
X79449600Y-96055548D01*
X77979600Y-96578052D02*
X77979600Y-96055548D01*
%TO.C,BZ101*%
X109884600Y-99758400D02*
X112534600Y-99758400D01*
X112534600Y-99758400D02*
X112534600Y-90538400D01*
X112534600Y-90538400D02*
X109884600Y-90538400D01*
X105964600Y-90538400D02*
X103314600Y-90538400D01*
X103314600Y-90538400D02*
X103314600Y-99758400D01*
X103314600Y-99758400D02*
X105964600Y-99758400D01*
X109884600Y-99758400D02*
X109884600Y-100088400D01*
%TO.C,R101*%
X104928936Y-103478000D02*
X105383064Y-103478000D01*
X104928936Y-102008000D02*
X105383064Y-102008000D01*
%TO.C,U102*%
X89612000Y-106351000D02*
X87797000Y-106351000D01*
X89612000Y-106586000D02*
X89612000Y-106351000D01*
X93472000Y-106586000D02*
X89612000Y-106586000D01*
X97332000Y-106586000D02*
X97332000Y-106351000D01*
X93472000Y-106586000D02*
X97332000Y-106586000D01*
X89612000Y-93566000D02*
X89612000Y-93801000D01*
X93472000Y-93566000D02*
X89612000Y-93566000D01*
X97332000Y-93566000D02*
X97332000Y-93801000D01*
X93472000Y-93566000D02*
X97332000Y-93566000D01*
%TO.C,C104*%
X93326852Y-107570600D02*
X92804348Y-107570600D01*
X93326852Y-109040600D02*
X92804348Y-109040600D01*
%TO.C,C103*%
X82011152Y-89460400D02*
X81488648Y-89460400D01*
X82011152Y-90930400D02*
X81488648Y-90930400D01*
%TO.C,C102*%
X81856948Y-98499600D02*
X82379452Y-98499600D01*
X81856948Y-97029600D02*
X82379452Y-97029600D01*
%TO.C,R104*%
X113183936Y-110691600D02*
X113638064Y-110691600D01*
X113183936Y-109221600D02*
X113638064Y-109221600D01*
%TO.C,J103*%
X134743500Y-109153000D02*
X129543500Y-109153000D01*
X134743500Y-104013000D02*
X134743500Y-109153000D01*
X129543500Y-101413000D02*
X129543500Y-109153000D01*
X134743500Y-104013000D02*
X132143500Y-104013000D01*
X132143500Y-104013000D02*
X132143500Y-101413000D01*
X132143500Y-101413000D02*
X129543500Y-101413000D01*
X134743500Y-102743000D02*
X134743500Y-101413000D01*
X134743500Y-101413000D02*
X133413500Y-101413000D01*
%TO.C,R105*%
X113361736Y-118591000D02*
X113815864Y-118591000D01*
X113361736Y-117121000D02*
X113815864Y-117121000D01*
%TO.C,U101*%
D10*
X79299180Y-92214914D02*
X80108704Y-92214914D01*
X80203942Y-92262533D01*
X80251561Y-92310152D01*
X80299180Y-92405390D01*
X80299180Y-92595866D01*
X80251561Y-92691104D01*
X80203942Y-92738723D01*
X80108704Y-92786342D01*
X79299180Y-92786342D01*
X80299180Y-93786342D02*
X80299180Y-93214914D01*
X80299180Y-93500628D02*
X79299180Y-93500628D01*
X79442038Y-93405390D01*
X79537276Y-93310152D01*
X79584895Y-93214914D01*
X79299180Y-94405390D02*
X79299180Y-94500628D01*
X79346800Y-94595866D01*
X79394419Y-94643485D01*
X79489657Y-94691104D01*
X79680133Y-94738723D01*
X79918228Y-94738723D01*
X80108704Y-94691104D01*
X80203942Y-94643485D01*
X80251561Y-94595866D01*
X80299180Y-94500628D01*
X80299180Y-94405390D01*
X80251561Y-94310152D01*
X80203942Y-94262533D01*
X80108704Y-94214914D01*
X79918228Y-94167295D01*
X79680133Y-94167295D01*
X79489657Y-94214914D01*
X79394419Y-94262533D01*
X79346800Y-94310152D01*
X79299180Y-94405390D01*
X80299180Y-95691104D02*
X80299180Y-95119676D01*
X80299180Y-95405390D02*
X79299180Y-95405390D01*
X79442038Y-95310152D01*
X79537276Y-95214914D01*
X79584895Y-95119676D01*
%TO.C,R103*%
X111253447Y-90749380D02*
X111586780Y-90273190D01*
X111824876Y-90749380D02*
X111824876Y-89749380D01*
X111443923Y-89749380D01*
X111348685Y-89797000D01*
X111301066Y-89844619D01*
X111253447Y-89939857D01*
X111253447Y-90082714D01*
X111301066Y-90177952D01*
X111348685Y-90225571D01*
X111443923Y-90273190D01*
X111824876Y-90273190D01*
X110301066Y-90749380D02*
X110872495Y-90749380D01*
X110586780Y-90749380D02*
X110586780Y-89749380D01*
X110682019Y-89892238D01*
X110777257Y-89987476D01*
X110872495Y-90035095D01*
X109682019Y-89749380D02*
X109586780Y-89749380D01*
X109491542Y-89797000D01*
X109443923Y-89844619D01*
X109396304Y-89939857D01*
X109348685Y-90130333D01*
X109348685Y-90368428D01*
X109396304Y-90558904D01*
X109443923Y-90654142D01*
X109491542Y-90701761D01*
X109586780Y-90749380D01*
X109682019Y-90749380D01*
X109777257Y-90701761D01*
X109824876Y-90654142D01*
X109872495Y-90558904D01*
X109920114Y-90368428D01*
X109920114Y-90130333D01*
X109872495Y-89939857D01*
X109824876Y-89844619D01*
X109777257Y-89797000D01*
X109682019Y-89749380D01*
X109015352Y-89749380D02*
X108396304Y-89749380D01*
X108729638Y-90130333D01*
X108586780Y-90130333D01*
X108491542Y-90177952D01*
X108443923Y-90225571D01*
X108396304Y-90320809D01*
X108396304Y-90558904D01*
X108443923Y-90654142D01*
X108491542Y-90701761D01*
X108586780Y-90749380D01*
X108872495Y-90749380D01*
X108967733Y-90701761D01*
X109015352Y-90654142D01*
%TO.C,R102*%
X106910047Y-90622380D02*
X107243380Y-90146190D01*
X107481476Y-90622380D02*
X107481476Y-89622380D01*
X107100523Y-89622380D01*
X107005285Y-89670000D01*
X106957666Y-89717619D01*
X106910047Y-89812857D01*
X106910047Y-89955714D01*
X106957666Y-90050952D01*
X107005285Y-90098571D01*
X107100523Y-90146190D01*
X107481476Y-90146190D01*
X105957666Y-90622380D02*
X106529095Y-90622380D01*
X106243380Y-90622380D02*
X106243380Y-89622380D01*
X106338619Y-89765238D01*
X106433857Y-89860476D01*
X106529095Y-89908095D01*
X105338619Y-89622380D02*
X105243380Y-89622380D01*
X105148142Y-89670000D01*
X105100523Y-89717619D01*
X105052904Y-89812857D01*
X105005285Y-90003333D01*
X105005285Y-90241428D01*
X105052904Y-90431904D01*
X105100523Y-90527142D01*
X105148142Y-90574761D01*
X105243380Y-90622380D01*
X105338619Y-90622380D01*
X105433857Y-90574761D01*
X105481476Y-90527142D01*
X105529095Y-90431904D01*
X105576714Y-90241428D01*
X105576714Y-90003333D01*
X105529095Y-89812857D01*
X105481476Y-89717619D01*
X105433857Y-89670000D01*
X105338619Y-89622380D01*
X104624333Y-89717619D02*
X104576714Y-89670000D01*
X104481476Y-89622380D01*
X104243380Y-89622380D01*
X104148142Y-89670000D01*
X104100523Y-89717619D01*
X104052904Y-89812857D01*
X104052904Y-89908095D01*
X104100523Y-90050952D01*
X104671952Y-90622380D01*
X104052904Y-90622380D01*
%TO.C,J102*%
X74107514Y-90943180D02*
X74107514Y-91657466D01*
X74155133Y-91800323D01*
X74250371Y-91895561D01*
X74393228Y-91943180D01*
X74488466Y-91943180D01*
X73107514Y-91943180D02*
X73678942Y-91943180D01*
X73393228Y-91943180D02*
X73393228Y-90943180D01*
X73488466Y-91086038D01*
X73583704Y-91181276D01*
X73678942Y-91228895D01*
X72488466Y-90943180D02*
X72393228Y-90943180D01*
X72297990Y-90990800D01*
X72250371Y-91038419D01*
X72202752Y-91133657D01*
X72155133Y-91324133D01*
X72155133Y-91562228D01*
X72202752Y-91752704D01*
X72250371Y-91847942D01*
X72297990Y-91895561D01*
X72393228Y-91943180D01*
X72488466Y-91943180D01*
X72583704Y-91895561D01*
X72631323Y-91847942D01*
X72678942Y-91752704D01*
X72726561Y-91562228D01*
X72726561Y-91324133D01*
X72678942Y-91133657D01*
X72631323Y-91038419D01*
X72583704Y-90990800D01*
X72488466Y-90943180D01*
X71774180Y-91038419D02*
X71726561Y-90990800D01*
X71631323Y-90943180D01*
X71393228Y-90943180D01*
X71297990Y-90990800D01*
X71250371Y-91038419D01*
X71202752Y-91133657D01*
X71202752Y-91228895D01*
X71250371Y-91371752D01*
X71821800Y-91943180D01*
X71202752Y-91943180D01*
%TO.C,C101*%
X79046342Y-91311552D02*
X79093961Y-91263933D01*
X79141580Y-91121076D01*
X79141580Y-91025838D01*
X79093961Y-90882980D01*
X78998723Y-90787742D01*
X78903485Y-90740123D01*
X78713009Y-90692504D01*
X78570152Y-90692504D01*
X78379676Y-90740123D01*
X78284438Y-90787742D01*
X78189200Y-90882980D01*
X78141580Y-91025838D01*
X78141580Y-91121076D01*
X78189200Y-91263933D01*
X78236819Y-91311552D01*
X79141580Y-92263933D02*
X79141580Y-91692504D01*
X79141580Y-91978219D02*
X78141580Y-91978219D01*
X78284438Y-91882980D01*
X78379676Y-91787742D01*
X78427295Y-91692504D01*
X78141580Y-92882980D02*
X78141580Y-92978219D01*
X78189200Y-93073457D01*
X78236819Y-93121076D01*
X78332057Y-93168695D01*
X78522533Y-93216314D01*
X78760628Y-93216314D01*
X78951104Y-93168695D01*
X79046342Y-93121076D01*
X79093961Y-93073457D01*
X79141580Y-92978219D01*
X79141580Y-92882980D01*
X79093961Y-92787742D01*
X79046342Y-92740123D01*
X78951104Y-92692504D01*
X78760628Y-92644885D01*
X78522533Y-92644885D01*
X78332057Y-92692504D01*
X78236819Y-92740123D01*
X78189200Y-92787742D01*
X78141580Y-92882980D01*
X79141580Y-94168695D02*
X79141580Y-93597266D01*
X79141580Y-93882980D02*
X78141580Y-93882980D01*
X78284438Y-93787742D01*
X78379676Y-93692504D01*
X78427295Y-93597266D01*
%TO.C,BZ101*%
X109864613Y-89351811D02*
X109721756Y-89399430D01*
X109674137Y-89447049D01*
X109626518Y-89542287D01*
X109626518Y-89685144D01*
X109674137Y-89780382D01*
X109721756Y-89828001D01*
X109816994Y-89875620D01*
X110197946Y-89875620D01*
X110197946Y-88875620D01*
X109864613Y-88875620D01*
X109769375Y-88923240D01*
X109721756Y-88970859D01*
X109674137Y-89066097D01*
X109674137Y-89161335D01*
X109721756Y-89256573D01*
X109769375Y-89304192D01*
X109864613Y-89351811D01*
X110197946Y-89351811D01*
X109293184Y-88875620D02*
X108626518Y-88875620D01*
X109293184Y-89875620D01*
X108626518Y-89875620D01*
X107721756Y-89875620D02*
X108293184Y-89875620D01*
X108007470Y-89875620D02*
X108007470Y-88875620D01*
X108102708Y-89018478D01*
X108197946Y-89113716D01*
X108293184Y-89161335D01*
X107102708Y-88875620D02*
X107007470Y-88875620D01*
X106912232Y-88923240D01*
X106864613Y-88970859D01*
X106816994Y-89066097D01*
X106769375Y-89256573D01*
X106769375Y-89494668D01*
X106816994Y-89685144D01*
X106864613Y-89780382D01*
X106912232Y-89828001D01*
X107007470Y-89875620D01*
X107102708Y-89875620D01*
X107197946Y-89828001D01*
X107245565Y-89780382D01*
X107293184Y-89685144D01*
X107340803Y-89494668D01*
X107340803Y-89256573D01*
X107293184Y-89066097D01*
X107245565Y-88970859D01*
X107197946Y-88923240D01*
X107102708Y-88875620D01*
X105816994Y-89875620D02*
X106388422Y-89875620D01*
X106102708Y-89875620D02*
X106102708Y-88875620D01*
X106197946Y-89018478D01*
X106293184Y-89113716D01*
X106388422Y-89161335D01*
%TO.C,R101*%
X106214087Y-101605340D02*
X106547420Y-101129150D01*
X106785516Y-101605340D02*
X106785516Y-100605340D01*
X106404563Y-100605340D01*
X106309325Y-100652960D01*
X106261706Y-100700579D01*
X106214087Y-100795817D01*
X106214087Y-100938674D01*
X106261706Y-101033912D01*
X106309325Y-101081531D01*
X106404563Y-101129150D01*
X106785516Y-101129150D01*
X105261706Y-101605340D02*
X105833135Y-101605340D01*
X105547420Y-101605340D02*
X105547420Y-100605340D01*
X105642659Y-100748198D01*
X105737897Y-100843436D01*
X105833135Y-100891055D01*
X104642659Y-100605340D02*
X104547420Y-100605340D01*
X104452182Y-100652960D01*
X104404563Y-100700579D01*
X104356944Y-100795817D01*
X104309325Y-100986293D01*
X104309325Y-101224388D01*
X104356944Y-101414864D01*
X104404563Y-101510102D01*
X104452182Y-101557721D01*
X104547420Y-101605340D01*
X104642659Y-101605340D01*
X104737897Y-101557721D01*
X104785516Y-101510102D01*
X104833135Y-101414864D01*
X104880754Y-101224388D01*
X104880754Y-100986293D01*
X104833135Y-100795817D01*
X104785516Y-100700579D01*
X104737897Y-100652960D01*
X104642659Y-100605340D01*
X103356944Y-101605340D02*
X103928373Y-101605340D01*
X103642659Y-101605340D02*
X103642659Y-100605340D01*
X103737897Y-100748198D01*
X103833135Y-100843436D01*
X103928373Y-100891055D01*
%TO.C,U102*%
X95226925Y-92203020D02*
X95226925Y-93012544D01*
X95179306Y-93107782D01*
X95131687Y-93155401D01*
X95036449Y-93203020D01*
X94845973Y-93203020D01*
X94750735Y-93155401D01*
X94703116Y-93107782D01*
X94655497Y-93012544D01*
X94655497Y-92203020D01*
X93655497Y-93203020D02*
X94226925Y-93203020D01*
X93941211Y-93203020D02*
X93941211Y-92203020D01*
X94036449Y-92345878D01*
X94131687Y-92441116D01*
X94226925Y-92488735D01*
X93036449Y-92203020D02*
X92941211Y-92203020D01*
X92845973Y-92250640D01*
X92798354Y-92298259D01*
X92750735Y-92393497D01*
X92703116Y-92583973D01*
X92703116Y-92822068D01*
X92750735Y-93012544D01*
X92798354Y-93107782D01*
X92845973Y-93155401D01*
X92941211Y-93203020D01*
X93036449Y-93203020D01*
X93131687Y-93155401D01*
X93179306Y-93107782D01*
X93226925Y-93012544D01*
X93274544Y-92822068D01*
X93274544Y-92583973D01*
X93226925Y-92393497D01*
X93179306Y-92298259D01*
X93131687Y-92250640D01*
X93036449Y-92203020D01*
X92322163Y-92298259D02*
X92274544Y-92250640D01*
X92179306Y-92203020D01*
X91941211Y-92203020D01*
X91845973Y-92250640D01*
X91798354Y-92298259D01*
X91750735Y-92393497D01*
X91750735Y-92488735D01*
X91798354Y-92631592D01*
X92369782Y-93203020D01*
X91750735Y-93203020D01*
%TO.C,C104*%
X94210047Y-110516942D02*
X94257666Y-110564561D01*
X94400523Y-110612180D01*
X94495761Y-110612180D01*
X94638619Y-110564561D01*
X94733857Y-110469323D01*
X94781476Y-110374085D01*
X94829095Y-110183609D01*
X94829095Y-110040752D01*
X94781476Y-109850276D01*
X94733857Y-109755038D01*
X94638619Y-109659800D01*
X94495761Y-109612180D01*
X94400523Y-109612180D01*
X94257666Y-109659800D01*
X94210047Y-109707419D01*
X93257666Y-110612180D02*
X93829095Y-110612180D01*
X93543380Y-110612180D02*
X93543380Y-109612180D01*
X93638619Y-109755038D01*
X93733857Y-109850276D01*
X93829095Y-109897895D01*
X92638619Y-109612180D02*
X92543380Y-109612180D01*
X92448142Y-109659800D01*
X92400523Y-109707419D01*
X92352904Y-109802657D01*
X92305285Y-109993133D01*
X92305285Y-110231228D01*
X92352904Y-110421704D01*
X92400523Y-110516942D01*
X92448142Y-110564561D01*
X92543380Y-110612180D01*
X92638619Y-110612180D01*
X92733857Y-110564561D01*
X92781476Y-110516942D01*
X92829095Y-110421704D01*
X92876714Y-110231228D01*
X92876714Y-109993133D01*
X92829095Y-109802657D01*
X92781476Y-109707419D01*
X92733857Y-109659800D01*
X92638619Y-109612180D01*
X91448142Y-109945514D02*
X91448142Y-110612180D01*
X91686238Y-109564561D02*
X91924333Y-110278847D01*
X91305285Y-110278847D01*
%TO.C,C103*%
X82868947Y-88872542D02*
X82916566Y-88920161D01*
X83059423Y-88967780D01*
X83154661Y-88967780D01*
X83297519Y-88920161D01*
X83392757Y-88824923D01*
X83440376Y-88729685D01*
X83487995Y-88539209D01*
X83487995Y-88396352D01*
X83440376Y-88205876D01*
X83392757Y-88110638D01*
X83297519Y-88015400D01*
X83154661Y-87967780D01*
X83059423Y-87967780D01*
X82916566Y-88015400D01*
X82868947Y-88063019D01*
X81916566Y-88967780D02*
X82487995Y-88967780D01*
X82202280Y-88967780D02*
X82202280Y-87967780D01*
X82297519Y-88110638D01*
X82392757Y-88205876D01*
X82487995Y-88253495D01*
X81297519Y-87967780D02*
X81202280Y-87967780D01*
X81107042Y-88015400D01*
X81059423Y-88063019D01*
X81011804Y-88158257D01*
X80964185Y-88348733D01*
X80964185Y-88586828D01*
X81011804Y-88777304D01*
X81059423Y-88872542D01*
X81107042Y-88920161D01*
X81202280Y-88967780D01*
X81297519Y-88967780D01*
X81392757Y-88920161D01*
X81440376Y-88872542D01*
X81487995Y-88777304D01*
X81535614Y-88586828D01*
X81535614Y-88348733D01*
X81487995Y-88158257D01*
X81440376Y-88063019D01*
X81392757Y-88015400D01*
X81297519Y-87967780D01*
X80630852Y-87967780D02*
X80011804Y-87967780D01*
X80345138Y-88348733D01*
X80202280Y-88348733D01*
X80107042Y-88396352D01*
X80059423Y-88443971D01*
X80011804Y-88539209D01*
X80011804Y-88777304D01*
X80059423Y-88872542D01*
X80107042Y-88920161D01*
X80202280Y-88967780D01*
X80487995Y-88967780D01*
X80583233Y-88920161D01*
X80630852Y-88872542D01*
%TO.C,C102*%
X83237247Y-99899742D02*
X83284866Y-99947361D01*
X83427723Y-99994980D01*
X83522961Y-99994980D01*
X83665819Y-99947361D01*
X83761057Y-99852123D01*
X83808676Y-99756885D01*
X83856295Y-99566409D01*
X83856295Y-99423552D01*
X83808676Y-99233076D01*
X83761057Y-99137838D01*
X83665819Y-99042600D01*
X83522961Y-98994980D01*
X83427723Y-98994980D01*
X83284866Y-99042600D01*
X83237247Y-99090219D01*
X82284866Y-99994980D02*
X82856295Y-99994980D01*
X82570580Y-99994980D02*
X82570580Y-98994980D01*
X82665819Y-99137838D01*
X82761057Y-99233076D01*
X82856295Y-99280695D01*
X81665819Y-98994980D02*
X81570580Y-98994980D01*
X81475342Y-99042600D01*
X81427723Y-99090219D01*
X81380104Y-99185457D01*
X81332485Y-99375933D01*
X81332485Y-99614028D01*
X81380104Y-99804504D01*
X81427723Y-99899742D01*
X81475342Y-99947361D01*
X81570580Y-99994980D01*
X81665819Y-99994980D01*
X81761057Y-99947361D01*
X81808676Y-99899742D01*
X81856295Y-99804504D01*
X81903914Y-99614028D01*
X81903914Y-99375933D01*
X81856295Y-99185457D01*
X81808676Y-99090219D01*
X81761057Y-99042600D01*
X81665819Y-98994980D01*
X80951533Y-99090219D02*
X80903914Y-99042600D01*
X80808676Y-98994980D01*
X80570580Y-98994980D01*
X80475342Y-99042600D01*
X80427723Y-99090219D01*
X80380104Y-99185457D01*
X80380104Y-99280695D01*
X80427723Y-99423552D01*
X80999152Y-99994980D01*
X80380104Y-99994980D01*
%TO.C,R104*%
X114443687Y-108763060D02*
X114777020Y-108286870D01*
X115015116Y-108763060D02*
X115015116Y-107763060D01*
X114634163Y-107763060D01*
X114538925Y-107810680D01*
X114491306Y-107858299D01*
X114443687Y-107953537D01*
X114443687Y-108096394D01*
X114491306Y-108191632D01*
X114538925Y-108239251D01*
X114634163Y-108286870D01*
X115015116Y-108286870D01*
X113491306Y-108763060D02*
X114062735Y-108763060D01*
X113777020Y-108763060D02*
X113777020Y-107763060D01*
X113872259Y-107905918D01*
X113967497Y-108001156D01*
X114062735Y-108048775D01*
X112872259Y-107763060D02*
X112777020Y-107763060D01*
X112681782Y-107810680D01*
X112634163Y-107858299D01*
X112586544Y-107953537D01*
X112538925Y-108144013D01*
X112538925Y-108382108D01*
X112586544Y-108572584D01*
X112634163Y-108667822D01*
X112681782Y-108715441D01*
X112777020Y-108763060D01*
X112872259Y-108763060D01*
X112967497Y-108715441D01*
X113015116Y-108667822D01*
X113062735Y-108572584D01*
X113110354Y-108382108D01*
X113110354Y-108144013D01*
X113062735Y-107953537D01*
X113015116Y-107858299D01*
X112967497Y-107810680D01*
X112872259Y-107763060D01*
X111681782Y-108096394D02*
X111681782Y-108763060D01*
X111919878Y-107715441D02*
X112157973Y-108429727D01*
X111538925Y-108429727D01*
%TO.C,J103*%
X127722380Y-103616285D02*
X128436666Y-103616285D01*
X128579523Y-103568666D01*
X128674761Y-103473428D01*
X128722380Y-103330571D01*
X128722380Y-103235333D01*
X128722380Y-104616285D02*
X128722380Y-104044857D01*
X128722380Y-104330571D02*
X127722380Y-104330571D01*
X127865238Y-104235333D01*
X127960476Y-104140095D01*
X128008095Y-104044857D01*
X127722380Y-105235333D02*
X127722380Y-105330571D01*
X127770000Y-105425809D01*
X127817619Y-105473428D01*
X127912857Y-105521047D01*
X128103333Y-105568666D01*
X128341428Y-105568666D01*
X128531904Y-105521047D01*
X128627142Y-105473428D01*
X128674761Y-105425809D01*
X128722380Y-105330571D01*
X128722380Y-105235333D01*
X128674761Y-105140095D01*
X128627142Y-105092476D01*
X128531904Y-105044857D01*
X128341428Y-104997238D01*
X128103333Y-104997238D01*
X127912857Y-105044857D01*
X127817619Y-105092476D01*
X127770000Y-105140095D01*
X127722380Y-105235333D01*
X127722380Y-105902000D02*
X127722380Y-106521047D01*
X128103333Y-106187714D01*
X128103333Y-106330571D01*
X128150952Y-106425809D01*
X128198571Y-106473428D01*
X128293809Y-106521047D01*
X128531904Y-106521047D01*
X128627142Y-106473428D01*
X128674761Y-106425809D01*
X128722380Y-106330571D01*
X128722380Y-106044857D01*
X128674761Y-105949619D01*
X128627142Y-105902000D01*
%TO.C,R105*%
X114768807Y-116631980D02*
X115102140Y-116155790D01*
X115340236Y-116631980D02*
X115340236Y-115631980D01*
X114959283Y-115631980D01*
X114864045Y-115679600D01*
X114816426Y-115727219D01*
X114768807Y-115822457D01*
X114768807Y-115965314D01*
X114816426Y-116060552D01*
X114864045Y-116108171D01*
X114959283Y-116155790D01*
X115340236Y-116155790D01*
X113816426Y-116631980D02*
X114387855Y-116631980D01*
X114102140Y-116631980D02*
X114102140Y-115631980D01*
X114197379Y-115774838D01*
X114292617Y-115870076D01*
X114387855Y-115917695D01*
X113197379Y-115631980D02*
X113102140Y-115631980D01*
X113006902Y-115679600D01*
X112959283Y-115727219D01*
X112911664Y-115822457D01*
X112864045Y-116012933D01*
X112864045Y-116251028D01*
X112911664Y-116441504D01*
X112959283Y-116536742D01*
X113006902Y-116584361D01*
X113102140Y-116631980D01*
X113197379Y-116631980D01*
X113292617Y-116584361D01*
X113340236Y-116536742D01*
X113387855Y-116441504D01*
X113435474Y-116251028D01*
X113435474Y-116012933D01*
X113387855Y-115822457D01*
X113340236Y-115727219D01*
X113292617Y-115679600D01*
X113197379Y-115631980D01*
X111959283Y-115631980D02*
X112435474Y-115631980D01*
X112483093Y-116108171D01*
X112435474Y-116060552D01*
X112340236Y-116012933D01*
X112102140Y-116012933D01*
X112006902Y-116060552D01*
X111959283Y-116108171D01*
X111911664Y-116203409D01*
X111911664Y-116441504D01*
X111959283Y-116536742D01*
X112006902Y-116584361D01*
X112102140Y-116631980D01*
X112340236Y-116631980D01*
X112435474Y-116584361D01*
X112483093Y-116536742D01*
%TD*%
M02*
