%TF.GenerationSoftware,KiCad,Pcbnew,(5.1.9)-1*%
%TF.CreationDate,2021-02-22T21:34:01+01:00*%
%TF.ProjectId,Panel,50616e65-6c2e-46b6-9963-61645f706362,2*%
%TF.SameCoordinates,Original*%
%TF.FileFunction,Profile,NP*%
%FSLAX46Y46*%
G04 Gerber Fmt 4.6, Leading zero omitted, Abs format (unit mm)*
G04 Created by KiCad (PCBNEW (5.1.9)-1) date 2021-02-22 21:34:01*
%MOMM*%
%LPD*%
G01*
G04 APERTURE LIST*
%TA.AperFunction,Profile*%
%ADD10C,0.100000*%
%TD*%
G04 APERTURE END LIST*
D10*
X76200000Y-82867500D02*
X76200000Y-83426300D01*
X111201200Y-82867500D02*
X111201200Y-83426300D01*
X133604000Y-83426300D02*
G75*
G02*
X135128000Y-84950300I0J-1524000D01*
G01*
X71374000Y-83426300D02*
X133604000Y-83426300D01*
X71374000Y-120256300D02*
X133604000Y-120256300D01*
X69850000Y-84950300D02*
X69850000Y-118732300D01*
X74652000Y-86728300D02*
G75*
G03*
X74652000Y-86728300I-1500000J0D01*
G01*
X135128000Y-118732300D02*
X135128000Y-84950300D01*
X74652000Y-117208300D02*
G75*
G03*
X74652000Y-117208300I-1500000J0D01*
G01*
X71374000Y-120256300D02*
G75*
G02*
X69850000Y-118732300I0J1524000D01*
G01*
X133326000Y-86728300D02*
G75*
G03*
X133326000Y-86728300I-1500000J0D01*
G01*
X69850000Y-84950300D02*
G75*
G02*
X71374000Y-83426300I1524000J0D01*
G01*
X133326000Y-117208300D02*
G75*
G03*
X133326000Y-117208300I-1500000J0D01*
G01*
X135128000Y-118732300D02*
G75*
G02*
X133604000Y-120256300I-1524000J0D01*
G01*
X82854800Y-56299100D02*
X76200000Y-56299100D01*
X76200000Y-82867500D02*
X76200000Y-56299100D01*
X102768400Y-59855100D02*
X84632800Y-59855100D01*
X84632800Y-59855100D02*
X82854800Y-56299100D01*
X111201200Y-82867500D02*
X76200000Y-82867500D01*
X104546400Y-56299100D02*
X102768400Y-59855100D01*
X111201200Y-56299100D02*
X104546400Y-56299100D01*
X111201200Y-82867500D02*
X111201200Y-56299100D01*
M02*
