M48
; DRILL file {KiCad (5.1.8)-1} date 01/01/21 19:26:54
; FORMAT={-:-/ absolute / inch / decimal}
; #@! TF.CreationDate,2021-01-01T19:26:54+01:00
; #@! TF.GenerationSoftware,Kicad,Pcbnew,(5.1.8)-1
; #@! TF.FileFunction,Plated,1,2,PTH
FMAT,2
INCH
T1C0.0157
T2C0.0315
T3C0.0374
T4C0.0394
T5C0.0472
T6C0.0591
%
G90
G05
T1
X3.0935Y-4.1635
X3.099Y-3.7122
X3.147Y-3.628
X3.2Y-4.212
X3.2277Y-4.4805
X3.242Y-4.602
X3.2739Y-3.8931
X3.3598Y-4.4054
X3.3604Y-4.07
X3.4385Y-4.5995
X3.4615Y-4.481
X3.528Y-3.467
X3.528Y-3.593
X3.5678Y-2.9169
X3.572Y-4.264
X3.59Y-3.8165
X3.6365Y-3.7252
X3.6749Y-3.7832
X3.714Y-4.066
X3.735Y-3.865
X3.735Y-3.915
X3.749Y-3.055
X3.758Y-4.115
X3.759Y-2.5145
X3.7757Y-4.0307
X3.7813Y-3.715
X3.8138Y-2.5145
X3.9425Y-4.603
X4.044Y-3.593
X4.1335Y-4.603
X4.5926Y-3.6949
X4.64Y-4.1
T2
X4.6563Y-4.493
X4.798Y-4.3513
X4.798Y-4.6347
X4.9397Y-4.493
T3
X2.865Y-3.744
X2.865Y-3.8424
X2.865Y-3.9409
X2.865Y-4.0393
X2.865Y-4.1377
X2.865Y-4.2361
T4
X4.196Y-2.2965
X4.296Y-2.2965
X4.6967Y-3.6165
X4.6967Y-4.1874
X4.7952Y-3.6165
X4.8936Y-3.6165
X4.8936Y-4.1874
X3.081Y-2.2965
X3.181Y-2.2965
X5.1525Y-4.045
X5.1525Y-4.145
X5.1525Y-4.245
X5.2525Y-4.045
X5.2525Y-4.145
X5.2525Y-4.245
X4.198Y-3.38
X4.298Y-3.38
X3.083Y-3.38
X3.183Y-3.38
T5
X4.67Y-4.4044
X4.67Y-4.5816
X4.926Y-4.4044
X4.926Y-4.5816
T6
G00X4.5747Y-3.8862
M15
G01X4.5747Y-3.9374
M16
G05
G00X5.0156Y-3.8862
M15
G01X5.0156Y-3.9374
M16
G05
T0
M30
