%TF.GenerationSoftware,KiCad,Pcbnew,(5.1.9)-1*%
%TF.CreationDate,2021-02-22T21:34:00+01:00*%
%TF.ProjectId,Panel,50616e65-6c2e-46b6-9963-61645f706362,2*%
%TF.SameCoordinates,Original*%
%TF.FileFunction,Copper,L1,Top*%
%TF.FilePolarity,Positive*%
%FSLAX46Y46*%
G04 Gerber Fmt 4.6, Leading zero omitted, Abs format (unit mm)*
G04 Created by KiCad (PCBNEW (5.1.9)-1) date 2021-02-22 21:34:01*
%MOMM*%
%LPD*%
G01*
G04 APERTURE LIST*
%TA.AperFunction,ComponentPad*%
%ADD10C,1.600000*%
%TD*%
%TA.AperFunction,ComponentPad*%
%ADD11C,2.200000*%
%TD*%
%TA.AperFunction,SMDPad,CuDef*%
%ADD12R,1.000000X1.000000*%
%TD*%
%TA.AperFunction,ComponentPad*%
%ADD13R,1.700000X1.700000*%
%TD*%
%TA.AperFunction,ComponentPad*%
%ADD14O,1.700000X1.700000*%
%TD*%
%TA.AperFunction,ComponentPad*%
%ADD15O,1.950000X1.700000*%
%TD*%
%TA.AperFunction,ComponentPad*%
%ADD16R,2.000000X2.000000*%
%TD*%
%TA.AperFunction,ComponentPad*%
%ADD17C,2.000000*%
%TD*%
%TA.AperFunction,ComponentPad*%
%ADD18R,2.000000X3.200000*%
%TD*%
%TA.AperFunction,SMDPad,CuDef*%
%ADD19R,1.600000X1.400000*%
%TD*%
%TA.AperFunction,SMDPad,CuDef*%
%ADD20R,0.400000X2.000000*%
%TD*%
%TA.AperFunction,ViaPad*%
%ADD21C,0.800000*%
%TD*%
%TA.AperFunction,Conductor*%
%ADD22C,0.250000*%
%TD*%
%TA.AperFunction,Conductor*%
%ADD23C,0.254000*%
%TD*%
%TA.AperFunction,Conductor*%
%ADD24C,0.100000*%
%TD*%
G04 APERTURE END LIST*
D10*
%TO.P,SW104,-L2*%
%TO.N,GND*%
X118269200Y-114122200D03*
%TO.P,SW104,-L1*%
X125469200Y-114122200D03*
%TO.P,SW104,+L2*%
%TO.N,Net-(R105-Pad2)*%
X121869200Y-117722200D03*
%TO.P,SW104,+L1*%
%TO.N,Net-(R104-Pad2)*%
X121869200Y-110522200D03*
D11*
%TO.P,SW104,4*%
%TO.N,MBTN*%
X125119200Y-111872200D03*
%TO.P,SW104,3*%
X118619200Y-111872200D03*
%TO.P,SW104,2*%
%TO.N,GND*%
X118619200Y-116372200D03*
%TO.P,SW104,1*%
X125119200Y-116372200D03*
%TD*%
D12*
%TO.P,D201,2*%
%TO.N,Net-(C205-Pad1)*%
X97307400Y-74276900D03*
%TO.P,D201,1*%
%TO.N,+3V3*%
X97307400Y-76776900D03*
%TD*%
D13*
%TO.P,J104,1*%
%TO.N,SCL*%
X109169200Y-85852000D03*
D14*
%TO.P,J104,2*%
%TO.N,SDA*%
X106629200Y-85852000D03*
%TD*%
D13*
%TO.P,J101,1*%
%TO.N,+3V3*%
X78308200Y-85852000D03*
D14*
%TO.P,J101,2*%
%TO.N,GND*%
X80848200Y-85852000D03*
%TD*%
D15*
%TO.P,J102,6*%
%TO.N,~RST*%
X72771000Y-107597600D03*
%TO.P,J102,5*%
%TO.N,~INT*%
X72771000Y-105097600D03*
%TO.P,J102,4*%
%TO.N,SCL*%
X72771000Y-102597600D03*
%TO.P,J102,3*%
%TO.N,SDA*%
X72771000Y-100097600D03*
%TO.P,J102,2*%
%TO.N,VCC*%
X72771000Y-97597600D03*
%TO.P,J102,1*%
%TO.N,GND*%
%TA.AperFunction,ComponentPad*%
G36*
G01*
X72046000Y-94247600D02*
X73496000Y-94247600D01*
G75*
G02*
X73746000Y-94497600I0J-250000D01*
G01*
X73746000Y-95697600D01*
G75*
G02*
X73496000Y-95947600I-250000J0D01*
G01*
X72046000Y-95947600D01*
G75*
G02*
X71796000Y-95697600I0J250000D01*
G01*
X71796000Y-94497600D01*
G75*
G02*
X72046000Y-94247600I250000J0D01*
G01*
G37*
%TD.AperFunction*%
%TD*%
D16*
%TO.P,SW101,A*%
%TO.N,ENCA*%
X124297440Y-91859100D03*
D17*
%TO.P,SW101,C*%
%TO.N,GND*%
X121797440Y-91859100D03*
%TO.P,SW101,B*%
%TO.N,ENCB*%
X119297440Y-91859100D03*
D18*
%TO.P,SW101,MP*%
%TO.N,N/C*%
X127397440Y-99359100D03*
X116197440Y-99359100D03*
D17*
%TO.P,SW101,S2*%
%TO.N,GND*%
X124297440Y-106359100D03*
%TO.P,SW101,S1*%
%TO.N,ENCBTN*%
X119297440Y-106359100D03*
%TD*%
D19*
%TO.P,SW103,3*%
%TO.N,RBTN*%
X106581200Y-112392900D03*
%TO.P,SW103,4*%
X98581200Y-112392900D03*
%TO.P,SW103,1*%
%TO.N,GND*%
X106581200Y-116892900D03*
%TO.P,SW103,2*%
X98581200Y-116892900D03*
%TD*%
%TO.P,SW102,3*%
%TO.N,LBTN*%
X88797900Y-112392900D03*
%TO.P,SW102,4*%
X80797900Y-112392900D03*
%TO.P,SW102,1*%
%TO.N,GND*%
X88797900Y-116892900D03*
%TO.P,SW102,2*%
X80797900Y-116892900D03*
%TD*%
D14*
%TO.P,J103,6*%
%TO.N,IO3*%
X130873500Y-107823000D03*
%TO.P,J103,5*%
%TO.N,IO2*%
X133413500Y-107823000D03*
%TO.P,J103,4*%
%TO.N,IO1*%
X130873500Y-105283000D03*
%TO.P,J103,3*%
%TO.N,IO0*%
X133413500Y-105283000D03*
%TO.P,J103,2*%
%TO.N,VCC*%
X130873500Y-102743000D03*
D13*
%TO.P,J103,1*%
%TO.N,GND*%
X133413500Y-102743000D03*
%TD*%
%TO.P,C207,2*%
%TO.N,GND*%
%TA.AperFunction,SMDPad,CuDef*%
G36*
G01*
X105671600Y-75570500D02*
X106621600Y-75570500D01*
G75*
G02*
X106871600Y-75820500I0J-250000D01*
G01*
X106871600Y-76495500D01*
G75*
G02*
X106621600Y-76745500I-250000J0D01*
G01*
X105671600Y-76745500D01*
G75*
G02*
X105421600Y-76495500I0J250000D01*
G01*
X105421600Y-75820500D01*
G75*
G02*
X105671600Y-75570500I250000J0D01*
G01*
G37*
%TD.AperFunction*%
%TO.P,C207,1*%
%TO.N,Net-(C207-Pad1)*%
%TA.AperFunction,SMDPad,CuDef*%
G36*
G01*
X105671600Y-73495500D02*
X106621600Y-73495500D01*
G75*
G02*
X106871600Y-73745500I0J-250000D01*
G01*
X106871600Y-74420500D01*
G75*
G02*
X106621600Y-74670500I-250000J0D01*
G01*
X105671600Y-74670500D01*
G75*
G02*
X105421600Y-74420500I0J250000D01*
G01*
X105421600Y-73745500D01*
G75*
G02*
X105671600Y-73495500I250000J0D01*
G01*
G37*
%TD.AperFunction*%
%TD*%
D14*
%TO.P,J201,2*%
%TO.N,GND*%
X106578400Y-58331100D03*
D13*
%TO.P,J201,1*%
%TO.N,+3V3*%
X109118400Y-58331100D03*
%TD*%
%TO.P,C205,2*%
%TO.N,GND*%
%TA.AperFunction,SMDPad,CuDef*%
G36*
G01*
X92616000Y-75951500D02*
X93566000Y-75951500D01*
G75*
G02*
X93816000Y-76201500I0J-250000D01*
G01*
X93816000Y-76876500D01*
G75*
G02*
X93566000Y-77126500I-250000J0D01*
G01*
X92616000Y-77126500D01*
G75*
G02*
X92366000Y-76876500I0J250000D01*
G01*
X92366000Y-76201500D01*
G75*
G02*
X92616000Y-75951500I250000J0D01*
G01*
G37*
%TD.AperFunction*%
%TO.P,C205,1*%
%TO.N,Net-(C205-Pad1)*%
%TA.AperFunction,SMDPad,CuDef*%
G36*
G01*
X92616000Y-73876500D02*
X93566000Y-73876500D01*
G75*
G02*
X93816000Y-74126500I0J-250000D01*
G01*
X93816000Y-74801500D01*
G75*
G02*
X93566000Y-75051500I-250000J0D01*
G01*
X92616000Y-75051500D01*
G75*
G02*
X92366000Y-74801500I0J250000D01*
G01*
X92366000Y-74126500D01*
G75*
G02*
X92616000Y-73876500I250000J0D01*
G01*
G37*
%TD.AperFunction*%
%TD*%
%TO.P,R202,2*%
%TO.N,Net-(J203-Pad26)*%
%TA.AperFunction,SMDPad,CuDef*%
G36*
G01*
X101516601Y-74720500D02*
X100616599Y-74720500D01*
G75*
G02*
X100366600Y-74470501I0J249999D01*
G01*
X100366600Y-73770499D01*
G75*
G02*
X100616599Y-73520500I249999J0D01*
G01*
X101516601Y-73520500D01*
G75*
G02*
X101766600Y-73770499I0J-249999D01*
G01*
X101766600Y-74470501D01*
G75*
G02*
X101516601Y-74720500I-249999J0D01*
G01*
G37*
%TD.AperFunction*%
%TO.P,R202,1*%
%TO.N,GND*%
%TA.AperFunction,SMDPad,CuDef*%
G36*
G01*
X101516601Y-76720500D02*
X100616599Y-76720500D01*
G75*
G02*
X100366600Y-76470501I0J249999D01*
G01*
X100366600Y-75770499D01*
G75*
G02*
X100616599Y-75520500I249999J0D01*
G01*
X101516601Y-75520500D01*
G75*
G02*
X101766600Y-75770499I0J-249999D01*
G01*
X101766600Y-76470501D01*
G75*
G02*
X101516601Y-76720500I-249999J0D01*
G01*
G37*
%TD.AperFunction*%
%TD*%
%TO.P,C204,2*%
%TO.N,GND*%
%TA.AperFunction,SMDPad,CuDef*%
G36*
G01*
X88704400Y-75570500D02*
X89654400Y-75570500D01*
G75*
G02*
X89904400Y-75820500I0J-250000D01*
G01*
X89904400Y-76495500D01*
G75*
G02*
X89654400Y-76745500I-250000J0D01*
G01*
X88704400Y-76745500D01*
G75*
G02*
X88454400Y-76495500I0J250000D01*
G01*
X88454400Y-75820500D01*
G75*
G02*
X88704400Y-75570500I250000J0D01*
G01*
G37*
%TD.AperFunction*%
%TO.P,C204,1*%
%TO.N,+3V3*%
%TA.AperFunction,SMDPad,CuDef*%
G36*
G01*
X88704400Y-73495500D02*
X89654400Y-73495500D01*
G75*
G02*
X89904400Y-73745500I0J-250000D01*
G01*
X89904400Y-74420500D01*
G75*
G02*
X89654400Y-74670500I-250000J0D01*
G01*
X88704400Y-74670500D01*
G75*
G02*
X88454400Y-74420500I0J250000D01*
G01*
X88454400Y-73745500D01*
G75*
G02*
X88704400Y-73495500I250000J0D01*
G01*
G37*
%TD.AperFunction*%
%TD*%
D14*
%TO.P,J202,2*%
%TO.N,SDA*%
X80797400Y-58331100D03*
D13*
%TO.P,J202,1*%
%TO.N,SCL*%
X78257400Y-58331100D03*
%TD*%
%TO.P,C206,2*%
%TO.N,GND*%
%TA.AperFunction,SMDPad,CuDef*%
G36*
G01*
X103131600Y-75570500D02*
X104081600Y-75570500D01*
G75*
G02*
X104331600Y-75820500I0J-250000D01*
G01*
X104331600Y-76495500D01*
G75*
G02*
X104081600Y-76745500I-250000J0D01*
G01*
X103131600Y-76745500D01*
G75*
G02*
X102881600Y-76495500I0J250000D01*
G01*
X102881600Y-75820500D01*
G75*
G02*
X103131600Y-75570500I250000J0D01*
G01*
G37*
%TD.AperFunction*%
%TO.P,C206,1*%
%TO.N,Net-(C206-Pad1)*%
%TA.AperFunction,SMDPad,CuDef*%
G36*
G01*
X103131600Y-73495500D02*
X104081600Y-73495500D01*
G75*
G02*
X104331600Y-73745500I0J-250000D01*
G01*
X104331600Y-74420500D01*
G75*
G02*
X104081600Y-74670500I-250000J0D01*
G01*
X103131600Y-74670500D01*
G75*
G02*
X102881600Y-74420500I0J250000D01*
G01*
X102881600Y-73745500D01*
G75*
G02*
X103131600Y-73495500I250000J0D01*
G01*
G37*
%TD.AperFunction*%
%TD*%
%TO.P,C202,2*%
%TO.N,Net-(C202-Pad2)*%
%TA.AperFunction,SMDPad,CuDef*%
G36*
G01*
X83065600Y-75570500D02*
X84015600Y-75570500D01*
G75*
G02*
X84265600Y-75820500I0J-250000D01*
G01*
X84265600Y-76495500D01*
G75*
G02*
X84015600Y-76745500I-250000J0D01*
G01*
X83065600Y-76745500D01*
G75*
G02*
X82815600Y-76495500I0J250000D01*
G01*
X82815600Y-75820500D01*
G75*
G02*
X83065600Y-75570500I250000J0D01*
G01*
G37*
%TD.AperFunction*%
%TO.P,C202,1*%
%TO.N,Net-(C202-Pad1)*%
%TA.AperFunction,SMDPad,CuDef*%
G36*
G01*
X83065600Y-73495500D02*
X84015600Y-73495500D01*
G75*
G02*
X84265600Y-73745500I0J-250000D01*
G01*
X84265600Y-74420500D01*
G75*
G02*
X84015600Y-74670500I-250000J0D01*
G01*
X83065600Y-74670500D01*
G75*
G02*
X82815600Y-74420500I0J250000D01*
G01*
X82815600Y-73745500D01*
G75*
G02*
X83065600Y-73495500I250000J0D01*
G01*
G37*
%TD.AperFunction*%
%TD*%
D20*
%TO.P,J203,30*%
%TO.N,GND*%
X103870400Y-68523100D03*
%TO.P,J203,29*%
X103170400Y-68523100D03*
%TO.P,J203,28*%
%TO.N,Net-(C207-Pad1)*%
X102470400Y-68523100D03*
%TO.P,J203,27*%
%TO.N,Net-(C206-Pad1)*%
X101770400Y-68523100D03*
%TO.P,J203,26*%
%TO.N,Net-(J203-Pad26)*%
X101070400Y-68523100D03*
%TO.P,J203,25*%
%TO.N,GND*%
X100370400Y-68523100D03*
%TO.P,J203,24*%
X99670400Y-68523100D03*
%TO.P,J203,23*%
X98970400Y-68523100D03*
%TO.P,J203,22*%
X98270400Y-68523100D03*
%TO.P,J203,21*%
X97570400Y-68523100D03*
%TO.P,J203,20*%
%TO.N,SDA*%
X96870400Y-68523100D03*
%TO.P,J203,19*%
X96170400Y-68523100D03*
%TO.P,J203,18*%
%TO.N,SCL*%
X95470400Y-68523100D03*
%TO.P,J203,17*%
%TO.N,GND*%
X94770400Y-68523100D03*
%TO.P,J203,16*%
X94070400Y-68523100D03*
%TO.P,J203,15*%
X93370400Y-68523100D03*
%TO.P,J203,14*%
%TO.N,Net-(C205-Pad1)*%
X92670400Y-68523100D03*
%TO.P,J203,13*%
%TO.N,GND*%
X91970400Y-68523100D03*
%TO.P,J203,12*%
X91270400Y-68523100D03*
%TO.P,J203,11*%
%TO.N,+3V3*%
X90570400Y-68523100D03*
%TO.P,J203,10*%
%TO.N,GND*%
X89870400Y-68523100D03*
%TO.P,J203,9*%
%TO.N,+3V3*%
X89170400Y-68523100D03*
%TO.P,J203,8*%
%TO.N,GND*%
X88470400Y-68523100D03*
%TO.P,J203,7*%
%TO.N,N/C*%
X87770400Y-68523100D03*
%TO.P,J203,6*%
%TO.N,+3V3*%
X87070400Y-68523100D03*
%TO.P,J203,5*%
%TO.N,Net-(C202-Pad2)*%
X86370400Y-68523100D03*
%TO.P,J203,4*%
%TO.N,Net-(C202-Pad1)*%
X85670400Y-68523100D03*
%TO.P,J203,3*%
%TO.N,Net-(C201-Pad2)*%
X84970400Y-68523100D03*
%TO.P,J203,2*%
%TO.N,Net-(C201-Pad1)*%
X84270400Y-68523100D03*
%TO.P,J203,1*%
%TO.N,GND*%
X83570400Y-68523100D03*
%TD*%
%TO.P,R201,2*%
%TO.N,Net-(C205-Pad1)*%
%TA.AperFunction,SMDPad,CuDef*%
G36*
G01*
X95674601Y-75076100D02*
X94774599Y-75076100D01*
G75*
G02*
X94524600Y-74826101I0J249999D01*
G01*
X94524600Y-74126099D01*
G75*
G02*
X94774599Y-73876100I249999J0D01*
G01*
X95674601Y-73876100D01*
G75*
G02*
X95924600Y-74126099I0J-249999D01*
G01*
X95924600Y-74826101D01*
G75*
G02*
X95674601Y-75076100I-249999J0D01*
G01*
G37*
%TD.AperFunction*%
%TO.P,R201,1*%
%TO.N,+3V3*%
%TA.AperFunction,SMDPad,CuDef*%
G36*
G01*
X95674601Y-77076100D02*
X94774599Y-77076100D01*
G75*
G02*
X94524600Y-76826101I0J249999D01*
G01*
X94524600Y-76126099D01*
G75*
G02*
X94774599Y-75876100I249999J0D01*
G01*
X95674601Y-75876100D01*
G75*
G02*
X95924600Y-76126099I0J-249999D01*
G01*
X95924600Y-76826101D01*
G75*
G02*
X95674601Y-77076100I-249999J0D01*
G01*
G37*
%TD.AperFunction*%
%TD*%
%TO.P,C203,2*%
%TO.N,GND*%
%TA.AperFunction,SMDPad,CuDef*%
G36*
G01*
X86596200Y-75570500D02*
X87546200Y-75570500D01*
G75*
G02*
X87796200Y-75820500I0J-250000D01*
G01*
X87796200Y-76495500D01*
G75*
G02*
X87546200Y-76745500I-250000J0D01*
G01*
X86596200Y-76745500D01*
G75*
G02*
X86346200Y-76495500I0J250000D01*
G01*
X86346200Y-75820500D01*
G75*
G02*
X86596200Y-75570500I250000J0D01*
G01*
G37*
%TD.AperFunction*%
%TO.P,C203,1*%
%TO.N,+3V3*%
%TA.AperFunction,SMDPad,CuDef*%
G36*
G01*
X86596200Y-73495500D02*
X87546200Y-73495500D01*
G75*
G02*
X87796200Y-73745500I0J-250000D01*
G01*
X87796200Y-74420500D01*
G75*
G02*
X87546200Y-74670500I-250000J0D01*
G01*
X86596200Y-74670500D01*
G75*
G02*
X86346200Y-74420500I0J250000D01*
G01*
X86346200Y-73745500D01*
G75*
G02*
X86596200Y-73495500I250000J0D01*
G01*
G37*
%TD.AperFunction*%
%TD*%
%TO.P,C201,2*%
%TO.N,Net-(C201-Pad2)*%
%TA.AperFunction,SMDPad,CuDef*%
G36*
G01*
X79509600Y-75570500D02*
X80459600Y-75570500D01*
G75*
G02*
X80709600Y-75820500I0J-250000D01*
G01*
X80709600Y-76495500D01*
G75*
G02*
X80459600Y-76745500I-250000J0D01*
G01*
X79509600Y-76745500D01*
G75*
G02*
X79259600Y-76495500I0J250000D01*
G01*
X79259600Y-75820500D01*
G75*
G02*
X79509600Y-75570500I250000J0D01*
G01*
G37*
%TD.AperFunction*%
%TO.P,C201,1*%
%TO.N,Net-(C201-Pad1)*%
%TA.AperFunction,SMDPad,CuDef*%
G36*
G01*
X79509600Y-73495500D02*
X80459600Y-73495500D01*
G75*
G02*
X80709600Y-73745500I0J-250000D01*
G01*
X80709600Y-74420500D01*
G75*
G02*
X80459600Y-74670500I-250000J0D01*
G01*
X79509600Y-74670500D01*
G75*
G02*
X79259600Y-74420500I0J250000D01*
G01*
X79259600Y-73745500D01*
G75*
G02*
X79509600Y-73495500I250000J0D01*
G01*
G37*
%TD.AperFunction*%
%TD*%
D21*
%TO.N,GND*%
X92367100Y-94620080D03*
X90728800Y-108305600D03*
X78714600Y-94290133D03*
X83157060Y-98884740D03*
X104990900Y-116916200D03*
X87337900Y-116827300D03*
X100139500Y-116916200D03*
X82346800Y-116890800D03*
%TO.N,+3V3*%
X85338922Y-111897160D03*
X85354160Y-103378000D03*
X90622120Y-74089260D03*
X95224600Y-77597000D03*
X89611200Y-88061800D03*
X89611200Y-91262200D03*
X102717600Y-91262200D03*
%TO.N,VCC*%
X79933800Y-92151200D03*
%TO.N,~RST*%
X78574900Y-105751790D03*
%TO.N,SDA*%
X96870400Y-63868300D03*
%TO.N,SCL*%
X95478600Y-63868300D03*
X81280000Y-106984800D03*
%TO.N,IO1*%
X117856000Y-104139998D03*
X94335600Y-103276400D03*
%TO.N,IO0*%
X95453200Y-104521000D03*
%TO.N,LBTN*%
X91186000Y-96939100D03*
X81984850Y-113804700D03*
X87922100Y-113817400D03*
%TO.N,RBTN*%
X93342460Y-96093280D03*
%TO.N,MBTN*%
X96045020Y-94361000D03*
%TO.N,IO2*%
X94869000Y-99441000D03*
%TO.N,IO3*%
X94869000Y-98171000D03*
%TO.N,ENCA*%
X116651489Y-93851011D03*
%TO.N,ENCBTN*%
X95903999Y-102380999D03*
%TD*%
D22*
%TO.N,GND*%
X101066600Y-76120500D02*
X100366600Y-76120500D01*
X119466800Y-116372200D02*
X118619200Y-116372200D01*
X106583300Y-116890800D02*
X106581200Y-116892900D01*
X83080354Y-98884740D02*
X83157060Y-98884740D01*
X90728800Y-108305600D02*
X92332823Y-106701577D01*
X92332823Y-106701577D02*
X92332823Y-106498377D01*
X92332823Y-106498377D02*
X92367100Y-94620080D01*
X78714600Y-94290133D02*
X78714600Y-98044000D01*
X79555340Y-98884740D02*
X83157060Y-98884740D01*
X78714600Y-98044000D02*
X79555340Y-98884740D01*
X125119200Y-116372200D02*
X124551000Y-116372200D01*
X106557900Y-116916200D02*
X106581200Y-116892900D01*
X104990900Y-116916200D02*
X106557900Y-116916200D01*
X100116200Y-116892900D02*
X100139500Y-116916200D01*
X98581200Y-116892900D02*
X100116200Y-116892900D01*
X88732300Y-116827300D02*
X88797900Y-116892900D01*
X87337900Y-116827300D02*
X88732300Y-116827300D01*
X80797900Y-116892900D02*
X82344700Y-116892900D01*
X82344700Y-116892900D02*
X82346800Y-116890800D01*
X99796600Y-70649300D02*
X99670400Y-70523100D01*
X103170400Y-68523100D02*
X103870400Y-68523100D01*
X97570400Y-68523100D02*
X100370400Y-68523100D01*
X93370400Y-68523100D02*
X94770400Y-68523100D01*
X89870400Y-68523100D02*
X89870400Y-61472960D01*
X89870400Y-61472960D02*
X89855040Y-61488320D01*
X89855040Y-61488320D02*
X88549480Y-61488320D01*
X88549480Y-68444020D02*
X88470400Y-68523100D01*
X88549480Y-61488320D02*
X88549480Y-68444020D01*
X88549480Y-61488320D02*
X81594960Y-61488320D01*
X81594960Y-61488320D02*
X81594960Y-68351400D01*
X81766660Y-68523100D02*
X83570400Y-68523100D01*
X81594960Y-68351400D02*
X81766660Y-68523100D01*
X91970400Y-68523100D02*
X91270400Y-68523100D01*
X91270400Y-68523100D02*
X91270400Y-68796480D01*
X91270400Y-68796480D02*
X91602560Y-69128640D01*
X91602560Y-69128640D02*
X91602560Y-76352400D01*
X91789160Y-76539000D02*
X93091000Y-76539000D01*
X91602560Y-76352400D02*
X91789160Y-76539000D01*
%TO.N,+3V3*%
X89183300Y-74079100D02*
X89179400Y-74083000D01*
X87071200Y-74083000D02*
X87071200Y-70523900D01*
X87071200Y-70523900D02*
X87070400Y-70523100D01*
X87071200Y-74083000D02*
X89179400Y-74083000D01*
X85265262Y-111823500D02*
X85338922Y-111897160D01*
X85354160Y-111881922D02*
X85338922Y-111897160D01*
X85354160Y-103378000D02*
X85354160Y-111881922D01*
X89179400Y-74083000D02*
X90615860Y-74083000D01*
X90570400Y-74037540D02*
X90622120Y-74089260D01*
X90570400Y-68523100D02*
X90570400Y-74037540D01*
X98348800Y-78498700D02*
X97307400Y-77457300D01*
X97307400Y-77457300D02*
X97307400Y-76576900D01*
X107696000Y-78498700D02*
X98348800Y-78498700D01*
X109118400Y-77076300D02*
X107696000Y-78498700D01*
X109118400Y-58331100D02*
X109118400Y-77076300D01*
X95224600Y-76476100D02*
X95224600Y-77406500D01*
X95325400Y-76576900D02*
X95224600Y-76476100D01*
X97307400Y-76576900D02*
X95325400Y-76576900D01*
X78308200Y-87706200D02*
X78308200Y-85852000D01*
X78663800Y-88061800D02*
X78308200Y-87706200D01*
X89611200Y-88061800D02*
X78663800Y-88061800D01*
X89611200Y-91262200D02*
X102717600Y-91262200D01*
X87071200Y-68523900D02*
X87070400Y-68523100D01*
X87071200Y-70523900D02*
X87071200Y-68523900D01*
X89170400Y-69917200D02*
X89170400Y-68523100D01*
X89179400Y-69926200D02*
X89170400Y-69917200D01*
X89179400Y-74083000D02*
X89179400Y-69926200D01*
%TO.N,VCC*%
X130873500Y-96278700D02*
X130873500Y-102743000D01*
X130035300Y-95440500D02*
X130873500Y-96278700D01*
X103441500Y-95440500D02*
X130035300Y-95440500D01*
X100177600Y-92176600D02*
X103441500Y-95440500D01*
X80543400Y-92176600D02*
X100177600Y-92176600D01*
X79933800Y-92151200D02*
X80543400Y-92176600D01*
%TO.N,~RST*%
X72850400Y-107518200D02*
X72771000Y-107597600D01*
X76729090Y-107597600D02*
X78574900Y-105751790D01*
X72771000Y-107597600D02*
X76729090Y-107597600D01*
%TO.N,Net-(C201-Pad2)*%
X81360100Y-76158000D02*
X79984600Y-76158000D01*
X84970400Y-71773100D02*
X84264600Y-72478900D01*
X81762600Y-75755500D02*
X81762600Y-72961500D01*
X84970400Y-68523100D02*
X84970400Y-71773100D01*
X84264600Y-72478900D02*
X82245200Y-72478900D01*
X81762600Y-72961500D02*
X82245200Y-72478900D01*
X81762600Y-75755500D02*
X81360100Y-76158000D01*
%TO.N,Net-(C201-Pad1)*%
X84014610Y-72028890D02*
X84270400Y-71773100D01*
X80060800Y-74006800D02*
X79984600Y-74083000D01*
X79984600Y-72859900D02*
X80815610Y-72028890D01*
X79984600Y-74083000D02*
X79984600Y-72859900D01*
X80815610Y-72028890D02*
X84014610Y-72028890D01*
X84270400Y-71773100D02*
X84270400Y-68523100D01*
%TO.N,Net-(C202-Pad2)*%
X86370400Y-71773100D02*
X86370400Y-68523100D01*
X85191600Y-72951900D02*
X86370400Y-71773100D01*
X84789100Y-76158000D02*
X85191600Y-75755500D01*
X85191600Y-75755500D02*
X85191600Y-72951900D01*
X83540600Y-76158000D02*
X84789100Y-76158000D01*
%TO.N,Net-(C202-Pad1)*%
X83540600Y-73469500D02*
X83540600Y-74083000D01*
X84023200Y-72986900D02*
X83540600Y-73469500D01*
X85670400Y-68523100D02*
X85670400Y-71836690D01*
X85670400Y-71836690D02*
X84520190Y-72986900D01*
X84520190Y-72986900D02*
X84023200Y-72986900D01*
%TO.N,Net-(C205-Pad1)*%
X95009300Y-74464000D02*
X95021400Y-74476100D01*
X92697500Y-74502300D02*
X92659200Y-74464000D01*
X92670400Y-70523100D02*
X92670400Y-72566300D01*
X93091000Y-72986900D02*
X93091000Y-74464000D01*
X92670400Y-72566300D02*
X93091000Y-72986900D01*
X97294500Y-74464000D02*
X97307400Y-74476900D01*
X93091000Y-74464000D02*
X97294500Y-74464000D01*
X92659200Y-70534300D02*
X92670400Y-70523100D01*
X92659200Y-68534300D02*
X92670400Y-68523100D01*
X92659200Y-70534300D02*
X92659200Y-68534300D01*
%TO.N,Net-(C206-Pad1)*%
X103606600Y-74083000D02*
X103606600Y-73596500D01*
X103606600Y-73596500D02*
X102844600Y-72834500D01*
X102844600Y-72834500D02*
X102108000Y-72834500D01*
X101770400Y-72496900D02*
X101770400Y-68523100D01*
X102108000Y-72834500D02*
X101770400Y-72496900D01*
%TO.N,SDA*%
X96870400Y-63863100D02*
X96870400Y-68612900D01*
X72326500Y-100186500D02*
X72390000Y-100123000D01*
X104622600Y-85852000D02*
X106629200Y-85852000D01*
X100304600Y-90170000D02*
X104622600Y-85852000D01*
X78359000Y-90170000D02*
X100304600Y-90170000D01*
X76073000Y-92456000D02*
X78359000Y-90170000D01*
X76073000Y-99339400D02*
X76073000Y-92456000D01*
X75314800Y-100097600D02*
X76073000Y-99339400D01*
X72771000Y-100097600D02*
X75314800Y-100097600D01*
X96372800Y-68612900D02*
X96170400Y-68815300D01*
X96870400Y-68612900D02*
X96372800Y-68612900D01*
%TO.N,SCL*%
X79534400Y-102597600D02*
X72771000Y-102597600D01*
X81280000Y-104343200D02*
X79534400Y-102597600D01*
X81280000Y-106984800D02*
X81280000Y-104343200D01*
X109169200Y-84646220D02*
X109169200Y-85852000D01*
X104521000Y-84074000D02*
X108596980Y-84074000D01*
X99517200Y-89077800D02*
X104521000Y-84074000D01*
X75311000Y-90678000D02*
X76911200Y-89077800D01*
X72644000Y-90678000D02*
X75311000Y-90678000D01*
X70535800Y-92786200D02*
X72644000Y-90678000D01*
X108596980Y-84074000D02*
X109169200Y-84646220D01*
X70535800Y-101346000D02*
X70535800Y-92786200D01*
X71787400Y-102597600D02*
X70535800Y-101346000D01*
X76911200Y-89077800D02*
X99517200Y-89077800D01*
X72771000Y-102597600D02*
X71787400Y-102597600D01*
X95478600Y-63868300D02*
X95478600Y-68514900D01*
%TO.N,IO1*%
X115315998Y-104139998D02*
X117856000Y-104139998D01*
X114427000Y-103251000D02*
X115315998Y-104139998D01*
X94335600Y-103276400D02*
X114427000Y-103251000D01*
%TO.N,IO0*%
X134569200Y-106438700D02*
X133413500Y-105283000D01*
X134588501Y-108387001D02*
X134588501Y-107258999D01*
X134569200Y-108406302D02*
X134588501Y-108387001D01*
X134569200Y-107239698D02*
X134569200Y-106438700D01*
X134569200Y-109905800D02*
X134569200Y-108406302D01*
X134588501Y-107258999D02*
X134569200Y-107239698D01*
X133350000Y-111125000D02*
X134569200Y-109905800D01*
X128905000Y-111125000D02*
X133350000Y-111125000D01*
X126365000Y-108585000D02*
X128905000Y-111125000D01*
X98933000Y-108585000D02*
X126365000Y-108585000D01*
X95453200Y-104521000D02*
X98933000Y-108585000D01*
%TO.N,Net-(J203-Pad26)*%
X101066600Y-74120500D02*
X101066600Y-70526900D01*
X101066600Y-70526900D02*
X101070400Y-70523100D01*
X101066600Y-68526900D02*
X101070400Y-68523100D01*
X101066600Y-70526900D02*
X101066600Y-68526900D01*
%TO.N,LBTN*%
X91186000Y-106172000D02*
X88836000Y-108522000D01*
X91186000Y-96939100D02*
X91186000Y-106172000D01*
X88836000Y-108522000D02*
X88836000Y-112354800D01*
X88797900Y-112941600D02*
X87922100Y-113817400D01*
X88797900Y-112392900D02*
X88797900Y-112941600D01*
X80797900Y-112392900D02*
X80797900Y-112649500D01*
X80797900Y-112617750D02*
X81984850Y-113804700D01*
X80797900Y-112392900D02*
X80797900Y-112617750D01*
%TO.N,RBTN*%
X93342460Y-96093280D02*
X93345000Y-96520000D01*
X93342460Y-96093280D02*
X93342460Y-109738160D01*
X95997200Y-112392900D02*
X98581200Y-112392900D01*
X93342460Y-109738160D02*
X95997200Y-112392900D01*
X98581200Y-112392900D02*
X106581200Y-112392900D01*
%TO.N,MBTN*%
X118619200Y-111872200D02*
X118641300Y-111872200D01*
X94343650Y-92659630D02*
X96045020Y-94361000D01*
X86217760Y-93966170D02*
X87524300Y-92659630D01*
X86217760Y-114068860D02*
X86217760Y-93966170D01*
X111747300Y-114884200D02*
X87033100Y-114884200D01*
X114759300Y-111872200D02*
X111747300Y-114884200D01*
X87524300Y-92659630D02*
X94343650Y-92659630D01*
X87033100Y-114884200D02*
X86217760Y-114068860D01*
X118619200Y-111872200D02*
X114759300Y-111872200D01*
X119149300Y-111872200D02*
X118619200Y-111872200D01*
X120103900Y-112826800D02*
X119149300Y-111872200D01*
X123456700Y-112826800D02*
X120103900Y-112826800D01*
X124411300Y-111872200D02*
X123456700Y-112826800D01*
X125119200Y-111872200D02*
X124411300Y-111872200D01*
%TO.N,Net-(C207-Pad1)*%
X102769800Y-72072500D02*
X102470400Y-71773100D01*
X106146600Y-73558000D02*
X106146600Y-72580500D01*
X102470400Y-71773100D02*
X102470400Y-68523100D01*
X105638600Y-72072500D02*
X102769800Y-72072500D01*
X106146600Y-72580500D02*
X105638600Y-72072500D01*
%TO.N,IO2*%
X94869000Y-99441000D02*
X111467900Y-99441000D01*
X111467900Y-99441000D02*
X113949911Y-101923011D01*
X129743200Y-110058200D02*
X132380381Y-110058200D01*
X127762000Y-108077000D02*
X129743200Y-110058200D01*
X127762000Y-106090998D02*
X127762000Y-108077000D01*
X113949911Y-101923011D02*
X123594013Y-101923011D01*
X133413500Y-109025081D02*
X133413500Y-107823000D01*
X123594013Y-101923011D02*
X127762000Y-106090998D01*
X132380381Y-110058200D02*
X133413500Y-109025081D01*
%TO.N,IO3*%
X111480600Y-98171000D02*
X114782600Y-101473000D01*
X114782600Y-101473000D02*
X124523500Y-101473000D01*
X124523500Y-101473000D02*
X130873500Y-107823000D01*
X94869000Y-98171000D02*
X111480600Y-98171000D01*
%TO.N,ENCB*%
X119341900Y-91814640D02*
X119297440Y-91859100D01*
%TO.N,ENCA*%
X123540842Y-93865698D02*
X124297440Y-93109100D01*
X124297440Y-93109100D02*
X124297440Y-91859100D01*
X116651489Y-93851011D02*
X123540842Y-93865698D01*
%TO.N,ENCBTN*%
X95903999Y-102380999D02*
X118255999Y-102380999D01*
X119297440Y-103422440D02*
X119297440Y-106359100D01*
X118255999Y-102380999D02*
X119297440Y-103422440D01*
%TO.N,Net-(R104-Pad2)*%
X121869200Y-110522200D02*
X121825200Y-110522200D01*
%TD*%
D23*
%TO.N,GND*%
X107162600Y-60261500D02*
X107165040Y-60286276D01*
X107172267Y-60310101D01*
X107184003Y-60332057D01*
X107199797Y-60351303D01*
X107219043Y-60367097D01*
X107240999Y-60378833D01*
X107264824Y-60386060D01*
X107289600Y-60388500D01*
X108358400Y-60388500D01*
X108358401Y-76761497D01*
X107381199Y-77738700D01*
X98663602Y-77738700D01*
X98408325Y-77483423D01*
X98433212Y-77401382D01*
X98445472Y-77276900D01*
X98445472Y-76276900D01*
X98433212Y-76152418D01*
X98396902Y-76032720D01*
X98364618Y-75972322D01*
X98362403Y-75085622D01*
X98396902Y-75021080D01*
X98433212Y-74901382D01*
X98445472Y-74776900D01*
X98445472Y-73776900D01*
X98433212Y-73652418D01*
X98396902Y-73532720D01*
X98358343Y-73460582D01*
X98355150Y-72182673D01*
X98352620Y-72157766D01*
X98345307Y-72133968D01*
X98333492Y-72112054D01*
X98317629Y-72092865D01*
X98298328Y-72077141D01*
X98276329Y-72065483D01*
X98252479Y-72058342D01*
X98227694Y-72055991D01*
X93430400Y-72073224D01*
X93430400Y-70560423D01*
X93434076Y-70523101D01*
X93430400Y-70485778D01*
X93430400Y-70485767D01*
X93419403Y-70374114D01*
X93419200Y-70373445D01*
X93419200Y-69843427D01*
X93459902Y-69767280D01*
X93496212Y-69647582D01*
X93508472Y-69523100D01*
X93508472Y-67765119D01*
X94632328Y-67764179D01*
X94632328Y-69523100D01*
X94644588Y-69647582D01*
X94680898Y-69767280D01*
X94739863Y-69877594D01*
X94819215Y-69974285D01*
X94915906Y-70053637D01*
X95026220Y-70112602D01*
X95145918Y-70148912D01*
X95270400Y-70161172D01*
X95670400Y-70161172D01*
X95794882Y-70148912D01*
X95820400Y-70141171D01*
X95845918Y-70148912D01*
X95970400Y-70161172D01*
X96370400Y-70161172D01*
X96494882Y-70148912D01*
X96520400Y-70141171D01*
X96545918Y-70148912D01*
X96670400Y-70161172D01*
X97070400Y-70161172D01*
X97194882Y-70148912D01*
X97314580Y-70112602D01*
X97424894Y-70053637D01*
X97521585Y-69974285D01*
X97600937Y-69877594D01*
X97659902Y-69767280D01*
X97696212Y-69647582D01*
X97708472Y-69523100D01*
X97708472Y-67761604D01*
X100232328Y-67759491D01*
X100232328Y-69523100D01*
X100244588Y-69647582D01*
X100280898Y-69767280D01*
X100306600Y-69815365D01*
X100306600Y-70489577D01*
X100302924Y-70526900D01*
X100306600Y-70564222D01*
X100306600Y-70564232D01*
X100306601Y-70564242D01*
X100306600Y-72940973D01*
X100276749Y-72950028D01*
X100123213Y-73032095D01*
X99988638Y-73142538D01*
X99878195Y-73277113D01*
X99796128Y-73430649D01*
X99745592Y-73597245D01*
X99728528Y-73770499D01*
X99728528Y-74470501D01*
X99745592Y-74643755D01*
X99796128Y-74810351D01*
X99878195Y-74963887D01*
X99988638Y-75098462D01*
X100123213Y-75208905D01*
X100276749Y-75290972D01*
X100443345Y-75341508D01*
X100616599Y-75358572D01*
X101516601Y-75358572D01*
X101689855Y-75341508D01*
X101856451Y-75290972D01*
X102009987Y-75208905D01*
X102144562Y-75098462D01*
X102255005Y-74963887D01*
X102337072Y-74810351D01*
X102337355Y-74809417D01*
X102393195Y-74913886D01*
X102503638Y-75048462D01*
X102638214Y-75158905D01*
X102791750Y-75240972D01*
X102958346Y-75291508D01*
X103131600Y-75308572D01*
X104081600Y-75308572D01*
X104254854Y-75291508D01*
X104421450Y-75240972D01*
X104574986Y-75158905D01*
X104709562Y-75048462D01*
X104820005Y-74913886D01*
X104876600Y-74808005D01*
X104933195Y-74913886D01*
X105043638Y-75048462D01*
X105178214Y-75158905D01*
X105331750Y-75240972D01*
X105498346Y-75291508D01*
X105671600Y-75308572D01*
X106621600Y-75308572D01*
X106794854Y-75291508D01*
X106961450Y-75240972D01*
X107114986Y-75158905D01*
X107249562Y-75048462D01*
X107360005Y-74913886D01*
X107442072Y-74760350D01*
X107492608Y-74593754D01*
X107509672Y-74420500D01*
X107509672Y-73745500D01*
X107492608Y-73572246D01*
X107442072Y-73405650D01*
X107360005Y-73252114D01*
X107249562Y-73117538D01*
X107114986Y-73007095D01*
X106961450Y-72925028D01*
X106906600Y-72908390D01*
X106906600Y-72617822D01*
X106910276Y-72580499D01*
X106906600Y-72543176D01*
X106906600Y-72543167D01*
X106895603Y-72431514D01*
X106852146Y-72288253D01*
X106781574Y-72156224D01*
X106686601Y-72040499D01*
X106657602Y-72016700D01*
X106202403Y-71561502D01*
X106178601Y-71532499D01*
X106062876Y-71437526D01*
X105930847Y-71366954D01*
X105787586Y-71323497D01*
X105675933Y-71312500D01*
X105675922Y-71312500D01*
X105638600Y-71308824D01*
X105601278Y-71312500D01*
X103230400Y-71312500D01*
X103230400Y-69822473D01*
X103259902Y-69767280D01*
X103296212Y-69647582D01*
X103308472Y-69523100D01*
X103308472Y-67756916D01*
X105045831Y-67755462D01*
X105070501Y-67753022D01*
X105094326Y-67745795D01*
X105116282Y-67734059D01*
X105135528Y-67718265D01*
X105151322Y-67699019D01*
X105163058Y-67677063D01*
X105170285Y-67653238D01*
X105172725Y-67628462D01*
X105172725Y-61849962D01*
X105170305Y-61825290D01*
X105163098Y-61801459D01*
X105151381Y-61779493D01*
X105135603Y-61760235D01*
X105116371Y-61744424D01*
X105094424Y-61732670D01*
X105070606Y-61725423D01*
X105045831Y-61722962D01*
X82287431Y-61703912D01*
X82262549Y-61706352D01*
X82238724Y-61713579D01*
X82216768Y-61725315D01*
X82197522Y-61741109D01*
X82181728Y-61760355D01*
X82169992Y-61782311D01*
X82162765Y-61806136D01*
X82160325Y-61830912D01*
X82160325Y-67647512D01*
X82162786Y-67672393D01*
X82170033Y-67696211D01*
X82181787Y-67718158D01*
X82197598Y-67737390D01*
X82216856Y-67753168D01*
X82238822Y-67764885D01*
X82262653Y-67772092D01*
X82287431Y-67774512D01*
X83432328Y-67773554D01*
X83432328Y-69286120D01*
X78690501Y-69286120D01*
X78666051Y-69288496D01*
X78642208Y-69295660D01*
X78620221Y-69307339D01*
X78600934Y-69323082D01*
X78585090Y-69342286D01*
X78573296Y-69364212D01*
X78566007Y-69388017D01*
X78563501Y-69412787D01*
X78543181Y-77167407D01*
X78545621Y-77192516D01*
X78552848Y-77216341D01*
X78564584Y-77238297D01*
X78580378Y-77257543D01*
X78599624Y-77273337D01*
X78621580Y-77285073D01*
X78645405Y-77292300D01*
X78670181Y-77294740D01*
X79130028Y-77294740D01*
X79169750Y-77315972D01*
X79336346Y-77366508D01*
X79509600Y-77383572D01*
X80459600Y-77383572D01*
X80632854Y-77366508D01*
X80799450Y-77315972D01*
X80839172Y-77294740D01*
X82686028Y-77294740D01*
X82725750Y-77315972D01*
X82892346Y-77366508D01*
X83065600Y-77383572D01*
X84015600Y-77383572D01*
X84188854Y-77366508D01*
X84355450Y-77315972D01*
X84395172Y-77294740D01*
X86290181Y-77294740D01*
X86314631Y-77292364D01*
X86338474Y-77285200D01*
X86360461Y-77273521D01*
X86379748Y-77257778D01*
X86395592Y-77238574D01*
X86407386Y-77216648D01*
X86414675Y-77192843D01*
X86417181Y-77168073D01*
X86422099Y-75291251D01*
X86422946Y-75291508D01*
X86596200Y-75308572D01*
X87546200Y-75308572D01*
X87719454Y-75291508D01*
X87886050Y-75240972D01*
X88039586Y-75158905D01*
X88125300Y-75088562D01*
X88211014Y-75158905D01*
X88364550Y-75240972D01*
X88531146Y-75291508D01*
X88704400Y-75308572D01*
X89654400Y-75308572D01*
X89827654Y-75291508D01*
X89994250Y-75240972D01*
X90147786Y-75158905D01*
X90265889Y-75061981D01*
X90320222Y-75084486D01*
X90520181Y-75124260D01*
X90724059Y-75124260D01*
X90924018Y-75084486D01*
X91112376Y-75006465D01*
X91281894Y-74893197D01*
X91426057Y-74749034D01*
X91539325Y-74579516D01*
X91617346Y-74391158D01*
X91657120Y-74191199D01*
X91657120Y-73987321D01*
X91617346Y-73787362D01*
X91539325Y-73599004D01*
X91426057Y-73429486D01*
X91331370Y-73334799D01*
X91336553Y-69810962D01*
X91359902Y-69767280D01*
X91396212Y-69647582D01*
X91408472Y-69523100D01*
X91408472Y-67766877D01*
X91832328Y-67766522D01*
X91832328Y-69523100D01*
X91844588Y-69647582D01*
X91880898Y-69767280D01*
X91899200Y-69801521D01*
X91899200Y-70496977D01*
X91895524Y-70534300D01*
X91899200Y-70571622D01*
X91899200Y-70571632D01*
X91910197Y-70683285D01*
X91910400Y-70683955D01*
X91910401Y-72528968D01*
X91906724Y-72566300D01*
X91910401Y-72603633D01*
X91913874Y-72638894D01*
X91912841Y-73590166D01*
X91877595Y-73633114D01*
X91795528Y-73786650D01*
X91744992Y-73953246D01*
X91727928Y-74126500D01*
X91727928Y-74801500D01*
X91744992Y-74974754D01*
X91795528Y-75141350D01*
X91877595Y-75294886D01*
X91910946Y-75335525D01*
X91910535Y-75714087D01*
X91913468Y-75741360D01*
X91921145Y-75765043D01*
X91933296Y-75786773D01*
X91949452Y-75805715D01*
X91968993Y-75821141D01*
X91991169Y-75832458D01*
X92015126Y-75839232D01*
X92039944Y-75841202D01*
X93750149Y-75808756D01*
X93726006Y-78319679D01*
X93728660Y-78346756D01*
X93736093Y-78370517D01*
X93748020Y-78392371D01*
X93763980Y-78411478D01*
X93783362Y-78427105D01*
X93805419Y-78438650D01*
X93829305Y-78445670D01*
X93854102Y-78447895D01*
X94625090Y-78441204D01*
X94734344Y-78514205D01*
X94922702Y-78592226D01*
X95122661Y-78632000D01*
X95326539Y-78632000D01*
X95526498Y-78592226D01*
X95714856Y-78514205D01*
X95839887Y-78430662D01*
X97194208Y-78418909D01*
X97785001Y-79009703D01*
X97808799Y-79038701D01*
X97837797Y-79062499D01*
X97924523Y-79133674D01*
X98056553Y-79204246D01*
X98199814Y-79247703D01*
X98311467Y-79258700D01*
X98311477Y-79258700D01*
X98348799Y-79262376D01*
X98386122Y-79258700D01*
X107658678Y-79258700D01*
X107696000Y-79262376D01*
X107733322Y-79258700D01*
X107733333Y-79258700D01*
X107844986Y-79247703D01*
X107988247Y-79204246D01*
X108120276Y-79133674D01*
X108236001Y-79038701D01*
X108259804Y-79009697D01*
X109629403Y-77640099D01*
X109658401Y-77616301D01*
X109753374Y-77500576D01*
X109823946Y-77368547D01*
X109867403Y-77225286D01*
X109878400Y-77113633D01*
X109878400Y-77113624D01*
X109882076Y-77076301D01*
X109878400Y-77038978D01*
X109878400Y-60388500D01*
X110516201Y-60388500D01*
X110516200Y-82182500D01*
X76885000Y-82182500D01*
X76885000Y-60642500D01*
X102336600Y-60642500D01*
X102361376Y-60640060D01*
X102385201Y-60632833D01*
X102407157Y-60621097D01*
X102426403Y-60605303D01*
X102442197Y-60586057D01*
X102450876Y-60570907D01*
X102465813Y-60540100D01*
X102710347Y-60540100D01*
X102719606Y-60541681D01*
X102777681Y-60540100D01*
X102802047Y-60540100D01*
X102811354Y-60539183D01*
X102854489Y-60538009D01*
X102878340Y-60532586D01*
X102902683Y-60530188D01*
X102943988Y-60517658D01*
X102986063Y-60508091D01*
X103008392Y-60498122D01*
X103031806Y-60491019D01*
X103069879Y-60470669D01*
X103109273Y-60453080D01*
X103129227Y-60438947D01*
X103150807Y-60427412D01*
X103184175Y-60400028D01*
X103219384Y-60375089D01*
X103236201Y-60357330D01*
X103255111Y-60341811D01*
X103282497Y-60308441D01*
X103312163Y-60277114D01*
X103325189Y-60256422D01*
X103340712Y-60237507D01*
X103361058Y-60199443D01*
X103366035Y-60191536D01*
X103376918Y-60169769D01*
X103404319Y-60118506D01*
X103407048Y-60109511D01*
X104969753Y-56984100D01*
X107162600Y-56984100D01*
X107162600Y-60261500D01*
%TA.AperFunction,Conductor*%
D24*
G36*
X107162600Y-60261500D02*
G01*
X107165040Y-60286276D01*
X107172267Y-60310101D01*
X107184003Y-60332057D01*
X107199797Y-60351303D01*
X107219043Y-60367097D01*
X107240999Y-60378833D01*
X107264824Y-60386060D01*
X107289600Y-60388500D01*
X108358400Y-60388500D01*
X108358401Y-76761497D01*
X107381199Y-77738700D01*
X98663602Y-77738700D01*
X98408325Y-77483423D01*
X98433212Y-77401382D01*
X98445472Y-77276900D01*
X98445472Y-76276900D01*
X98433212Y-76152418D01*
X98396902Y-76032720D01*
X98364618Y-75972322D01*
X98362403Y-75085622D01*
X98396902Y-75021080D01*
X98433212Y-74901382D01*
X98445472Y-74776900D01*
X98445472Y-73776900D01*
X98433212Y-73652418D01*
X98396902Y-73532720D01*
X98358343Y-73460582D01*
X98355150Y-72182673D01*
X98352620Y-72157766D01*
X98345307Y-72133968D01*
X98333492Y-72112054D01*
X98317629Y-72092865D01*
X98298328Y-72077141D01*
X98276329Y-72065483D01*
X98252479Y-72058342D01*
X98227694Y-72055991D01*
X93430400Y-72073224D01*
X93430400Y-70560423D01*
X93434076Y-70523101D01*
X93430400Y-70485778D01*
X93430400Y-70485767D01*
X93419403Y-70374114D01*
X93419200Y-70373445D01*
X93419200Y-69843427D01*
X93459902Y-69767280D01*
X93496212Y-69647582D01*
X93508472Y-69523100D01*
X93508472Y-67765119D01*
X94632328Y-67764179D01*
X94632328Y-69523100D01*
X94644588Y-69647582D01*
X94680898Y-69767280D01*
X94739863Y-69877594D01*
X94819215Y-69974285D01*
X94915906Y-70053637D01*
X95026220Y-70112602D01*
X95145918Y-70148912D01*
X95270400Y-70161172D01*
X95670400Y-70161172D01*
X95794882Y-70148912D01*
X95820400Y-70141171D01*
X95845918Y-70148912D01*
X95970400Y-70161172D01*
X96370400Y-70161172D01*
X96494882Y-70148912D01*
X96520400Y-70141171D01*
X96545918Y-70148912D01*
X96670400Y-70161172D01*
X97070400Y-70161172D01*
X97194882Y-70148912D01*
X97314580Y-70112602D01*
X97424894Y-70053637D01*
X97521585Y-69974285D01*
X97600937Y-69877594D01*
X97659902Y-69767280D01*
X97696212Y-69647582D01*
X97708472Y-69523100D01*
X97708472Y-67761604D01*
X100232328Y-67759491D01*
X100232328Y-69523100D01*
X100244588Y-69647582D01*
X100280898Y-69767280D01*
X100306600Y-69815365D01*
X100306600Y-70489577D01*
X100302924Y-70526900D01*
X100306600Y-70564222D01*
X100306600Y-70564232D01*
X100306601Y-70564242D01*
X100306600Y-72940973D01*
X100276749Y-72950028D01*
X100123213Y-73032095D01*
X99988638Y-73142538D01*
X99878195Y-73277113D01*
X99796128Y-73430649D01*
X99745592Y-73597245D01*
X99728528Y-73770499D01*
X99728528Y-74470501D01*
X99745592Y-74643755D01*
X99796128Y-74810351D01*
X99878195Y-74963887D01*
X99988638Y-75098462D01*
X100123213Y-75208905D01*
X100276749Y-75290972D01*
X100443345Y-75341508D01*
X100616599Y-75358572D01*
X101516601Y-75358572D01*
X101689855Y-75341508D01*
X101856451Y-75290972D01*
X102009987Y-75208905D01*
X102144562Y-75098462D01*
X102255005Y-74963887D01*
X102337072Y-74810351D01*
X102337355Y-74809417D01*
X102393195Y-74913886D01*
X102503638Y-75048462D01*
X102638214Y-75158905D01*
X102791750Y-75240972D01*
X102958346Y-75291508D01*
X103131600Y-75308572D01*
X104081600Y-75308572D01*
X104254854Y-75291508D01*
X104421450Y-75240972D01*
X104574986Y-75158905D01*
X104709562Y-75048462D01*
X104820005Y-74913886D01*
X104876600Y-74808005D01*
X104933195Y-74913886D01*
X105043638Y-75048462D01*
X105178214Y-75158905D01*
X105331750Y-75240972D01*
X105498346Y-75291508D01*
X105671600Y-75308572D01*
X106621600Y-75308572D01*
X106794854Y-75291508D01*
X106961450Y-75240972D01*
X107114986Y-75158905D01*
X107249562Y-75048462D01*
X107360005Y-74913886D01*
X107442072Y-74760350D01*
X107492608Y-74593754D01*
X107509672Y-74420500D01*
X107509672Y-73745500D01*
X107492608Y-73572246D01*
X107442072Y-73405650D01*
X107360005Y-73252114D01*
X107249562Y-73117538D01*
X107114986Y-73007095D01*
X106961450Y-72925028D01*
X106906600Y-72908390D01*
X106906600Y-72617822D01*
X106910276Y-72580499D01*
X106906600Y-72543176D01*
X106906600Y-72543167D01*
X106895603Y-72431514D01*
X106852146Y-72288253D01*
X106781574Y-72156224D01*
X106686601Y-72040499D01*
X106657602Y-72016700D01*
X106202403Y-71561502D01*
X106178601Y-71532499D01*
X106062876Y-71437526D01*
X105930847Y-71366954D01*
X105787586Y-71323497D01*
X105675933Y-71312500D01*
X105675922Y-71312500D01*
X105638600Y-71308824D01*
X105601278Y-71312500D01*
X103230400Y-71312500D01*
X103230400Y-69822473D01*
X103259902Y-69767280D01*
X103296212Y-69647582D01*
X103308472Y-69523100D01*
X103308472Y-67756916D01*
X105045831Y-67755462D01*
X105070501Y-67753022D01*
X105094326Y-67745795D01*
X105116282Y-67734059D01*
X105135528Y-67718265D01*
X105151322Y-67699019D01*
X105163058Y-67677063D01*
X105170285Y-67653238D01*
X105172725Y-67628462D01*
X105172725Y-61849962D01*
X105170305Y-61825290D01*
X105163098Y-61801459D01*
X105151381Y-61779493D01*
X105135603Y-61760235D01*
X105116371Y-61744424D01*
X105094424Y-61732670D01*
X105070606Y-61725423D01*
X105045831Y-61722962D01*
X82287431Y-61703912D01*
X82262549Y-61706352D01*
X82238724Y-61713579D01*
X82216768Y-61725315D01*
X82197522Y-61741109D01*
X82181728Y-61760355D01*
X82169992Y-61782311D01*
X82162765Y-61806136D01*
X82160325Y-61830912D01*
X82160325Y-67647512D01*
X82162786Y-67672393D01*
X82170033Y-67696211D01*
X82181787Y-67718158D01*
X82197598Y-67737390D01*
X82216856Y-67753168D01*
X82238822Y-67764885D01*
X82262653Y-67772092D01*
X82287431Y-67774512D01*
X83432328Y-67773554D01*
X83432328Y-69286120D01*
X78690501Y-69286120D01*
X78666051Y-69288496D01*
X78642208Y-69295660D01*
X78620221Y-69307339D01*
X78600934Y-69323082D01*
X78585090Y-69342286D01*
X78573296Y-69364212D01*
X78566007Y-69388017D01*
X78563501Y-69412787D01*
X78543181Y-77167407D01*
X78545621Y-77192516D01*
X78552848Y-77216341D01*
X78564584Y-77238297D01*
X78580378Y-77257543D01*
X78599624Y-77273337D01*
X78621580Y-77285073D01*
X78645405Y-77292300D01*
X78670181Y-77294740D01*
X79130028Y-77294740D01*
X79169750Y-77315972D01*
X79336346Y-77366508D01*
X79509600Y-77383572D01*
X80459600Y-77383572D01*
X80632854Y-77366508D01*
X80799450Y-77315972D01*
X80839172Y-77294740D01*
X82686028Y-77294740D01*
X82725750Y-77315972D01*
X82892346Y-77366508D01*
X83065600Y-77383572D01*
X84015600Y-77383572D01*
X84188854Y-77366508D01*
X84355450Y-77315972D01*
X84395172Y-77294740D01*
X86290181Y-77294740D01*
X86314631Y-77292364D01*
X86338474Y-77285200D01*
X86360461Y-77273521D01*
X86379748Y-77257778D01*
X86395592Y-77238574D01*
X86407386Y-77216648D01*
X86414675Y-77192843D01*
X86417181Y-77168073D01*
X86422099Y-75291251D01*
X86422946Y-75291508D01*
X86596200Y-75308572D01*
X87546200Y-75308572D01*
X87719454Y-75291508D01*
X87886050Y-75240972D01*
X88039586Y-75158905D01*
X88125300Y-75088562D01*
X88211014Y-75158905D01*
X88364550Y-75240972D01*
X88531146Y-75291508D01*
X88704400Y-75308572D01*
X89654400Y-75308572D01*
X89827654Y-75291508D01*
X89994250Y-75240972D01*
X90147786Y-75158905D01*
X90265889Y-75061981D01*
X90320222Y-75084486D01*
X90520181Y-75124260D01*
X90724059Y-75124260D01*
X90924018Y-75084486D01*
X91112376Y-75006465D01*
X91281894Y-74893197D01*
X91426057Y-74749034D01*
X91539325Y-74579516D01*
X91617346Y-74391158D01*
X91657120Y-74191199D01*
X91657120Y-73987321D01*
X91617346Y-73787362D01*
X91539325Y-73599004D01*
X91426057Y-73429486D01*
X91331370Y-73334799D01*
X91336553Y-69810962D01*
X91359902Y-69767280D01*
X91396212Y-69647582D01*
X91408472Y-69523100D01*
X91408472Y-67766877D01*
X91832328Y-67766522D01*
X91832328Y-69523100D01*
X91844588Y-69647582D01*
X91880898Y-69767280D01*
X91899200Y-69801521D01*
X91899200Y-70496977D01*
X91895524Y-70534300D01*
X91899200Y-70571622D01*
X91899200Y-70571632D01*
X91910197Y-70683285D01*
X91910400Y-70683955D01*
X91910401Y-72528968D01*
X91906724Y-72566300D01*
X91910401Y-72603633D01*
X91913874Y-72638894D01*
X91912841Y-73590166D01*
X91877595Y-73633114D01*
X91795528Y-73786650D01*
X91744992Y-73953246D01*
X91727928Y-74126500D01*
X91727928Y-74801500D01*
X91744992Y-74974754D01*
X91795528Y-75141350D01*
X91877595Y-75294886D01*
X91910946Y-75335525D01*
X91910535Y-75714087D01*
X91913468Y-75741360D01*
X91921145Y-75765043D01*
X91933296Y-75786773D01*
X91949452Y-75805715D01*
X91968993Y-75821141D01*
X91991169Y-75832458D01*
X92015126Y-75839232D01*
X92039944Y-75841202D01*
X93750149Y-75808756D01*
X93726006Y-78319679D01*
X93728660Y-78346756D01*
X93736093Y-78370517D01*
X93748020Y-78392371D01*
X93763980Y-78411478D01*
X93783362Y-78427105D01*
X93805419Y-78438650D01*
X93829305Y-78445670D01*
X93854102Y-78447895D01*
X94625090Y-78441204D01*
X94734344Y-78514205D01*
X94922702Y-78592226D01*
X95122661Y-78632000D01*
X95326539Y-78632000D01*
X95526498Y-78592226D01*
X95714856Y-78514205D01*
X95839887Y-78430662D01*
X97194208Y-78418909D01*
X97785001Y-79009703D01*
X97808799Y-79038701D01*
X97837797Y-79062499D01*
X97924523Y-79133674D01*
X98056553Y-79204246D01*
X98199814Y-79247703D01*
X98311467Y-79258700D01*
X98311477Y-79258700D01*
X98348799Y-79262376D01*
X98386122Y-79258700D01*
X107658678Y-79258700D01*
X107696000Y-79262376D01*
X107733322Y-79258700D01*
X107733333Y-79258700D01*
X107844986Y-79247703D01*
X107988247Y-79204246D01*
X108120276Y-79133674D01*
X108236001Y-79038701D01*
X108259804Y-79009697D01*
X109629403Y-77640099D01*
X109658401Y-77616301D01*
X109753374Y-77500576D01*
X109823946Y-77368547D01*
X109867403Y-77225286D01*
X109878400Y-77113633D01*
X109878400Y-77113624D01*
X109882076Y-77076301D01*
X109878400Y-77038978D01*
X109878400Y-60388500D01*
X110516201Y-60388500D01*
X110516200Y-82182500D01*
X76885000Y-82182500D01*
X76885000Y-60642500D01*
X102336600Y-60642500D01*
X102361376Y-60640060D01*
X102385201Y-60632833D01*
X102407157Y-60621097D01*
X102426403Y-60605303D01*
X102442197Y-60586057D01*
X102450876Y-60570907D01*
X102465813Y-60540100D01*
X102710347Y-60540100D01*
X102719606Y-60541681D01*
X102777681Y-60540100D01*
X102802047Y-60540100D01*
X102811354Y-60539183D01*
X102854489Y-60538009D01*
X102878340Y-60532586D01*
X102902683Y-60530188D01*
X102943988Y-60517658D01*
X102986063Y-60508091D01*
X103008392Y-60498122D01*
X103031806Y-60491019D01*
X103069879Y-60470669D01*
X103109273Y-60453080D01*
X103129227Y-60438947D01*
X103150807Y-60427412D01*
X103184175Y-60400028D01*
X103219384Y-60375089D01*
X103236201Y-60357330D01*
X103255111Y-60341811D01*
X103282497Y-60308441D01*
X103312163Y-60277114D01*
X103325189Y-60256422D01*
X103340712Y-60237507D01*
X103361058Y-60199443D01*
X103366035Y-60191536D01*
X103376918Y-60169769D01*
X103404319Y-60118506D01*
X103407048Y-60109511D01*
X104969753Y-56984100D01*
X107162600Y-56984100D01*
X107162600Y-60261500D01*
G37*
%TD.AperFunction*%
%TD*%
M02*
