%TF.GenerationSoftware,KiCad,Pcbnew,(5.1.9)-1*%
%TF.CreationDate,2021-03-19T20:46:11+01:00*%
%TF.ProjectId,Panel,50616e65-6c2e-46b6-9963-61645f706362,2*%
%TF.SameCoordinates,Original*%
%TF.FileFunction,Legend,Top*%
%TF.FilePolarity,Positive*%
%FSLAX46Y46*%
G04 Gerber Fmt 4.6, Leading zero omitted, Abs format (unit mm)*
G04 Created by KiCad (PCBNEW (5.1.9)-1) date 2021-03-19 20:46:11*
%MOMM*%
%LPD*%
G01*
G04 APERTURE LIST*
%ADD10C,0.500000*%
%ADD11C,0.150000*%
%ADD12C,0.120000*%
%ADD13C,0.100000*%
G04 APERTURE END LIST*
D10*
X76415900Y-83146900D02*
X110985300Y-83121500D01*
D11*
X77947780Y-69289442D02*
X77471590Y-69622776D01*
X77947780Y-69860871D02*
X76947780Y-69860871D01*
X76947780Y-69479919D01*
X76995400Y-69384680D01*
X77043019Y-69337061D01*
X77138257Y-69289442D01*
X77281114Y-69289442D01*
X77376352Y-69337061D01*
X77423971Y-69384680D01*
X77471590Y-69479919D01*
X77471590Y-69860871D01*
X77900161Y-68479919D02*
X77947780Y-68575157D01*
X77947780Y-68765633D01*
X77900161Y-68860871D01*
X77804923Y-68908490D01*
X77423971Y-68908490D01*
X77328733Y-68860871D01*
X77281114Y-68765633D01*
X77281114Y-68575157D01*
X77328733Y-68479919D01*
X77423971Y-68432300D01*
X77519209Y-68432300D01*
X77614447Y-68908490D01*
X77281114Y-68098966D02*
X77947780Y-67860871D01*
X77281114Y-67622776D01*
X77043019Y-66527538D02*
X76995400Y-66479919D01*
X76947780Y-66384680D01*
X76947780Y-66146585D01*
X76995400Y-66051347D01*
X77043019Y-66003728D01*
X77138257Y-65956109D01*
X77233495Y-65956109D01*
X77376352Y-66003728D01*
X77947780Y-66575157D01*
X77947780Y-65956109D01*
X117091390Y-83831680D02*
X117281866Y-83831680D01*
X117377104Y-83879300D01*
X117472342Y-83974538D01*
X117519961Y-84165014D01*
X117519961Y-84498347D01*
X117472342Y-84688823D01*
X117377104Y-84784061D01*
X117281866Y-84831680D01*
X117091390Y-84831680D01*
X116996152Y-84784061D01*
X116900914Y-84688823D01*
X116853295Y-84498347D01*
X116853295Y-84165014D01*
X116900914Y-83974538D01*
X116996152Y-83879300D01*
X117091390Y-83831680D01*
X118424723Y-84831680D02*
X117948533Y-84831680D01*
X117948533Y-83831680D01*
X118758057Y-84307871D02*
X119091390Y-84307871D01*
X119234247Y-84831680D02*
X118758057Y-84831680D01*
X118758057Y-83831680D01*
X119234247Y-83831680D01*
X119662819Y-84831680D02*
X119662819Y-83831680D01*
X119900914Y-83831680D01*
X120043771Y-83879300D01*
X120139009Y-83974538D01*
X120186628Y-84069776D01*
X120234247Y-84260252D01*
X120234247Y-84403109D01*
X120186628Y-84593585D01*
X120139009Y-84688823D01*
X120043771Y-84784061D01*
X119900914Y-84831680D01*
X119662819Y-84831680D01*
X120662819Y-84450728D02*
X121424723Y-84450728D01*
X122234247Y-84307871D02*
X122377104Y-84355490D01*
X122424723Y-84403109D01*
X122472342Y-84498347D01*
X122472342Y-84641204D01*
X122424723Y-84736442D01*
X122377104Y-84784061D01*
X122281866Y-84831680D01*
X121900914Y-84831680D01*
X121900914Y-83831680D01*
X122234247Y-83831680D01*
X122329485Y-83879300D01*
X122377104Y-83926919D01*
X122424723Y-84022157D01*
X122424723Y-84117395D01*
X122377104Y-84212633D01*
X122329485Y-84260252D01*
X122234247Y-84307871D01*
X121900914Y-84307871D01*
X123091390Y-83831680D02*
X123281866Y-83831680D01*
X123377104Y-83879300D01*
X123472342Y-83974538D01*
X123519961Y-84165014D01*
X123519961Y-84498347D01*
X123472342Y-84688823D01*
X123377104Y-84784061D01*
X123281866Y-84831680D01*
X123091390Y-84831680D01*
X122996152Y-84784061D01*
X122900914Y-84688823D01*
X122853295Y-84498347D01*
X122853295Y-84165014D01*
X122900914Y-83974538D01*
X122996152Y-83879300D01*
X123091390Y-83831680D01*
X123900914Y-84545966D02*
X124377104Y-84545966D01*
X123805676Y-84831680D02*
X124139009Y-83831680D01*
X124472342Y-84831680D01*
X125377104Y-84831680D02*
X125043771Y-84355490D01*
X124805676Y-84831680D02*
X124805676Y-83831680D01*
X125186628Y-83831680D01*
X125281866Y-83879300D01*
X125329485Y-83926919D01*
X125377104Y-84022157D01*
X125377104Y-84165014D01*
X125329485Y-84260252D01*
X125281866Y-84307871D01*
X125186628Y-84355490D01*
X124805676Y-84355490D01*
X125805676Y-84831680D02*
X125805676Y-83831680D01*
X126043771Y-83831680D01*
X126186628Y-83879300D01*
X126281866Y-83974538D01*
X126329485Y-84069776D01*
X126377104Y-84260252D01*
X126377104Y-84403109D01*
X126329485Y-84593585D01*
X126281866Y-84688823D01*
X126186628Y-84784061D01*
X126043771Y-84831680D01*
X125805676Y-84831680D01*
X120186628Y-86481680D02*
X119853295Y-86005490D01*
X119615200Y-86481680D02*
X119615200Y-85481680D01*
X119996152Y-85481680D01*
X120091390Y-85529300D01*
X120139009Y-85576919D01*
X120186628Y-85672157D01*
X120186628Y-85815014D01*
X120139009Y-85910252D01*
X120091390Y-85957871D01*
X119996152Y-86005490D01*
X119615200Y-86005490D01*
X120615200Y-85957871D02*
X120948533Y-85957871D01*
X121091390Y-86481680D02*
X120615200Y-86481680D01*
X120615200Y-85481680D01*
X121091390Y-85481680D01*
X121377104Y-85481680D02*
X121710438Y-86481680D01*
X122043771Y-85481680D01*
X123091390Y-85576919D02*
X123139009Y-85529300D01*
X123234247Y-85481680D01*
X123472342Y-85481680D01*
X123567580Y-85529300D01*
X123615200Y-85576919D01*
X123662819Y-85672157D01*
X123662819Y-85767395D01*
X123615200Y-85910252D01*
X123043771Y-86481680D01*
X123662819Y-86481680D01*
X91654380Y-105330047D02*
X92368666Y-105330047D01*
X92511523Y-105377666D01*
X92606761Y-105472904D01*
X92654380Y-105615761D01*
X92654380Y-105711000D01*
X92654380Y-104377666D02*
X92654380Y-104853857D01*
X91654380Y-104853857D01*
X92559142Y-103472904D02*
X92606761Y-103520523D01*
X92654380Y-103663380D01*
X92654380Y-103758619D01*
X92606761Y-103901476D01*
X92511523Y-103996714D01*
X92416285Y-104044333D01*
X92225809Y-104091952D01*
X92082952Y-104091952D01*
X91892476Y-104044333D01*
X91797238Y-103996714D01*
X91702000Y-103901476D01*
X91654380Y-103758619D01*
X91654380Y-103663380D01*
X91702000Y-103520523D01*
X91749619Y-103472904D01*
X91654380Y-102758619D02*
X92368666Y-102758619D01*
X92511523Y-102806238D01*
X92606761Y-102901476D01*
X92654380Y-103044333D01*
X92654380Y-103139571D01*
X92654380Y-101806238D02*
X92654380Y-102282428D01*
X91654380Y-102282428D01*
X92559142Y-100901476D02*
X92606761Y-100949095D01*
X92654380Y-101091952D01*
X92654380Y-101187190D01*
X92606761Y-101330047D01*
X92511523Y-101425285D01*
X92416285Y-101472904D01*
X92225809Y-101520523D01*
X92082952Y-101520523D01*
X91892476Y-101472904D01*
X91797238Y-101425285D01*
X91702000Y-101330047D01*
X91654380Y-101187190D01*
X91654380Y-101091952D01*
X91702000Y-100949095D01*
X91749619Y-100901476D01*
X91654380Y-100187190D02*
X92368666Y-100187190D01*
X92511523Y-100234809D01*
X92606761Y-100330047D01*
X92654380Y-100472904D01*
X92654380Y-100568142D01*
X92654380Y-99234809D02*
X92654380Y-99711000D01*
X91654380Y-99711000D01*
X92559142Y-98330047D02*
X92606761Y-98377666D01*
X92654380Y-98520523D01*
X92654380Y-98615761D01*
X92606761Y-98758619D01*
X92511523Y-98853857D01*
X92416285Y-98901476D01*
X92225809Y-98949095D01*
X92082952Y-98949095D01*
X91892476Y-98901476D01*
X91797238Y-98853857D01*
X91702000Y-98758619D01*
X91654380Y-98615761D01*
X91654380Y-98520523D01*
X91702000Y-98377666D01*
X91749619Y-98330047D01*
X91654380Y-97615761D02*
X92368666Y-97615761D01*
X92511523Y-97663380D01*
X92606761Y-97758619D01*
X92654380Y-97901476D01*
X92654380Y-97996714D01*
X92654380Y-96663380D02*
X92654380Y-97139571D01*
X91654380Y-97139571D01*
X92559142Y-95758619D02*
X92606761Y-95806238D01*
X92654380Y-95949095D01*
X92654380Y-96044333D01*
X92606761Y-96187190D01*
X92511523Y-96282428D01*
X92416285Y-96330047D01*
X92225809Y-96377666D01*
X92082952Y-96377666D01*
X91892476Y-96330047D01*
X91797238Y-96282428D01*
X91702000Y-96187190D01*
X91654380Y-96044333D01*
X91654380Y-95949095D01*
X91702000Y-95806238D01*
X91749619Y-95758619D01*
D12*
%TO.C,SW104*%
X115773200Y-120218200D02*
X115773200Y-108026200D01*
X127965200Y-120218200D02*
X115773200Y-120218200D01*
X127965200Y-108026200D02*
X127965200Y-120218200D01*
X115773200Y-108026200D02*
X127965200Y-108026200D01*
%TO.C,D201*%
X96457400Y-77426900D02*
X96457400Y-74276900D01*
X98157400Y-77426900D02*
X98157400Y-74276900D01*
X96457400Y-77426900D02*
X98157400Y-77426900D01*
%TO.C,J104*%
X110499200Y-84522000D02*
X110499200Y-85852000D01*
X109169200Y-84522000D02*
X110499200Y-84522000D01*
X107899200Y-84522000D02*
X107899200Y-87182000D01*
X107899200Y-87182000D02*
X105299200Y-87182000D01*
X107899200Y-84522000D02*
X105299200Y-84522000D01*
X105299200Y-84522000D02*
X105299200Y-87182000D01*
%TO.C,J101*%
X76978200Y-87182000D02*
X76978200Y-85852000D01*
X78308200Y-87182000D02*
X76978200Y-87182000D01*
X79578200Y-87182000D02*
X79578200Y-84522000D01*
X79578200Y-84522000D02*
X82178200Y-84522000D01*
X79578200Y-87182000D02*
X82178200Y-87182000D01*
X82178200Y-87182000D02*
X82178200Y-84522000D01*
%TO.C,SW101*%
X124797440Y-99359100D02*
G75*
G03*
X124797440Y-99359100I-3000000J0D01*
G01*
X127697440Y-101359100D02*
X127697440Y-105459100D01*
X115897440Y-105459100D02*
X115897440Y-101359100D01*
X115897440Y-97359100D02*
X115897440Y-93259100D01*
X127697440Y-97359100D02*
X127697440Y-93259100D01*
X127697440Y-93259100D02*
X115897440Y-93259100D01*
X125597440Y-91859100D02*
X125897440Y-91559100D01*
X125897440Y-91559100D02*
X125897440Y-92159100D01*
X125897440Y-92159100D02*
X125597440Y-91859100D01*
X127697440Y-105459100D02*
X125297440Y-105459100D01*
X123097440Y-105459100D02*
X120497440Y-105459100D01*
X118297440Y-105459100D02*
X115897440Y-105459100D01*
X122297440Y-99359100D02*
X121297440Y-99359100D01*
X121797440Y-98859100D02*
X121797440Y-99859100D01*
%TO.C,SW103*%
X107681200Y-117942900D02*
X106681200Y-117942900D01*
X107681200Y-116942900D02*
X107681200Y-117942900D01*
X105681200Y-115942900D02*
X105681200Y-113342900D01*
X99481200Y-115942900D02*
X99481200Y-113342900D01*
X99581200Y-111392900D02*
X105581200Y-111392900D01*
X99681200Y-117892900D02*
X105481200Y-117892900D01*
%TO.C,SW102*%
X89897900Y-117942900D02*
X88897900Y-117942900D01*
X89897900Y-116942900D02*
X89897900Y-117942900D01*
X87897900Y-115942900D02*
X87897900Y-113342900D01*
X81697900Y-115942900D02*
X81697900Y-113342900D01*
X81797900Y-111392900D02*
X87797900Y-111392900D01*
X81897900Y-117892900D02*
X87697900Y-117892900D01*
%TO.C,C207*%
X105411600Y-74859248D02*
X105411600Y-75381752D01*
X106881600Y-74859248D02*
X106881600Y-75381752D01*
%TO.C,J201*%
X110448400Y-57001100D02*
X110448400Y-58331100D01*
X109118400Y-57001100D02*
X110448400Y-57001100D01*
X107848400Y-57001100D02*
X107848400Y-59661100D01*
X107848400Y-59661100D02*
X105248400Y-59661100D01*
X107848400Y-57001100D02*
X105248400Y-57001100D01*
X105248400Y-57001100D02*
X105248400Y-59661100D01*
%TO.C,C205*%
X92356000Y-75240248D02*
X92356000Y-75762752D01*
X93826000Y-75240248D02*
X93826000Y-75762752D01*
%TO.C,R202*%
X101801600Y-75347564D02*
X101801600Y-74893436D01*
X100331600Y-75347564D02*
X100331600Y-74893436D01*
%TO.C,C204*%
X88444400Y-74859248D02*
X88444400Y-75381752D01*
X89914400Y-74859248D02*
X89914400Y-75381752D01*
%TO.C,J202*%
X76927400Y-59661100D02*
X76927400Y-58331100D01*
X78257400Y-59661100D02*
X76927400Y-59661100D01*
X79527400Y-59661100D02*
X79527400Y-57001100D01*
X79527400Y-57001100D02*
X82127400Y-57001100D01*
X79527400Y-59661100D02*
X82127400Y-59661100D01*
X82127400Y-59661100D02*
X82127400Y-57001100D01*
%TO.C,C206*%
X102871600Y-74859248D02*
X102871600Y-75381752D01*
X104341600Y-74859248D02*
X104341600Y-75381752D01*
%TO.C,C202*%
X82805600Y-74859248D02*
X82805600Y-75381752D01*
X84275600Y-74859248D02*
X84275600Y-75381752D01*
D13*
%TO.C,J203*%
X102070400Y-64773100D02*
G75*
G03*
X102070400Y-64773100I-350000J0D01*
G01*
X86070400Y-64773100D02*
G75*
G03*
X86070400Y-64773100I-350000J0D01*
G01*
D12*
X104870400Y-69673100D02*
X104870400Y-67523100D01*
X82570400Y-69673100D02*
X104870400Y-69673100D01*
X82570400Y-67523100D02*
X82570400Y-69673100D01*
%TO.C,R201*%
X95959600Y-75703164D02*
X95959600Y-75249036D01*
X94489600Y-75703164D02*
X94489600Y-75249036D01*
%TO.C,C203*%
X86336200Y-74859248D02*
X86336200Y-75381752D01*
X87806200Y-74859248D02*
X87806200Y-75381752D01*
%TO.C,C201*%
X79249600Y-74859248D02*
X79249600Y-75381752D01*
X80719600Y-74859248D02*
X80719600Y-75381752D01*
%TO.C,SW104*%
D11*
X128398638Y-111518985D02*
X128351019Y-111661842D01*
X128351019Y-111899938D01*
X128398638Y-111995176D01*
X128446257Y-112042795D01*
X128541495Y-112090414D01*
X128636733Y-112090414D01*
X128731971Y-112042795D01*
X128779590Y-111995176D01*
X128827209Y-111899938D01*
X128874828Y-111709461D01*
X128922447Y-111614223D01*
X128970066Y-111566604D01*
X129065304Y-111518985D01*
X129160542Y-111518985D01*
X129255780Y-111566604D01*
X129303400Y-111614223D01*
X129351019Y-111709461D01*
X129351019Y-111947557D01*
X129303400Y-112090414D01*
X129351019Y-112423747D02*
X128351019Y-112661842D01*
X129065304Y-112852319D01*
X128351019Y-113042795D01*
X129351019Y-113280890D01*
X128351019Y-114185652D02*
X128351019Y-113614223D01*
X128351019Y-113899938D02*
X129351019Y-113899938D01*
X129208161Y-113804700D01*
X129112923Y-113709461D01*
X129065304Y-113614223D01*
X129351019Y-114804700D02*
X129351019Y-114899938D01*
X129303400Y-114995176D01*
X129255780Y-115042795D01*
X129160542Y-115090414D01*
X128970066Y-115138033D01*
X128731971Y-115138033D01*
X128541495Y-115090414D01*
X128446257Y-115042795D01*
X128398638Y-114995176D01*
X128351019Y-114899938D01*
X128351019Y-114804700D01*
X128398638Y-114709461D01*
X128446257Y-114661842D01*
X128541495Y-114614223D01*
X128731971Y-114566604D01*
X128970066Y-114566604D01*
X129160542Y-114614223D01*
X129255780Y-114661842D01*
X129303400Y-114709461D01*
X129351019Y-114804700D01*
X129017685Y-115995176D02*
X128351019Y-115995176D01*
X129398638Y-115757080D02*
X128684352Y-115518985D01*
X128684352Y-116138033D01*
%TO.C,D201*%
X95909780Y-77217376D02*
X94909780Y-77217376D01*
X94909780Y-76979280D01*
X94957400Y-76836423D01*
X95052638Y-76741185D01*
X95147876Y-76693566D01*
X95338352Y-76645947D01*
X95481209Y-76645947D01*
X95671685Y-76693566D01*
X95766923Y-76741185D01*
X95862161Y-76836423D01*
X95909780Y-76979280D01*
X95909780Y-77217376D01*
X95005019Y-76264995D02*
X94957400Y-76217376D01*
X94909780Y-76122138D01*
X94909780Y-75884042D01*
X94957400Y-75788804D01*
X95005019Y-75741185D01*
X95100257Y-75693566D01*
X95195495Y-75693566D01*
X95338352Y-75741185D01*
X95909780Y-76312614D01*
X95909780Y-75693566D01*
X94909780Y-75074519D02*
X94909780Y-74979280D01*
X94957400Y-74884042D01*
X95005019Y-74836423D01*
X95100257Y-74788804D01*
X95290733Y-74741185D01*
X95528828Y-74741185D01*
X95719304Y-74788804D01*
X95814542Y-74836423D01*
X95862161Y-74884042D01*
X95909780Y-74979280D01*
X95909780Y-75074519D01*
X95862161Y-75169757D01*
X95814542Y-75217376D01*
X95719304Y-75264995D01*
X95528828Y-75312614D01*
X95290733Y-75312614D01*
X95100257Y-75264995D01*
X95005019Y-75217376D01*
X94957400Y-75169757D01*
X94909780Y-75074519D01*
X95909780Y-73788804D02*
X95909780Y-74360233D01*
X95909780Y-74074519D02*
X94909780Y-74074519D01*
X95052638Y-74169757D01*
X95147876Y-74264995D01*
X95195495Y-74360233D01*
%TO.C,J104*%
X103338380Y-86921814D02*
X104052666Y-86921814D01*
X104195523Y-86969433D01*
X104290761Y-87064671D01*
X104338380Y-87207528D01*
X104338380Y-87302766D01*
X104338380Y-85921814D02*
X104338380Y-86493242D01*
X104338380Y-86207528D02*
X103338380Y-86207528D01*
X103481238Y-86302766D01*
X103576476Y-86398004D01*
X103624095Y-86493242D01*
X103338380Y-85302766D02*
X103338380Y-85207528D01*
X103386000Y-85112290D01*
X103433619Y-85064671D01*
X103528857Y-85017052D01*
X103719333Y-84969433D01*
X103957428Y-84969433D01*
X104147904Y-85017052D01*
X104243142Y-85064671D01*
X104290761Y-85112290D01*
X104338380Y-85207528D01*
X104338380Y-85302766D01*
X104290761Y-85398004D01*
X104243142Y-85445623D01*
X104147904Y-85493242D01*
X103957428Y-85540861D01*
X103719333Y-85540861D01*
X103528857Y-85493242D01*
X103433619Y-85445623D01*
X103386000Y-85398004D01*
X103338380Y-85302766D01*
X103671714Y-84112290D02*
X104338380Y-84112290D01*
X103290761Y-84350385D02*
X104005047Y-84588480D01*
X104005047Y-83969433D01*
%TO.C,J101*%
X83043780Y-87023414D02*
X83758066Y-87023414D01*
X83900923Y-87071033D01*
X83996161Y-87166271D01*
X84043780Y-87309128D01*
X84043780Y-87404366D01*
X84043780Y-86023414D02*
X84043780Y-86594842D01*
X84043780Y-86309128D02*
X83043780Y-86309128D01*
X83186638Y-86404366D01*
X83281876Y-86499604D01*
X83329495Y-86594842D01*
X83043780Y-85404366D02*
X83043780Y-85309128D01*
X83091400Y-85213890D01*
X83139019Y-85166271D01*
X83234257Y-85118652D01*
X83424733Y-85071033D01*
X83662828Y-85071033D01*
X83853304Y-85118652D01*
X83948542Y-85166271D01*
X83996161Y-85213890D01*
X84043780Y-85309128D01*
X84043780Y-85404366D01*
X83996161Y-85499604D01*
X83948542Y-85547223D01*
X83853304Y-85594842D01*
X83662828Y-85642461D01*
X83424733Y-85642461D01*
X83234257Y-85594842D01*
X83139019Y-85547223D01*
X83091400Y-85499604D01*
X83043780Y-85404366D01*
X84043780Y-84118652D02*
X84043780Y-84690080D01*
X84043780Y-84404366D02*
X83043780Y-84404366D01*
X83186638Y-84499604D01*
X83281876Y-84594842D01*
X83329495Y-84690080D01*
%TO.C,SW101*%
X119367585Y-89939761D02*
X119510442Y-89987380D01*
X119748538Y-89987380D01*
X119843776Y-89939761D01*
X119891395Y-89892142D01*
X119939014Y-89796904D01*
X119939014Y-89701666D01*
X119891395Y-89606428D01*
X119843776Y-89558809D01*
X119748538Y-89511190D01*
X119558061Y-89463571D01*
X119462823Y-89415952D01*
X119415204Y-89368333D01*
X119367585Y-89273095D01*
X119367585Y-89177857D01*
X119415204Y-89082619D01*
X119462823Y-89035000D01*
X119558061Y-88987380D01*
X119796157Y-88987380D01*
X119939014Y-89035000D01*
X120272347Y-88987380D02*
X120510442Y-89987380D01*
X120700919Y-89273095D01*
X120891395Y-89987380D01*
X121129490Y-88987380D01*
X122034252Y-89987380D02*
X121462823Y-89987380D01*
X121748538Y-89987380D02*
X121748538Y-88987380D01*
X121653300Y-89130238D01*
X121558061Y-89225476D01*
X121462823Y-89273095D01*
X122653300Y-88987380D02*
X122748538Y-88987380D01*
X122843776Y-89035000D01*
X122891395Y-89082619D01*
X122939014Y-89177857D01*
X122986633Y-89368333D01*
X122986633Y-89606428D01*
X122939014Y-89796904D01*
X122891395Y-89892142D01*
X122843776Y-89939761D01*
X122748538Y-89987380D01*
X122653300Y-89987380D01*
X122558061Y-89939761D01*
X122510442Y-89892142D01*
X122462823Y-89796904D01*
X122415204Y-89606428D01*
X122415204Y-89368333D01*
X122462823Y-89177857D01*
X122510442Y-89082619D01*
X122558061Y-89035000D01*
X122653300Y-88987380D01*
X123939014Y-89987380D02*
X123367585Y-89987380D01*
X123653300Y-89987380D02*
X123653300Y-88987380D01*
X123558061Y-89130238D01*
X123462823Y-89225476D01*
X123367585Y-89273095D01*
%TO.C,SW103*%
X100304885Y-119286921D02*
X100447742Y-119334540D01*
X100685838Y-119334540D01*
X100781076Y-119286921D01*
X100828695Y-119239302D01*
X100876314Y-119144064D01*
X100876314Y-119048826D01*
X100828695Y-118953588D01*
X100781076Y-118905969D01*
X100685838Y-118858350D01*
X100495361Y-118810731D01*
X100400123Y-118763112D01*
X100352504Y-118715493D01*
X100304885Y-118620255D01*
X100304885Y-118525017D01*
X100352504Y-118429779D01*
X100400123Y-118382160D01*
X100495361Y-118334540D01*
X100733457Y-118334540D01*
X100876314Y-118382160D01*
X101209647Y-118334540D02*
X101447742Y-119334540D01*
X101638219Y-118620255D01*
X101828695Y-119334540D01*
X102066790Y-118334540D01*
X102971552Y-119334540D02*
X102400123Y-119334540D01*
X102685838Y-119334540D02*
X102685838Y-118334540D01*
X102590600Y-118477398D01*
X102495361Y-118572636D01*
X102400123Y-118620255D01*
X103590600Y-118334540D02*
X103685838Y-118334540D01*
X103781076Y-118382160D01*
X103828695Y-118429779D01*
X103876314Y-118525017D01*
X103923933Y-118715493D01*
X103923933Y-118953588D01*
X103876314Y-119144064D01*
X103828695Y-119239302D01*
X103781076Y-119286921D01*
X103685838Y-119334540D01*
X103590600Y-119334540D01*
X103495361Y-119286921D01*
X103447742Y-119239302D01*
X103400123Y-119144064D01*
X103352504Y-118953588D01*
X103352504Y-118715493D01*
X103400123Y-118525017D01*
X103447742Y-118429779D01*
X103495361Y-118382160D01*
X103590600Y-118334540D01*
X104257266Y-118334540D02*
X104876314Y-118334540D01*
X104542980Y-118715493D01*
X104685838Y-118715493D01*
X104781076Y-118763112D01*
X104828695Y-118810731D01*
X104876314Y-118905969D01*
X104876314Y-119144064D01*
X104828695Y-119239302D01*
X104781076Y-119286921D01*
X104685838Y-119334540D01*
X104400123Y-119334540D01*
X104304885Y-119286921D01*
X104257266Y-119239302D01*
%TO.C,SW102*%
X82519805Y-110805861D02*
X82662662Y-110853480D01*
X82900758Y-110853480D01*
X82995996Y-110805861D01*
X83043615Y-110758242D01*
X83091234Y-110663004D01*
X83091234Y-110567766D01*
X83043615Y-110472528D01*
X82995996Y-110424909D01*
X82900758Y-110377290D01*
X82710281Y-110329671D01*
X82615043Y-110282052D01*
X82567424Y-110234433D01*
X82519805Y-110139195D01*
X82519805Y-110043957D01*
X82567424Y-109948719D01*
X82615043Y-109901100D01*
X82710281Y-109853480D01*
X82948377Y-109853480D01*
X83091234Y-109901100D01*
X83424567Y-109853480D02*
X83662662Y-110853480D01*
X83853139Y-110139195D01*
X84043615Y-110853480D01*
X84281710Y-109853480D01*
X85186472Y-110853480D02*
X84615043Y-110853480D01*
X84900758Y-110853480D02*
X84900758Y-109853480D01*
X84805520Y-109996338D01*
X84710281Y-110091576D01*
X84615043Y-110139195D01*
X85805520Y-109853480D02*
X85900758Y-109853480D01*
X85995996Y-109901100D01*
X86043615Y-109948719D01*
X86091234Y-110043957D01*
X86138853Y-110234433D01*
X86138853Y-110472528D01*
X86091234Y-110663004D01*
X86043615Y-110758242D01*
X85995996Y-110805861D01*
X85900758Y-110853480D01*
X85805520Y-110853480D01*
X85710281Y-110805861D01*
X85662662Y-110758242D01*
X85615043Y-110663004D01*
X85567424Y-110472528D01*
X85567424Y-110234433D01*
X85615043Y-110043957D01*
X85662662Y-109948719D01*
X85710281Y-109901100D01*
X85805520Y-109853480D01*
X86519805Y-109948719D02*
X86567424Y-109901100D01*
X86662662Y-109853480D01*
X86900758Y-109853480D01*
X86995996Y-109901100D01*
X87043615Y-109948719D01*
X87091234Y-110043957D01*
X87091234Y-110139195D01*
X87043615Y-110282052D01*
X86472186Y-110853480D01*
X87091234Y-110853480D01*
%TO.C,C207*%
X106376742Y-80049547D02*
X106424361Y-80097166D01*
X106471980Y-80240023D01*
X106471980Y-80335261D01*
X106424361Y-80478119D01*
X106329123Y-80573357D01*
X106233885Y-80620976D01*
X106043409Y-80668595D01*
X105900552Y-80668595D01*
X105710076Y-80620976D01*
X105614838Y-80573357D01*
X105519600Y-80478119D01*
X105471980Y-80335261D01*
X105471980Y-80240023D01*
X105519600Y-80097166D01*
X105567219Y-80049547D01*
X105567219Y-79668595D02*
X105519600Y-79620976D01*
X105471980Y-79525738D01*
X105471980Y-79287642D01*
X105519600Y-79192404D01*
X105567219Y-79144785D01*
X105662457Y-79097166D01*
X105757695Y-79097166D01*
X105900552Y-79144785D01*
X106471980Y-79716214D01*
X106471980Y-79097166D01*
X105471980Y-78478119D02*
X105471980Y-78382880D01*
X105519600Y-78287642D01*
X105567219Y-78240023D01*
X105662457Y-78192404D01*
X105852933Y-78144785D01*
X106091028Y-78144785D01*
X106281504Y-78192404D01*
X106376742Y-78240023D01*
X106424361Y-78287642D01*
X106471980Y-78382880D01*
X106471980Y-78478119D01*
X106424361Y-78573357D01*
X106376742Y-78620976D01*
X106281504Y-78668595D01*
X106091028Y-78716214D01*
X105852933Y-78716214D01*
X105662457Y-78668595D01*
X105567219Y-78620976D01*
X105519600Y-78573357D01*
X105471980Y-78478119D01*
X105471980Y-77811452D02*
X105471980Y-77144785D01*
X106471980Y-77573357D01*
%TO.C,J201*%
X106613485Y-60285380D02*
X106613485Y-60999666D01*
X106565866Y-61142523D01*
X106470628Y-61237761D01*
X106327771Y-61285380D01*
X106232533Y-61285380D01*
X107042057Y-60380619D02*
X107089676Y-60333000D01*
X107184914Y-60285380D01*
X107423009Y-60285380D01*
X107518247Y-60333000D01*
X107565866Y-60380619D01*
X107613485Y-60475857D01*
X107613485Y-60571095D01*
X107565866Y-60713952D01*
X106994438Y-61285380D01*
X107613485Y-61285380D01*
X108232533Y-60285380D02*
X108327771Y-60285380D01*
X108423009Y-60333000D01*
X108470628Y-60380619D01*
X108518247Y-60475857D01*
X108565866Y-60666333D01*
X108565866Y-60904428D01*
X108518247Y-61094904D01*
X108470628Y-61190142D01*
X108423009Y-61237761D01*
X108327771Y-61285380D01*
X108232533Y-61285380D01*
X108137295Y-61237761D01*
X108089676Y-61190142D01*
X108042057Y-61094904D01*
X107994438Y-60904428D01*
X107994438Y-60666333D01*
X108042057Y-60475857D01*
X108089676Y-60380619D01*
X108137295Y-60333000D01*
X108232533Y-60285380D01*
X109518247Y-61285380D02*
X108946819Y-61285380D01*
X109232533Y-61285380D02*
X109232533Y-60285380D01*
X109137295Y-60428238D01*
X109042057Y-60523476D01*
X108946819Y-60571095D01*
%TO.C,C205*%
X93473542Y-80481347D02*
X93521161Y-80528966D01*
X93568780Y-80671823D01*
X93568780Y-80767061D01*
X93521161Y-80909919D01*
X93425923Y-81005157D01*
X93330685Y-81052776D01*
X93140209Y-81100395D01*
X92997352Y-81100395D01*
X92806876Y-81052776D01*
X92711638Y-81005157D01*
X92616400Y-80909919D01*
X92568780Y-80767061D01*
X92568780Y-80671823D01*
X92616400Y-80528966D01*
X92664019Y-80481347D01*
X92664019Y-80100395D02*
X92616400Y-80052776D01*
X92568780Y-79957538D01*
X92568780Y-79719442D01*
X92616400Y-79624204D01*
X92664019Y-79576585D01*
X92759257Y-79528966D01*
X92854495Y-79528966D01*
X92997352Y-79576585D01*
X93568780Y-80148014D01*
X93568780Y-79528966D01*
X92568780Y-78909919D02*
X92568780Y-78814680D01*
X92616400Y-78719442D01*
X92664019Y-78671823D01*
X92759257Y-78624204D01*
X92949733Y-78576585D01*
X93187828Y-78576585D01*
X93378304Y-78624204D01*
X93473542Y-78671823D01*
X93521161Y-78719442D01*
X93568780Y-78814680D01*
X93568780Y-78909919D01*
X93521161Y-79005157D01*
X93473542Y-79052776D01*
X93378304Y-79100395D01*
X93187828Y-79148014D01*
X92949733Y-79148014D01*
X92759257Y-79100395D01*
X92664019Y-79052776D01*
X92616400Y-79005157D01*
X92568780Y-78909919D01*
X92568780Y-77671823D02*
X92568780Y-78148014D01*
X93044971Y-78195633D01*
X92997352Y-78148014D01*
X92949733Y-78052776D01*
X92949733Y-77814680D01*
X92997352Y-77719442D01*
X93044971Y-77671823D01*
X93140209Y-77624204D01*
X93378304Y-77624204D01*
X93473542Y-77671823D01*
X93521161Y-77719442D01*
X93568780Y-77814680D01*
X93568780Y-78052776D01*
X93521161Y-78148014D01*
X93473542Y-78195633D01*
%TO.C,R202*%
X101518980Y-80049547D02*
X101042790Y-80382880D01*
X101518980Y-80620976D02*
X100518980Y-80620976D01*
X100518980Y-80240023D01*
X100566600Y-80144785D01*
X100614219Y-80097166D01*
X100709457Y-80049547D01*
X100852314Y-80049547D01*
X100947552Y-80097166D01*
X100995171Y-80144785D01*
X101042790Y-80240023D01*
X101042790Y-80620976D01*
X100614219Y-79668595D02*
X100566600Y-79620976D01*
X100518980Y-79525738D01*
X100518980Y-79287642D01*
X100566600Y-79192404D01*
X100614219Y-79144785D01*
X100709457Y-79097166D01*
X100804695Y-79097166D01*
X100947552Y-79144785D01*
X101518980Y-79716214D01*
X101518980Y-79097166D01*
X100518980Y-78478119D02*
X100518980Y-78382880D01*
X100566600Y-78287642D01*
X100614219Y-78240023D01*
X100709457Y-78192404D01*
X100899933Y-78144785D01*
X101138028Y-78144785D01*
X101328504Y-78192404D01*
X101423742Y-78240023D01*
X101471361Y-78287642D01*
X101518980Y-78382880D01*
X101518980Y-78478119D01*
X101471361Y-78573357D01*
X101423742Y-78620976D01*
X101328504Y-78668595D01*
X101138028Y-78716214D01*
X100899933Y-78716214D01*
X100709457Y-78668595D01*
X100614219Y-78620976D01*
X100566600Y-78573357D01*
X100518980Y-78478119D01*
X100614219Y-77763833D02*
X100566600Y-77716214D01*
X100518980Y-77620976D01*
X100518980Y-77382880D01*
X100566600Y-77287642D01*
X100614219Y-77240023D01*
X100709457Y-77192404D01*
X100804695Y-77192404D01*
X100947552Y-77240023D01*
X101518980Y-77811452D01*
X101518980Y-77192404D01*
%TO.C,C204*%
X89561942Y-80074947D02*
X89609561Y-80122566D01*
X89657180Y-80265423D01*
X89657180Y-80360661D01*
X89609561Y-80503519D01*
X89514323Y-80598757D01*
X89419085Y-80646376D01*
X89228609Y-80693995D01*
X89085752Y-80693995D01*
X88895276Y-80646376D01*
X88800038Y-80598757D01*
X88704800Y-80503519D01*
X88657180Y-80360661D01*
X88657180Y-80265423D01*
X88704800Y-80122566D01*
X88752419Y-80074947D01*
X88752419Y-79693995D02*
X88704800Y-79646376D01*
X88657180Y-79551138D01*
X88657180Y-79313042D01*
X88704800Y-79217804D01*
X88752419Y-79170185D01*
X88847657Y-79122566D01*
X88942895Y-79122566D01*
X89085752Y-79170185D01*
X89657180Y-79741614D01*
X89657180Y-79122566D01*
X88657180Y-78503519D02*
X88657180Y-78408280D01*
X88704800Y-78313042D01*
X88752419Y-78265423D01*
X88847657Y-78217804D01*
X89038133Y-78170185D01*
X89276228Y-78170185D01*
X89466704Y-78217804D01*
X89561942Y-78265423D01*
X89609561Y-78313042D01*
X89657180Y-78408280D01*
X89657180Y-78503519D01*
X89609561Y-78598757D01*
X89561942Y-78646376D01*
X89466704Y-78693995D01*
X89276228Y-78741614D01*
X89038133Y-78741614D01*
X88847657Y-78693995D01*
X88752419Y-78646376D01*
X88704800Y-78598757D01*
X88657180Y-78503519D01*
X88990514Y-77313042D02*
X89657180Y-77313042D01*
X88609561Y-77551138D02*
X89323847Y-77789233D01*
X89323847Y-77170185D01*
%TO.C,J202*%
X78267085Y-60247280D02*
X78267085Y-60961566D01*
X78219466Y-61104423D01*
X78124228Y-61199661D01*
X77981371Y-61247280D01*
X77886133Y-61247280D01*
X78695657Y-60342519D02*
X78743276Y-60294900D01*
X78838514Y-60247280D01*
X79076609Y-60247280D01*
X79171847Y-60294900D01*
X79219466Y-60342519D01*
X79267085Y-60437757D01*
X79267085Y-60532995D01*
X79219466Y-60675852D01*
X78648038Y-61247280D01*
X79267085Y-61247280D01*
X79886133Y-60247280D02*
X79981371Y-60247280D01*
X80076609Y-60294900D01*
X80124228Y-60342519D01*
X80171847Y-60437757D01*
X80219466Y-60628233D01*
X80219466Y-60866328D01*
X80171847Y-61056804D01*
X80124228Y-61152042D01*
X80076609Y-61199661D01*
X79981371Y-61247280D01*
X79886133Y-61247280D01*
X79790895Y-61199661D01*
X79743276Y-61152042D01*
X79695657Y-61056804D01*
X79648038Y-60866328D01*
X79648038Y-60628233D01*
X79695657Y-60437757D01*
X79743276Y-60342519D01*
X79790895Y-60294900D01*
X79886133Y-60247280D01*
X80600419Y-60342519D02*
X80648038Y-60294900D01*
X80743276Y-60247280D01*
X80981371Y-60247280D01*
X81076609Y-60294900D01*
X81124228Y-60342519D01*
X81171847Y-60437757D01*
X81171847Y-60532995D01*
X81124228Y-60675852D01*
X80552800Y-61247280D01*
X81171847Y-61247280D01*
%TO.C,C206*%
X103836742Y-80049547D02*
X103884361Y-80097166D01*
X103931980Y-80240023D01*
X103931980Y-80335261D01*
X103884361Y-80478119D01*
X103789123Y-80573357D01*
X103693885Y-80620976D01*
X103503409Y-80668595D01*
X103360552Y-80668595D01*
X103170076Y-80620976D01*
X103074838Y-80573357D01*
X102979600Y-80478119D01*
X102931980Y-80335261D01*
X102931980Y-80240023D01*
X102979600Y-80097166D01*
X103027219Y-80049547D01*
X103027219Y-79668595D02*
X102979600Y-79620976D01*
X102931980Y-79525738D01*
X102931980Y-79287642D01*
X102979600Y-79192404D01*
X103027219Y-79144785D01*
X103122457Y-79097166D01*
X103217695Y-79097166D01*
X103360552Y-79144785D01*
X103931980Y-79716214D01*
X103931980Y-79097166D01*
X102931980Y-78478119D02*
X102931980Y-78382880D01*
X102979600Y-78287642D01*
X103027219Y-78240023D01*
X103122457Y-78192404D01*
X103312933Y-78144785D01*
X103551028Y-78144785D01*
X103741504Y-78192404D01*
X103836742Y-78240023D01*
X103884361Y-78287642D01*
X103931980Y-78382880D01*
X103931980Y-78478119D01*
X103884361Y-78573357D01*
X103836742Y-78620976D01*
X103741504Y-78668595D01*
X103551028Y-78716214D01*
X103312933Y-78716214D01*
X103122457Y-78668595D01*
X103027219Y-78620976D01*
X102979600Y-78573357D01*
X102931980Y-78478119D01*
X102931980Y-77287642D02*
X102931980Y-77478119D01*
X102979600Y-77573357D01*
X103027219Y-77620976D01*
X103170076Y-77716214D01*
X103360552Y-77763833D01*
X103741504Y-77763833D01*
X103836742Y-77716214D01*
X103884361Y-77668595D01*
X103931980Y-77573357D01*
X103931980Y-77382880D01*
X103884361Y-77287642D01*
X103836742Y-77240023D01*
X103741504Y-77192404D01*
X103503409Y-77192404D01*
X103408171Y-77240023D01*
X103360552Y-77287642D01*
X103312933Y-77382880D01*
X103312933Y-77573357D01*
X103360552Y-77668595D01*
X103408171Y-77716214D01*
X103503409Y-77763833D01*
%TO.C,C202*%
X83897742Y-80049547D02*
X83945361Y-80097166D01*
X83992980Y-80240023D01*
X83992980Y-80335261D01*
X83945361Y-80478119D01*
X83850123Y-80573357D01*
X83754885Y-80620976D01*
X83564409Y-80668595D01*
X83421552Y-80668595D01*
X83231076Y-80620976D01*
X83135838Y-80573357D01*
X83040600Y-80478119D01*
X82992980Y-80335261D01*
X82992980Y-80240023D01*
X83040600Y-80097166D01*
X83088219Y-80049547D01*
X83088219Y-79668595D02*
X83040600Y-79620976D01*
X82992980Y-79525738D01*
X82992980Y-79287642D01*
X83040600Y-79192404D01*
X83088219Y-79144785D01*
X83183457Y-79097166D01*
X83278695Y-79097166D01*
X83421552Y-79144785D01*
X83992980Y-79716214D01*
X83992980Y-79097166D01*
X82992980Y-78478119D02*
X82992980Y-78382880D01*
X83040600Y-78287642D01*
X83088219Y-78240023D01*
X83183457Y-78192404D01*
X83373933Y-78144785D01*
X83612028Y-78144785D01*
X83802504Y-78192404D01*
X83897742Y-78240023D01*
X83945361Y-78287642D01*
X83992980Y-78382880D01*
X83992980Y-78478119D01*
X83945361Y-78573357D01*
X83897742Y-78620976D01*
X83802504Y-78668595D01*
X83612028Y-78716214D01*
X83373933Y-78716214D01*
X83183457Y-78668595D01*
X83088219Y-78620976D01*
X83040600Y-78573357D01*
X82992980Y-78478119D01*
X83088219Y-77763833D02*
X83040600Y-77716214D01*
X82992980Y-77620976D01*
X82992980Y-77382880D01*
X83040600Y-77287642D01*
X83088219Y-77240023D01*
X83183457Y-77192404D01*
X83278695Y-77192404D01*
X83421552Y-77240023D01*
X83992980Y-77811452D01*
X83992980Y-77192404D01*
%TO.C,J203*%
X92516485Y-69956680D02*
X92516485Y-70670966D01*
X92468866Y-70813823D01*
X92373628Y-70909061D01*
X92230771Y-70956680D01*
X92135533Y-70956680D01*
X92945057Y-70051919D02*
X92992676Y-70004300D01*
X93087914Y-69956680D01*
X93326009Y-69956680D01*
X93421247Y-70004300D01*
X93468866Y-70051919D01*
X93516485Y-70147157D01*
X93516485Y-70242395D01*
X93468866Y-70385252D01*
X92897438Y-70956680D01*
X93516485Y-70956680D01*
X94135533Y-69956680D02*
X94230771Y-69956680D01*
X94326009Y-70004300D01*
X94373628Y-70051919D01*
X94421247Y-70147157D01*
X94468866Y-70337633D01*
X94468866Y-70575728D01*
X94421247Y-70766204D01*
X94373628Y-70861442D01*
X94326009Y-70909061D01*
X94230771Y-70956680D01*
X94135533Y-70956680D01*
X94040295Y-70909061D01*
X93992676Y-70861442D01*
X93945057Y-70766204D01*
X93897438Y-70575728D01*
X93897438Y-70337633D01*
X93945057Y-70147157D01*
X93992676Y-70051919D01*
X94040295Y-70004300D01*
X94135533Y-69956680D01*
X94802200Y-69956680D02*
X95421247Y-69956680D01*
X95087914Y-70337633D01*
X95230771Y-70337633D01*
X95326009Y-70385252D01*
X95373628Y-70432871D01*
X95421247Y-70528109D01*
X95421247Y-70766204D01*
X95373628Y-70861442D01*
X95326009Y-70909061D01*
X95230771Y-70956680D01*
X94945057Y-70956680D01*
X94849819Y-70909061D01*
X94802200Y-70861442D01*
%TO.C,R201*%
X95600780Y-80405147D02*
X95124590Y-80738480D01*
X95600780Y-80976576D02*
X94600780Y-80976576D01*
X94600780Y-80595623D01*
X94648400Y-80500385D01*
X94696019Y-80452766D01*
X94791257Y-80405147D01*
X94934114Y-80405147D01*
X95029352Y-80452766D01*
X95076971Y-80500385D01*
X95124590Y-80595623D01*
X95124590Y-80976576D01*
X94696019Y-80024195D02*
X94648400Y-79976576D01*
X94600780Y-79881338D01*
X94600780Y-79643242D01*
X94648400Y-79548004D01*
X94696019Y-79500385D01*
X94791257Y-79452766D01*
X94886495Y-79452766D01*
X95029352Y-79500385D01*
X95600780Y-80071814D01*
X95600780Y-79452766D01*
X94600780Y-78833719D02*
X94600780Y-78738480D01*
X94648400Y-78643242D01*
X94696019Y-78595623D01*
X94791257Y-78548004D01*
X94981733Y-78500385D01*
X95219828Y-78500385D01*
X95410304Y-78548004D01*
X95505542Y-78595623D01*
X95553161Y-78643242D01*
X95600780Y-78738480D01*
X95600780Y-78833719D01*
X95553161Y-78928957D01*
X95505542Y-78976576D01*
X95410304Y-79024195D01*
X95219828Y-79071814D01*
X94981733Y-79071814D01*
X94791257Y-79024195D01*
X94696019Y-78976576D01*
X94648400Y-78928957D01*
X94600780Y-78833719D01*
X95600780Y-77548004D02*
X95600780Y-78119433D01*
X95600780Y-77833719D02*
X94600780Y-77833719D01*
X94743638Y-77928957D01*
X94838876Y-78024195D01*
X94886495Y-78119433D01*
%TO.C,C203*%
X87301342Y-80049547D02*
X87348961Y-80097166D01*
X87396580Y-80240023D01*
X87396580Y-80335261D01*
X87348961Y-80478119D01*
X87253723Y-80573357D01*
X87158485Y-80620976D01*
X86968009Y-80668595D01*
X86825152Y-80668595D01*
X86634676Y-80620976D01*
X86539438Y-80573357D01*
X86444200Y-80478119D01*
X86396580Y-80335261D01*
X86396580Y-80240023D01*
X86444200Y-80097166D01*
X86491819Y-80049547D01*
X86491819Y-79668595D02*
X86444200Y-79620976D01*
X86396580Y-79525738D01*
X86396580Y-79287642D01*
X86444200Y-79192404D01*
X86491819Y-79144785D01*
X86587057Y-79097166D01*
X86682295Y-79097166D01*
X86825152Y-79144785D01*
X87396580Y-79716214D01*
X87396580Y-79097166D01*
X86396580Y-78478119D02*
X86396580Y-78382880D01*
X86444200Y-78287642D01*
X86491819Y-78240023D01*
X86587057Y-78192404D01*
X86777533Y-78144785D01*
X87015628Y-78144785D01*
X87206104Y-78192404D01*
X87301342Y-78240023D01*
X87348961Y-78287642D01*
X87396580Y-78382880D01*
X87396580Y-78478119D01*
X87348961Y-78573357D01*
X87301342Y-78620976D01*
X87206104Y-78668595D01*
X87015628Y-78716214D01*
X86777533Y-78716214D01*
X86587057Y-78668595D01*
X86491819Y-78620976D01*
X86444200Y-78573357D01*
X86396580Y-78478119D01*
X86396580Y-77811452D02*
X86396580Y-77192404D01*
X86777533Y-77525738D01*
X86777533Y-77382880D01*
X86825152Y-77287642D01*
X86872771Y-77240023D01*
X86968009Y-77192404D01*
X87206104Y-77192404D01*
X87301342Y-77240023D01*
X87348961Y-77287642D01*
X87396580Y-77382880D01*
X87396580Y-77668595D01*
X87348961Y-77763833D01*
X87301342Y-77811452D01*
%TO.C,C201*%
X80341742Y-80049547D02*
X80389361Y-80097166D01*
X80436980Y-80240023D01*
X80436980Y-80335261D01*
X80389361Y-80478119D01*
X80294123Y-80573357D01*
X80198885Y-80620976D01*
X80008409Y-80668595D01*
X79865552Y-80668595D01*
X79675076Y-80620976D01*
X79579838Y-80573357D01*
X79484600Y-80478119D01*
X79436980Y-80335261D01*
X79436980Y-80240023D01*
X79484600Y-80097166D01*
X79532219Y-80049547D01*
X79532219Y-79668595D02*
X79484600Y-79620976D01*
X79436980Y-79525738D01*
X79436980Y-79287642D01*
X79484600Y-79192404D01*
X79532219Y-79144785D01*
X79627457Y-79097166D01*
X79722695Y-79097166D01*
X79865552Y-79144785D01*
X80436980Y-79716214D01*
X80436980Y-79097166D01*
X79436980Y-78478119D02*
X79436980Y-78382880D01*
X79484600Y-78287642D01*
X79532219Y-78240023D01*
X79627457Y-78192404D01*
X79817933Y-78144785D01*
X80056028Y-78144785D01*
X80246504Y-78192404D01*
X80341742Y-78240023D01*
X80389361Y-78287642D01*
X80436980Y-78382880D01*
X80436980Y-78478119D01*
X80389361Y-78573357D01*
X80341742Y-78620976D01*
X80246504Y-78668595D01*
X80056028Y-78716214D01*
X79817933Y-78716214D01*
X79627457Y-78668595D01*
X79532219Y-78620976D01*
X79484600Y-78573357D01*
X79436980Y-78478119D01*
X80436980Y-77192404D02*
X80436980Y-77763833D01*
X80436980Y-77478119D02*
X79436980Y-77478119D01*
X79579838Y-77573357D01*
X79675076Y-77668595D01*
X79722695Y-77763833D01*
%TD*%
M02*
