%TF.GenerationSoftware,KiCad,Pcbnew,(5.1.8)-1*%
%TF.CreationDate,2021-01-01T19:26:51+01:00*%
%TF.ProjectId,Panel,50616e65-6c2e-46b6-9963-61645f706362,2*%
%TF.SameCoordinates,Original*%
%TF.FileFunction,Paste,Bot*%
%TF.FilePolarity,Positive*%
%FSLAX46Y46*%
G04 Gerber Fmt 4.6, Leading zero omitted, Abs format (unit mm)*
G04 Created by KiCad (PCBNEW (5.1.8)-1) date 2021-01-01 19:26:51*
%MOMM*%
%LPD*%
G01*
G04 APERTURE LIST*
%ADD10R,0.800000X1.900000*%
%ADD11R,3.400000X1.300000*%
G04 APERTURE END LIST*
D10*
%TO.C,U101*%
X82346800Y-95429200D03*
X83296800Y-92429200D03*
X81396800Y-92429200D03*
%TD*%
%TO.C,R103*%
G36*
G01*
X109607400Y-88094399D02*
X109607400Y-88994401D01*
G75*
G02*
X109357401Y-89244400I-249999J0D01*
G01*
X108657399Y-89244400D01*
G75*
G02*
X108407400Y-88994401I0J249999D01*
G01*
X108407400Y-88094399D01*
G75*
G02*
X108657399Y-87844400I249999J0D01*
G01*
X109357401Y-87844400D01*
G75*
G02*
X109607400Y-88094399I0J-249999D01*
G01*
G37*
G36*
G01*
X111607400Y-88094399D02*
X111607400Y-88994401D01*
G75*
G02*
X111357401Y-89244400I-249999J0D01*
G01*
X110657399Y-89244400D01*
G75*
G02*
X110407400Y-88994401I0J249999D01*
G01*
X110407400Y-88094399D01*
G75*
G02*
X110657399Y-87844400I249999J0D01*
G01*
X111357401Y-87844400D01*
G75*
G02*
X111607400Y-88094399I0J-249999D01*
G01*
G37*
%TD*%
%TO.C,R102*%
G36*
G01*
X105762600Y-88094399D02*
X105762600Y-88994401D01*
G75*
G02*
X105512601Y-89244400I-249999J0D01*
G01*
X104812599Y-89244400D01*
G75*
G02*
X104562600Y-88994401I0J249999D01*
G01*
X104562600Y-88094399D01*
G75*
G02*
X104812599Y-87844400I249999J0D01*
G01*
X105512601Y-87844400D01*
G75*
G02*
X105762600Y-88094399I0J-249999D01*
G01*
G37*
G36*
G01*
X107762600Y-88094399D02*
X107762600Y-88994401D01*
G75*
G02*
X107512601Y-89244400I-249999J0D01*
G01*
X106812599Y-89244400D01*
G75*
G02*
X106562600Y-88994401I0J249999D01*
G01*
X106562600Y-88094399D01*
G75*
G02*
X106812599Y-87844400I249999J0D01*
G01*
X107512601Y-87844400D01*
G75*
G02*
X107762600Y-88094399I0J-249999D01*
G01*
G37*
%TD*%
%TO.C,C101*%
G36*
G01*
X79189600Y-95866800D02*
X78239600Y-95866800D01*
G75*
G02*
X77989600Y-95616800I0J250000D01*
G01*
X77989600Y-94941800D01*
G75*
G02*
X78239600Y-94691800I250000J0D01*
G01*
X79189600Y-94691800D01*
G75*
G02*
X79439600Y-94941800I0J-250000D01*
G01*
X79439600Y-95616800D01*
G75*
G02*
X79189600Y-95866800I-250000J0D01*
G01*
G37*
G36*
G01*
X79189600Y-97941800D02*
X78239600Y-97941800D01*
G75*
G02*
X77989600Y-97691800I0J250000D01*
G01*
X77989600Y-97016800D01*
G75*
G02*
X78239600Y-96766800I250000J0D01*
G01*
X79189600Y-96766800D01*
G75*
G02*
X79439600Y-97016800I0J-250000D01*
G01*
X79439600Y-97691800D01*
G75*
G02*
X79189600Y-97941800I-250000J0D01*
G01*
G37*
%TD*%
D11*
%TO.C,BZ101*%
X107924600Y-90798400D03*
X107924600Y-99498400D03*
%TD*%
%TO.C,R101*%
G36*
G01*
X105556000Y-103193001D02*
X105556000Y-102292999D01*
G75*
G02*
X105805999Y-102043000I249999J0D01*
G01*
X106506001Y-102043000D01*
G75*
G02*
X106756000Y-102292999I0J-249999D01*
G01*
X106756000Y-103193001D01*
G75*
G02*
X106506001Y-103443000I-249999J0D01*
G01*
X105805999Y-103443000D01*
G75*
G02*
X105556000Y-103193001I0J249999D01*
G01*
G37*
G36*
G01*
X103556000Y-103193001D02*
X103556000Y-102292999D01*
G75*
G02*
X103805999Y-102043000I249999J0D01*
G01*
X104506001Y-102043000D01*
G75*
G02*
X104756000Y-102292999I0J-249999D01*
G01*
X104756000Y-103193001D01*
G75*
G02*
X104506001Y-103443000I-249999J0D01*
G01*
X103805999Y-103443000D01*
G75*
G02*
X103556000Y-103193001I0J249999D01*
G01*
G37*
%TD*%
%TO.C,U102*%
G36*
G01*
X97097000Y-105941000D02*
X97097000Y-105641000D01*
G75*
G02*
X97247000Y-105491000I150000J0D01*
G01*
X98997000Y-105491000D01*
G75*
G02*
X99147000Y-105641000I0J-150000D01*
G01*
X99147000Y-105941000D01*
G75*
G02*
X98997000Y-106091000I-150000J0D01*
G01*
X97247000Y-106091000D01*
G75*
G02*
X97097000Y-105941000I0J150000D01*
G01*
G37*
G36*
G01*
X97097000Y-104671000D02*
X97097000Y-104371000D01*
G75*
G02*
X97247000Y-104221000I150000J0D01*
G01*
X98997000Y-104221000D01*
G75*
G02*
X99147000Y-104371000I0J-150000D01*
G01*
X99147000Y-104671000D01*
G75*
G02*
X98997000Y-104821000I-150000J0D01*
G01*
X97247000Y-104821000D01*
G75*
G02*
X97097000Y-104671000I0J150000D01*
G01*
G37*
G36*
G01*
X97097000Y-103401000D02*
X97097000Y-103101000D01*
G75*
G02*
X97247000Y-102951000I150000J0D01*
G01*
X98997000Y-102951000D01*
G75*
G02*
X99147000Y-103101000I0J-150000D01*
G01*
X99147000Y-103401000D01*
G75*
G02*
X98997000Y-103551000I-150000J0D01*
G01*
X97247000Y-103551000D01*
G75*
G02*
X97097000Y-103401000I0J150000D01*
G01*
G37*
G36*
G01*
X97097000Y-102131000D02*
X97097000Y-101831000D01*
G75*
G02*
X97247000Y-101681000I150000J0D01*
G01*
X98997000Y-101681000D01*
G75*
G02*
X99147000Y-101831000I0J-150000D01*
G01*
X99147000Y-102131000D01*
G75*
G02*
X98997000Y-102281000I-150000J0D01*
G01*
X97247000Y-102281000D01*
G75*
G02*
X97097000Y-102131000I0J150000D01*
G01*
G37*
G36*
G01*
X97097000Y-100861000D02*
X97097000Y-100561000D01*
G75*
G02*
X97247000Y-100411000I150000J0D01*
G01*
X98997000Y-100411000D01*
G75*
G02*
X99147000Y-100561000I0J-150000D01*
G01*
X99147000Y-100861000D01*
G75*
G02*
X98997000Y-101011000I-150000J0D01*
G01*
X97247000Y-101011000D01*
G75*
G02*
X97097000Y-100861000I0J150000D01*
G01*
G37*
G36*
G01*
X97097000Y-99591000D02*
X97097000Y-99291000D01*
G75*
G02*
X97247000Y-99141000I150000J0D01*
G01*
X98997000Y-99141000D01*
G75*
G02*
X99147000Y-99291000I0J-150000D01*
G01*
X99147000Y-99591000D01*
G75*
G02*
X98997000Y-99741000I-150000J0D01*
G01*
X97247000Y-99741000D01*
G75*
G02*
X97097000Y-99591000I0J150000D01*
G01*
G37*
G36*
G01*
X97097000Y-98321000D02*
X97097000Y-98021000D01*
G75*
G02*
X97247000Y-97871000I150000J0D01*
G01*
X98997000Y-97871000D01*
G75*
G02*
X99147000Y-98021000I0J-150000D01*
G01*
X99147000Y-98321000D01*
G75*
G02*
X98997000Y-98471000I-150000J0D01*
G01*
X97247000Y-98471000D01*
G75*
G02*
X97097000Y-98321000I0J150000D01*
G01*
G37*
G36*
G01*
X97097000Y-97051000D02*
X97097000Y-96751000D01*
G75*
G02*
X97247000Y-96601000I150000J0D01*
G01*
X98997000Y-96601000D01*
G75*
G02*
X99147000Y-96751000I0J-150000D01*
G01*
X99147000Y-97051000D01*
G75*
G02*
X98997000Y-97201000I-150000J0D01*
G01*
X97247000Y-97201000D01*
G75*
G02*
X97097000Y-97051000I0J150000D01*
G01*
G37*
G36*
G01*
X97097000Y-95781000D02*
X97097000Y-95481000D01*
G75*
G02*
X97247000Y-95331000I150000J0D01*
G01*
X98997000Y-95331000D01*
G75*
G02*
X99147000Y-95481000I0J-150000D01*
G01*
X99147000Y-95781000D01*
G75*
G02*
X98997000Y-95931000I-150000J0D01*
G01*
X97247000Y-95931000D01*
G75*
G02*
X97097000Y-95781000I0J150000D01*
G01*
G37*
G36*
G01*
X97097000Y-94511000D02*
X97097000Y-94211000D01*
G75*
G02*
X97247000Y-94061000I150000J0D01*
G01*
X98997000Y-94061000D01*
G75*
G02*
X99147000Y-94211000I0J-150000D01*
G01*
X99147000Y-94511000D01*
G75*
G02*
X98997000Y-94661000I-150000J0D01*
G01*
X97247000Y-94661000D01*
G75*
G02*
X97097000Y-94511000I0J150000D01*
G01*
G37*
G36*
G01*
X87797000Y-94511000D02*
X87797000Y-94211000D01*
G75*
G02*
X87947000Y-94061000I150000J0D01*
G01*
X89697000Y-94061000D01*
G75*
G02*
X89847000Y-94211000I0J-150000D01*
G01*
X89847000Y-94511000D01*
G75*
G02*
X89697000Y-94661000I-150000J0D01*
G01*
X87947000Y-94661000D01*
G75*
G02*
X87797000Y-94511000I0J150000D01*
G01*
G37*
G36*
G01*
X87797000Y-95781000D02*
X87797000Y-95481000D01*
G75*
G02*
X87947000Y-95331000I150000J0D01*
G01*
X89697000Y-95331000D01*
G75*
G02*
X89847000Y-95481000I0J-150000D01*
G01*
X89847000Y-95781000D01*
G75*
G02*
X89697000Y-95931000I-150000J0D01*
G01*
X87947000Y-95931000D01*
G75*
G02*
X87797000Y-95781000I0J150000D01*
G01*
G37*
G36*
G01*
X87797000Y-97051000D02*
X87797000Y-96751000D01*
G75*
G02*
X87947000Y-96601000I150000J0D01*
G01*
X89697000Y-96601000D01*
G75*
G02*
X89847000Y-96751000I0J-150000D01*
G01*
X89847000Y-97051000D01*
G75*
G02*
X89697000Y-97201000I-150000J0D01*
G01*
X87947000Y-97201000D01*
G75*
G02*
X87797000Y-97051000I0J150000D01*
G01*
G37*
G36*
G01*
X87797000Y-98321000D02*
X87797000Y-98021000D01*
G75*
G02*
X87947000Y-97871000I150000J0D01*
G01*
X89697000Y-97871000D01*
G75*
G02*
X89847000Y-98021000I0J-150000D01*
G01*
X89847000Y-98321000D01*
G75*
G02*
X89697000Y-98471000I-150000J0D01*
G01*
X87947000Y-98471000D01*
G75*
G02*
X87797000Y-98321000I0J150000D01*
G01*
G37*
G36*
G01*
X87797000Y-99591000D02*
X87797000Y-99291000D01*
G75*
G02*
X87947000Y-99141000I150000J0D01*
G01*
X89697000Y-99141000D01*
G75*
G02*
X89847000Y-99291000I0J-150000D01*
G01*
X89847000Y-99591000D01*
G75*
G02*
X89697000Y-99741000I-150000J0D01*
G01*
X87947000Y-99741000D01*
G75*
G02*
X87797000Y-99591000I0J150000D01*
G01*
G37*
G36*
G01*
X87797000Y-100861000D02*
X87797000Y-100561000D01*
G75*
G02*
X87947000Y-100411000I150000J0D01*
G01*
X89697000Y-100411000D01*
G75*
G02*
X89847000Y-100561000I0J-150000D01*
G01*
X89847000Y-100861000D01*
G75*
G02*
X89697000Y-101011000I-150000J0D01*
G01*
X87947000Y-101011000D01*
G75*
G02*
X87797000Y-100861000I0J150000D01*
G01*
G37*
G36*
G01*
X87797000Y-102131000D02*
X87797000Y-101831000D01*
G75*
G02*
X87947000Y-101681000I150000J0D01*
G01*
X89697000Y-101681000D01*
G75*
G02*
X89847000Y-101831000I0J-150000D01*
G01*
X89847000Y-102131000D01*
G75*
G02*
X89697000Y-102281000I-150000J0D01*
G01*
X87947000Y-102281000D01*
G75*
G02*
X87797000Y-102131000I0J150000D01*
G01*
G37*
G36*
G01*
X87797000Y-103401000D02*
X87797000Y-103101000D01*
G75*
G02*
X87947000Y-102951000I150000J0D01*
G01*
X89697000Y-102951000D01*
G75*
G02*
X89847000Y-103101000I0J-150000D01*
G01*
X89847000Y-103401000D01*
G75*
G02*
X89697000Y-103551000I-150000J0D01*
G01*
X87947000Y-103551000D01*
G75*
G02*
X87797000Y-103401000I0J150000D01*
G01*
G37*
G36*
G01*
X87797000Y-104671000D02*
X87797000Y-104371000D01*
G75*
G02*
X87947000Y-104221000I150000J0D01*
G01*
X89697000Y-104221000D01*
G75*
G02*
X89847000Y-104371000I0J-150000D01*
G01*
X89847000Y-104671000D01*
G75*
G02*
X89697000Y-104821000I-150000J0D01*
G01*
X87947000Y-104821000D01*
G75*
G02*
X87797000Y-104671000I0J150000D01*
G01*
G37*
G36*
G01*
X87797000Y-105941000D02*
X87797000Y-105641000D01*
G75*
G02*
X87947000Y-105491000I150000J0D01*
G01*
X89697000Y-105491000D01*
G75*
G02*
X89847000Y-105641000I0J-150000D01*
G01*
X89847000Y-105941000D01*
G75*
G02*
X89697000Y-106091000I-150000J0D01*
G01*
X87947000Y-106091000D01*
G75*
G02*
X87797000Y-105941000I0J150000D01*
G01*
G37*
%TD*%
%TO.C,C104*%
G36*
G01*
X92615600Y-107830600D02*
X92615600Y-108780600D01*
G75*
G02*
X92365600Y-109030600I-250000J0D01*
G01*
X91690600Y-109030600D01*
G75*
G02*
X91440600Y-108780600I0J250000D01*
G01*
X91440600Y-107830600D01*
G75*
G02*
X91690600Y-107580600I250000J0D01*
G01*
X92365600Y-107580600D01*
G75*
G02*
X92615600Y-107830600I0J-250000D01*
G01*
G37*
G36*
G01*
X94690600Y-107830600D02*
X94690600Y-108780600D01*
G75*
G02*
X94440600Y-109030600I-250000J0D01*
G01*
X93765600Y-109030600D01*
G75*
G02*
X93515600Y-108780600I0J250000D01*
G01*
X93515600Y-107830600D01*
G75*
G02*
X93765600Y-107580600I250000J0D01*
G01*
X94440600Y-107580600D01*
G75*
G02*
X94690600Y-107830600I0J-250000D01*
G01*
G37*
%TD*%
%TO.C,C103*%
G36*
G01*
X81299900Y-89720400D02*
X81299900Y-90670400D01*
G75*
G02*
X81049900Y-90920400I-250000J0D01*
G01*
X80374900Y-90920400D01*
G75*
G02*
X80124900Y-90670400I0J250000D01*
G01*
X80124900Y-89720400D01*
G75*
G02*
X80374900Y-89470400I250000J0D01*
G01*
X81049900Y-89470400D01*
G75*
G02*
X81299900Y-89720400I0J-250000D01*
G01*
G37*
G36*
G01*
X83374900Y-89720400D02*
X83374900Y-90670400D01*
G75*
G02*
X83124900Y-90920400I-250000J0D01*
G01*
X82449900Y-90920400D01*
G75*
G02*
X82199900Y-90670400I0J250000D01*
G01*
X82199900Y-89720400D01*
G75*
G02*
X82449900Y-89470400I250000J0D01*
G01*
X83124900Y-89470400D01*
G75*
G02*
X83374900Y-89720400I0J-250000D01*
G01*
G37*
%TD*%
%TO.C,C102*%
G36*
G01*
X82568200Y-98239600D02*
X82568200Y-97289600D01*
G75*
G02*
X82818200Y-97039600I250000J0D01*
G01*
X83493200Y-97039600D01*
G75*
G02*
X83743200Y-97289600I0J-250000D01*
G01*
X83743200Y-98239600D01*
G75*
G02*
X83493200Y-98489600I-250000J0D01*
G01*
X82818200Y-98489600D01*
G75*
G02*
X82568200Y-98239600I0J250000D01*
G01*
G37*
G36*
G01*
X80493200Y-98239600D02*
X80493200Y-97289600D01*
G75*
G02*
X80743200Y-97039600I250000J0D01*
G01*
X81418200Y-97039600D01*
G75*
G02*
X81668200Y-97289600I0J-250000D01*
G01*
X81668200Y-98239600D01*
G75*
G02*
X81418200Y-98489600I-250000J0D01*
G01*
X80743200Y-98489600D01*
G75*
G02*
X80493200Y-98239600I0J250000D01*
G01*
G37*
%TD*%
%TO.C,R104*%
G36*
G01*
X113811000Y-110406601D02*
X113811000Y-109506599D01*
G75*
G02*
X114060999Y-109256600I249999J0D01*
G01*
X114761001Y-109256600D01*
G75*
G02*
X115011000Y-109506599I0J-249999D01*
G01*
X115011000Y-110406601D01*
G75*
G02*
X114761001Y-110656600I-249999J0D01*
G01*
X114060999Y-110656600D01*
G75*
G02*
X113811000Y-110406601I0J249999D01*
G01*
G37*
G36*
G01*
X111811000Y-110406601D02*
X111811000Y-109506599D01*
G75*
G02*
X112060999Y-109256600I249999J0D01*
G01*
X112761001Y-109256600D01*
G75*
G02*
X113011000Y-109506599I0J-249999D01*
G01*
X113011000Y-110406601D01*
G75*
G02*
X112761001Y-110656600I-249999J0D01*
G01*
X112060999Y-110656600D01*
G75*
G02*
X111811000Y-110406601I0J249999D01*
G01*
G37*
%TD*%
%TO.C,R105*%
G36*
G01*
X113988800Y-118306001D02*
X113988800Y-117405999D01*
G75*
G02*
X114238799Y-117156000I249999J0D01*
G01*
X114938801Y-117156000D01*
G75*
G02*
X115188800Y-117405999I0J-249999D01*
G01*
X115188800Y-118306001D01*
G75*
G02*
X114938801Y-118556000I-249999J0D01*
G01*
X114238799Y-118556000D01*
G75*
G02*
X113988800Y-118306001I0J249999D01*
G01*
G37*
G36*
G01*
X111988800Y-118306001D02*
X111988800Y-117405999D01*
G75*
G02*
X112238799Y-117156000I249999J0D01*
G01*
X112938801Y-117156000D01*
G75*
G02*
X113188800Y-117405999I0J-249999D01*
G01*
X113188800Y-118306001D01*
G75*
G02*
X112938801Y-118556000I-249999J0D01*
G01*
X112238799Y-118556000D01*
G75*
G02*
X111988800Y-118306001I0J249999D01*
G01*
G37*
%TD*%
M02*
