%TF.GenerationSoftware,KiCad,Pcbnew,(5.1.9)-1*%
%TF.CreationDate,2021-02-22T21:34:01+01:00*%
%TF.ProjectId,Panel,50616e65-6c2e-46b6-9963-61645f706362,2*%
%TF.SameCoordinates,Original*%
%TF.FileFunction,Soldermask,Top*%
%TF.FilePolarity,Negative*%
%FSLAX46Y46*%
G04 Gerber Fmt 4.6, Leading zero omitted, Abs format (unit mm)*
G04 Created by KiCad (PCBNEW (5.1.9)-1) date 2021-02-22 21:34:01*
%MOMM*%
%LPD*%
G01*
G04 APERTURE LIST*
%ADD10C,1.600000*%
%ADD11C,2.200000*%
%ADD12R,1.000000X1.000000*%
%ADD13R,1.700000X1.700000*%
%ADD14O,1.700000X1.700000*%
%ADD15O,1.950000X1.700000*%
%ADD16R,2.000000X2.000000*%
%ADD17C,2.000000*%
%ADD18R,2.000000X3.200000*%
%ADD19R,1.600000X1.400000*%
%ADD20R,0.400000X2.000000*%
G04 APERTURE END LIST*
D10*
%TO.C,SW104*%
X118269200Y-114122200D03*
X125469200Y-114122200D03*
X121869200Y-117722200D03*
X121869200Y-110522200D03*
D11*
X125119200Y-111872200D03*
X118619200Y-111872200D03*
X118619200Y-116372200D03*
X125119200Y-116372200D03*
%TD*%
D12*
%TO.C,D201*%
X97307400Y-74276900D03*
X97307400Y-76776900D03*
%TD*%
D13*
%TO.C,J104*%
X109169200Y-85852000D03*
D14*
X106629200Y-85852000D03*
%TD*%
D13*
%TO.C,J101*%
X78308200Y-85852000D03*
D14*
X80848200Y-85852000D03*
%TD*%
D15*
%TO.C,J102*%
X72771000Y-107597600D03*
X72771000Y-105097600D03*
X72771000Y-102597600D03*
X72771000Y-100097600D03*
X72771000Y-97597600D03*
G36*
G01*
X72046000Y-94247600D02*
X73496000Y-94247600D01*
G75*
G02*
X73746000Y-94497600I0J-250000D01*
G01*
X73746000Y-95697600D01*
G75*
G02*
X73496000Y-95947600I-250000J0D01*
G01*
X72046000Y-95947600D01*
G75*
G02*
X71796000Y-95697600I0J250000D01*
G01*
X71796000Y-94497600D01*
G75*
G02*
X72046000Y-94247600I250000J0D01*
G01*
G37*
%TD*%
D16*
%TO.C,SW101*%
X124297440Y-91859100D03*
D17*
X121797440Y-91859100D03*
X119297440Y-91859100D03*
D18*
X127397440Y-99359100D03*
X116197440Y-99359100D03*
D17*
X124297440Y-106359100D03*
X119297440Y-106359100D03*
%TD*%
D19*
%TO.C,SW103*%
X106581200Y-112392900D03*
X98581200Y-112392900D03*
X106581200Y-116892900D03*
X98581200Y-116892900D03*
%TD*%
%TO.C,SW102*%
X88797900Y-112392900D03*
X80797900Y-112392900D03*
X88797900Y-116892900D03*
X80797900Y-116892900D03*
%TD*%
D14*
%TO.C,J103*%
X130873500Y-107823000D03*
X133413500Y-107823000D03*
X130873500Y-105283000D03*
X133413500Y-105283000D03*
X130873500Y-102743000D03*
D13*
X133413500Y-102743000D03*
%TD*%
%TO.C,C207*%
G36*
G01*
X105671600Y-75570500D02*
X106621600Y-75570500D01*
G75*
G02*
X106871600Y-75820500I0J-250000D01*
G01*
X106871600Y-76495500D01*
G75*
G02*
X106621600Y-76745500I-250000J0D01*
G01*
X105671600Y-76745500D01*
G75*
G02*
X105421600Y-76495500I0J250000D01*
G01*
X105421600Y-75820500D01*
G75*
G02*
X105671600Y-75570500I250000J0D01*
G01*
G37*
G36*
G01*
X105671600Y-73495500D02*
X106621600Y-73495500D01*
G75*
G02*
X106871600Y-73745500I0J-250000D01*
G01*
X106871600Y-74420500D01*
G75*
G02*
X106621600Y-74670500I-250000J0D01*
G01*
X105671600Y-74670500D01*
G75*
G02*
X105421600Y-74420500I0J250000D01*
G01*
X105421600Y-73745500D01*
G75*
G02*
X105671600Y-73495500I250000J0D01*
G01*
G37*
%TD*%
D14*
%TO.C,J201*%
X106578400Y-58331100D03*
D13*
X109118400Y-58331100D03*
%TD*%
%TO.C,C205*%
G36*
G01*
X92616000Y-75951500D02*
X93566000Y-75951500D01*
G75*
G02*
X93816000Y-76201500I0J-250000D01*
G01*
X93816000Y-76876500D01*
G75*
G02*
X93566000Y-77126500I-250000J0D01*
G01*
X92616000Y-77126500D01*
G75*
G02*
X92366000Y-76876500I0J250000D01*
G01*
X92366000Y-76201500D01*
G75*
G02*
X92616000Y-75951500I250000J0D01*
G01*
G37*
G36*
G01*
X92616000Y-73876500D02*
X93566000Y-73876500D01*
G75*
G02*
X93816000Y-74126500I0J-250000D01*
G01*
X93816000Y-74801500D01*
G75*
G02*
X93566000Y-75051500I-250000J0D01*
G01*
X92616000Y-75051500D01*
G75*
G02*
X92366000Y-74801500I0J250000D01*
G01*
X92366000Y-74126500D01*
G75*
G02*
X92616000Y-73876500I250000J0D01*
G01*
G37*
%TD*%
%TO.C,R202*%
G36*
G01*
X101516601Y-74720500D02*
X100616599Y-74720500D01*
G75*
G02*
X100366600Y-74470501I0J249999D01*
G01*
X100366600Y-73770499D01*
G75*
G02*
X100616599Y-73520500I249999J0D01*
G01*
X101516601Y-73520500D01*
G75*
G02*
X101766600Y-73770499I0J-249999D01*
G01*
X101766600Y-74470501D01*
G75*
G02*
X101516601Y-74720500I-249999J0D01*
G01*
G37*
G36*
G01*
X101516601Y-76720500D02*
X100616599Y-76720500D01*
G75*
G02*
X100366600Y-76470501I0J249999D01*
G01*
X100366600Y-75770499D01*
G75*
G02*
X100616599Y-75520500I249999J0D01*
G01*
X101516601Y-75520500D01*
G75*
G02*
X101766600Y-75770499I0J-249999D01*
G01*
X101766600Y-76470501D01*
G75*
G02*
X101516601Y-76720500I-249999J0D01*
G01*
G37*
%TD*%
%TO.C,C204*%
G36*
G01*
X88704400Y-75570500D02*
X89654400Y-75570500D01*
G75*
G02*
X89904400Y-75820500I0J-250000D01*
G01*
X89904400Y-76495500D01*
G75*
G02*
X89654400Y-76745500I-250000J0D01*
G01*
X88704400Y-76745500D01*
G75*
G02*
X88454400Y-76495500I0J250000D01*
G01*
X88454400Y-75820500D01*
G75*
G02*
X88704400Y-75570500I250000J0D01*
G01*
G37*
G36*
G01*
X88704400Y-73495500D02*
X89654400Y-73495500D01*
G75*
G02*
X89904400Y-73745500I0J-250000D01*
G01*
X89904400Y-74420500D01*
G75*
G02*
X89654400Y-74670500I-250000J0D01*
G01*
X88704400Y-74670500D01*
G75*
G02*
X88454400Y-74420500I0J250000D01*
G01*
X88454400Y-73745500D01*
G75*
G02*
X88704400Y-73495500I250000J0D01*
G01*
G37*
%TD*%
D14*
%TO.C,J202*%
X80797400Y-58331100D03*
D13*
X78257400Y-58331100D03*
%TD*%
%TO.C,C206*%
G36*
G01*
X103131600Y-75570500D02*
X104081600Y-75570500D01*
G75*
G02*
X104331600Y-75820500I0J-250000D01*
G01*
X104331600Y-76495500D01*
G75*
G02*
X104081600Y-76745500I-250000J0D01*
G01*
X103131600Y-76745500D01*
G75*
G02*
X102881600Y-76495500I0J250000D01*
G01*
X102881600Y-75820500D01*
G75*
G02*
X103131600Y-75570500I250000J0D01*
G01*
G37*
G36*
G01*
X103131600Y-73495500D02*
X104081600Y-73495500D01*
G75*
G02*
X104331600Y-73745500I0J-250000D01*
G01*
X104331600Y-74420500D01*
G75*
G02*
X104081600Y-74670500I-250000J0D01*
G01*
X103131600Y-74670500D01*
G75*
G02*
X102881600Y-74420500I0J250000D01*
G01*
X102881600Y-73745500D01*
G75*
G02*
X103131600Y-73495500I250000J0D01*
G01*
G37*
%TD*%
%TO.C,C202*%
G36*
G01*
X83065600Y-75570500D02*
X84015600Y-75570500D01*
G75*
G02*
X84265600Y-75820500I0J-250000D01*
G01*
X84265600Y-76495500D01*
G75*
G02*
X84015600Y-76745500I-250000J0D01*
G01*
X83065600Y-76745500D01*
G75*
G02*
X82815600Y-76495500I0J250000D01*
G01*
X82815600Y-75820500D01*
G75*
G02*
X83065600Y-75570500I250000J0D01*
G01*
G37*
G36*
G01*
X83065600Y-73495500D02*
X84015600Y-73495500D01*
G75*
G02*
X84265600Y-73745500I0J-250000D01*
G01*
X84265600Y-74420500D01*
G75*
G02*
X84015600Y-74670500I-250000J0D01*
G01*
X83065600Y-74670500D01*
G75*
G02*
X82815600Y-74420500I0J250000D01*
G01*
X82815600Y-73745500D01*
G75*
G02*
X83065600Y-73495500I250000J0D01*
G01*
G37*
%TD*%
D20*
%TO.C,J203*%
X103870400Y-68523100D03*
X103170400Y-68523100D03*
X102470400Y-68523100D03*
X101770400Y-68523100D03*
X101070400Y-68523100D03*
X100370400Y-68523100D03*
X99670400Y-68523100D03*
X98970400Y-68523100D03*
X98270400Y-68523100D03*
X97570400Y-68523100D03*
X96870400Y-68523100D03*
X96170400Y-68523100D03*
X95470400Y-68523100D03*
X94770400Y-68523100D03*
X94070400Y-68523100D03*
X93370400Y-68523100D03*
X92670400Y-68523100D03*
X91970400Y-68523100D03*
X91270400Y-68523100D03*
X90570400Y-68523100D03*
X89870400Y-68523100D03*
X89170400Y-68523100D03*
X88470400Y-68523100D03*
X87770400Y-68523100D03*
X87070400Y-68523100D03*
X86370400Y-68523100D03*
X85670400Y-68523100D03*
X84970400Y-68523100D03*
X84270400Y-68523100D03*
X83570400Y-68523100D03*
%TD*%
%TO.C,R201*%
G36*
G01*
X95674601Y-75076100D02*
X94774599Y-75076100D01*
G75*
G02*
X94524600Y-74826101I0J249999D01*
G01*
X94524600Y-74126099D01*
G75*
G02*
X94774599Y-73876100I249999J0D01*
G01*
X95674601Y-73876100D01*
G75*
G02*
X95924600Y-74126099I0J-249999D01*
G01*
X95924600Y-74826101D01*
G75*
G02*
X95674601Y-75076100I-249999J0D01*
G01*
G37*
G36*
G01*
X95674601Y-77076100D02*
X94774599Y-77076100D01*
G75*
G02*
X94524600Y-76826101I0J249999D01*
G01*
X94524600Y-76126099D01*
G75*
G02*
X94774599Y-75876100I249999J0D01*
G01*
X95674601Y-75876100D01*
G75*
G02*
X95924600Y-76126099I0J-249999D01*
G01*
X95924600Y-76826101D01*
G75*
G02*
X95674601Y-77076100I-249999J0D01*
G01*
G37*
%TD*%
%TO.C,C203*%
G36*
G01*
X86596200Y-75570500D02*
X87546200Y-75570500D01*
G75*
G02*
X87796200Y-75820500I0J-250000D01*
G01*
X87796200Y-76495500D01*
G75*
G02*
X87546200Y-76745500I-250000J0D01*
G01*
X86596200Y-76745500D01*
G75*
G02*
X86346200Y-76495500I0J250000D01*
G01*
X86346200Y-75820500D01*
G75*
G02*
X86596200Y-75570500I250000J0D01*
G01*
G37*
G36*
G01*
X86596200Y-73495500D02*
X87546200Y-73495500D01*
G75*
G02*
X87796200Y-73745500I0J-250000D01*
G01*
X87796200Y-74420500D01*
G75*
G02*
X87546200Y-74670500I-250000J0D01*
G01*
X86596200Y-74670500D01*
G75*
G02*
X86346200Y-74420500I0J250000D01*
G01*
X86346200Y-73745500D01*
G75*
G02*
X86596200Y-73495500I250000J0D01*
G01*
G37*
%TD*%
%TO.C,C201*%
G36*
G01*
X79509600Y-75570500D02*
X80459600Y-75570500D01*
G75*
G02*
X80709600Y-75820500I0J-250000D01*
G01*
X80709600Y-76495500D01*
G75*
G02*
X80459600Y-76745500I-250000J0D01*
G01*
X79509600Y-76745500D01*
G75*
G02*
X79259600Y-76495500I0J250000D01*
G01*
X79259600Y-75820500D01*
G75*
G02*
X79509600Y-75570500I250000J0D01*
G01*
G37*
G36*
G01*
X79509600Y-73495500D02*
X80459600Y-73495500D01*
G75*
G02*
X80709600Y-73745500I0J-250000D01*
G01*
X80709600Y-74420500D01*
G75*
G02*
X80459600Y-74670500I-250000J0D01*
G01*
X79509600Y-74670500D01*
G75*
G02*
X79259600Y-74420500I0J250000D01*
G01*
X79259600Y-73745500D01*
G75*
G02*
X79509600Y-73495500I250000J0D01*
G01*
G37*
%TD*%
M02*
